<mxfile host="65bd71144e">
    <diagram id="0I85q6sH4Gij2uIIyvRQ" name="Page-1">
        <mxGraphModel dx="1060" dy="1940" grid="1" gridSize="10" guides="1" tooltips="1" connect="1" arrows="1" fold="1" page="1" pageScale="1" pageWidth="827" pageHeight="1169" math="0" shadow="0">
            <root>
                <mxCell id="0"/>
                <mxCell id="1" parent="0"/>
                <mxCell id="36" value="" style="group" parent="1" vertex="1" connectable="0">
                    <mxGeometry x="30" y="310" width="120" height="120" as="geometry"/>
                </mxCell>
                <mxCell id="35" value="Pure git" style="whiteSpace=wrap;html=1;aspect=fixed;fontSize=16;fillColor=#dae8fc;strokeColor=#6c8ebf;verticalAlign=top;" parent="36" vertex="1">
                    <mxGeometry width="120" height="120" as="geometry"/>
                </mxCell>
                <mxCell id="20" value="" style="group;fillColor=#f5f5f5;fontColor=#333333;strokeColor=#666666;" parent="36" vertex="1" connectable="0">
                    <mxGeometry x="20" y="30" width="80" height="80" as="geometry"/>
                </mxCell>
                <mxCell id="14" value="" style="whiteSpace=wrap;html=1;aspect=fixed;fontSize=16;strokeWidth=2;fillColor=#f5f5f5;fontColor=#333333;strokeColor=#666666;" parent="20" vertex="1">
                    <mxGeometry width="80" height="80" as="geometry"/>
                </mxCell>
                <mxCell id="15" value="" style="shape=image;imageAspect=0;aspect=fixed;verticalLabelPosition=bottom;verticalAlign=top;fontSize=16;strokeWidth=2;fillColor=#99FFFF;image=data:image/svg+xml,PHN2ZyB4bWxucz0iaHR0cDovL3d3dy53My5vcmcvMjAwMC9zdmciIHdpZHRoPSI5MnB0IiBoZWlnaHQ9IjkycHQiIHZpZXdCb3g9IjAgMCA5MiA5MiI+PGRlZnM+PGNsaXBQYXRoIGlkPSJhIj48cGF0aCBkPSJNMCAuMTEzaDkxLjg4N1Y5MkgwWm0wIDAiLz48L2NsaXBQYXRoPjwvZGVmcz48ZyBjbGlwLXBhdGg9InVybCgjYSkiPjxwYXRoIHN0eWxlPSJzdHJva2U6bm9uZTtmaWxsLXJ1bGU6bm9uemVybztmaWxsOiNmMDNjMmU7ZmlsbC1vcGFjaXR5OjEiIGQ9Ik05MC4xNTYgNDEuOTY1IDUwLjAzNiAxLjg0OGE1LjkxOCA1LjkxOCAwIDAgMC04LjM3MiAwbC04LjMyOCA4LjMzMiAxMC41NjYgMTAuNTY2YTcuMDMgNy4wMyAwIDAgMSA3LjIzIDEuNjg0IDcuMDM0IDcuMDM0IDAgMCAxIDEuNjY5IDcuMjc3bDEwLjE4NyAxMC4xODRhNy4wMjggNy4wMjggMCAwIDEgNy4yNzggMS42NzIgNy4wNCA3LjA0IDAgMCAxIDAgOS45NTcgNy4wNSA3LjA1IDAgMCAxLTkuOTY1IDAgNy4wNDQgNy4wNDQgMCAwIDEtMS41MjgtNy42NmwtOS41LTkuNDk3VjU5LjM2YTcuMDQgNy4wNCAwIDAgMSAxLjg2IDExLjI5IDcuMDQgNy4wNCAwIDAgMS05Ljk1NyAwIDcuMDQgNy4wNCAwIDAgMSAwLTkuOTU4IDcuMDYgNy4wNiAwIDAgMSAyLjMwNC0xLjUzOVYzMy45MjZhNy4wNDkgNy4wNDkgMCAwIDEtMy44Mi05LjIzNEwyOS4yNDIgMTQuMjcyIDEuNzMgNDEuNzc3YTUuOTI1IDUuOTI1IDAgMCAwIDAgOC4zNzFMNDEuODUyIDkwLjI3YTUuOTI1IDUuOTI1IDAgMCAwIDguMzcgMGwzOS45MzQtMzkuOTM0YTUuOTI1IDUuOTI1IDAgMCAwIDAtOC4zNzEiLz48L2c+PC9zdmc+;" parent="20" vertex="1">
                    <mxGeometry x="10.000000000000007" y="10" width="60" height="60" as="geometry"/>
                </mxCell>
                <mxCell id="42" value="" style="group" parent="1" vertex="1" connectable="0">
                    <mxGeometry x="690" y="75" width="120" height="310" as="geometry"/>
                </mxCell>
                <mxCell id="38" value="Runners" style="rounded=0;whiteSpace=wrap;html=1;fontSize=16;verticalAlign=top;fillColor=#dae8fc;strokeColor=#6c8ebf;" parent="42" vertex="1">
                    <mxGeometry width="120" height="310" as="geometry"/>
                </mxCell>
                <mxCell id="23" value="Runner 1" style="whiteSpace=wrap;html=1;aspect=fixed;fontSize=16;strokeWidth=2;fillColor=#f5f5f5;strokeColor=#666666;fontColor=#333333;" parent="42" vertex="1">
                    <mxGeometry x="20" y="40" width="80" height="80" as="geometry"/>
                </mxCell>
                <mxCell id="24" value="Runner N" style="whiteSpace=wrap;html=1;aspect=fixed;fontSize=16;strokeWidth=2;fillColor=#f5f5f5;strokeColor=#666666;fontColor=#333333;" parent="42" vertex="1">
                    <mxGeometry x="20" y="210" width="80" height="80" as="geometry"/>
                </mxCell>
                <mxCell id="40" value="" style="endArrow=none;dashed=1;html=1;dashPattern=1 3;strokeWidth=2;fontSize=16;endSize=14;sourcePerimeterSpacing=3;targetPerimeterSpacing=9;jumpSize=14;" parent="42" edge="1">
                    <mxGeometry width="50" height="50" relative="1" as="geometry">
                        <mxPoint x="59.5" y="200" as="sourcePoint"/>
                        <mxPoint x="59.5" y="120" as="targetPoint"/>
                    </mxGeometry>
                </mxCell>
                <mxCell id="60" style="edgeStyle=none;jumpSize=14;html=1;fontSize=16;startArrow=none;startFill=0;startSize=14;endSize=14;sourcePerimeterSpacing=0;targetPerimeterSpacing=0;exitX=0;exitY=0.276;exitDx=0;exitDy=0;exitPerimeter=0;" parent="1" source="57" edge="1">
                    <mxGeometry relative="1" as="geometry">
                        <mxPoint x="150" y="160" as="targetPoint"/>
                    </mxGeometry>
                </mxCell>
                <mxCell id="61" value="Register webhook" style="edgeLabel;html=1;align=center;verticalAlign=middle;resizable=0;points=[];fontSize=16;" parent="60" vertex="1" connectable="0">
                    <mxGeometry x="0.28" y="1" relative="1" as="geometry">
                        <mxPoint x="23" y="-21" as="offset"/>
                    </mxGeometry>
                </mxCell>
                <mxCell id="64" style="edgeStyle=none;jumpSize=14;html=1;fontSize=16;startArrow=none;startFill=0;startSize=14;endSize=14;sourcePerimeterSpacing=0;targetPerimeterSpacing=0;exitX=0;exitY=0.631;exitDx=0;exitDy=0;exitPerimeter=0;entryX=1;entryY=0.923;entryDx=0;entryDy=0;entryPerimeter=0;" parent="1" source="57" target="32" edge="1">
                    <mxGeometry relative="1" as="geometry">
                        <mxPoint x="170" y="270" as="targetPoint"/>
                    </mxGeometry>
                </mxCell>
                <mxCell id="65" value="Set commit status" style="edgeLabel;html=1;align=center;verticalAlign=middle;resizable=0;points=[];fontSize=16;" parent="64" vertex="1" connectable="0">
                    <mxGeometry x="0.167" y="-1" relative="1" as="geometry">
                        <mxPoint x="11" y="-19" as="offset"/>
                    </mxGeometry>
                </mxCell>
                <mxCell id="68" style="edgeStyle=none;jumpSize=14;html=1;fontSize=16;startArrow=none;startFill=0;startSize=14;endSize=14;sourcePerimeterSpacing=0;targetPerimeterSpacing=0;entryX=0;entryY=0.5;entryDx=0;entryDy=0;exitX=1;exitY=0.824;exitDx=0;exitDy=0;exitPerimeter=0;" parent="1" source="57" target="29" edge="1">
                    <mxGeometry relative="1" as="geometry">
                        <mxPoint x="450" y="340" as="targetPoint"/>
                    </mxGeometry>
                </mxCell>
                <mxCell id="69" value="Create job" style="edgeLabel;html=1;align=center;verticalAlign=middle;resizable=0;points=[];fontSize=16;" parent="68" vertex="1" connectable="0">
                    <mxGeometry x="-0.5188" relative="1" as="geometry">
                        <mxPoint x="19" y="-10" as="offset"/>
                    </mxGeometry>
                </mxCell>
                <mxCell id="76" style="edgeStyle=none;jumpSize=14;html=1;entryX=0.5;entryY=1;entryDx=0;entryDy=0;entryPerimeter=0;fontSize=16;startArrow=classic;startFill=1;startSize=14;endSize=14;sourcePerimeterSpacing=0;targetPerimeterSpacing=0;" parent="1" source="57" target="26" edge="1">
                    <mxGeometry relative="1" as="geometry"/>
                </mxCell>
                <mxCell id="57" value="CI Server" style="rounded=0;whiteSpace=wrap;html=1;fontSize=16;fillColor=#dae8fc;strokeColor=#6c8ebf;" parent="1" vertex="1">
                    <mxGeometry x="290" y="74.5" width="120" height="310" as="geometry"/>
                </mxCell>
                <mxCell id="62" style="edgeStyle=none;jumpSize=14;html=1;fontSize=16;startArrow=none;startFill=0;startSize=14;endSize=14;sourcePerimeterSpacing=0;targetPerimeterSpacing=0;entryX=0;entryY=0.405;entryDx=0;entryDy=0;entryPerimeter=0;exitX=1;exitY=0.654;exitDx=0;exitDy=0;exitPerimeter=0;" parent="1" source="32" target="57" edge="1">
                    <mxGeometry relative="1" as="geometry">
                        <mxPoint x="160" y="200" as="sourcePoint"/>
                        <mxPoint x="280" y="200" as="targetPoint"/>
                    </mxGeometry>
                </mxCell>
                <mxCell id="63" value="Triggered webhook" style="edgeLabel;html=1;align=center;verticalAlign=middle;resizable=0;points=[];fontSize=16;" parent="62" vertex="1" connectable="0">
                    <mxGeometry x="-0.4869" y="1" relative="1" as="geometry">
                        <mxPoint x="34" y="-15" as="offset"/>
                    </mxGeometry>
                </mxCell>
                <mxCell id="66" style="edgeStyle=none;jumpSize=14;html=1;fontSize=16;startArrow=none;startFill=0;startSize=14;endSize=14;sourcePerimeterSpacing=0;targetPerimeterSpacing=0;exitX=1;exitY=0.25;exitDx=0;exitDy=0;entryX=0;entryY=0.856;entryDx=0;entryDy=0;entryPerimeter=0;" parent="1" source="35" target="57" edge="1">
                    <mxGeometry relative="1" as="geometry">
                        <mxPoint x="280" y="340" as="targetPoint"/>
                    </mxGeometry>
                </mxCell>
                <mxCell id="67" value="Triggered git hook" style="edgeLabel;html=1;align=center;verticalAlign=middle;resizable=0;points=[];fontSize=16;labelBackgroundColor=none;" parent="66" vertex="1" connectable="0">
                    <mxGeometry x="-0.073" y="-1" relative="1" as="geometry">
                        <mxPoint x="2" y="-22" as="offset"/>
                    </mxGeometry>
                </mxCell>
                <mxCell id="71" style="edgeStyle=none;jumpSize=14;html=1;entryX=1;entryY=0.5;entryDx=0;entryDy=0;fontSize=16;startArrow=none;startFill=0;startSize=14;endSize=14;sourcePerimeterSpacing=0;targetPerimeterSpacing=0;exitX=0;exitY=0.823;exitDx=0;exitDy=0;exitPerimeter=0;" parent="1" source="38" target="29" edge="1">
                    <mxGeometry relative="1" as="geometry"/>
                </mxCell>
                <mxCell id="72" value="Get job" style="edgeLabel;html=1;align=center;verticalAlign=middle;resizable=0;points=[];fontSize=16;labelBackgroundColor=none;" parent="71" vertex="1" connectable="0">
                    <mxGeometry x="0.5089" y="1" relative="1" as="geometry">
                        <mxPoint x="28" y="-11" as="offset"/>
                    </mxGeometry>
                </mxCell>
                <mxCell id="74" style="edgeStyle=none;jumpSize=14;html=1;entryX=1;entryY=0.5;entryDx=0;entryDy=0;fontSize=16;startArrow=none;startFill=0;startSize=14;endSize=14;sourcePerimeterSpacing=0;targetPerimeterSpacing=0;" parent="1" source="38" target="57" edge="1">
                    <mxGeometry relative="1" as="geometry"/>
                </mxCell>
                <mxCell id="75" value="Report job staus" style="edgeLabel;html=1;align=center;verticalAlign=middle;resizable=0;points=[];fontSize=16;labelBackgroundColor=none;" parent="74" vertex="1" connectable="0">
                    <mxGeometry x="0.4698" y="-2" relative="1" as="geometry">
                        <mxPoint x="66" y="-8" as="offset"/>
                    </mxGeometry>
                </mxCell>
                <mxCell id="78" style="edgeStyle=none;jumpSize=14;html=1;entryX=0.5;entryY=1;entryDx=0;entryDy=0;fontSize=16;startArrow=none;startFill=0;startSize=14;endSize=14;sourcePerimeterSpacing=0;targetPerimeterSpacing=0;" parent="1" source="77" target="57" edge="1">
                    <mxGeometry relative="1" as="geometry"/>
                </mxCell>
                <mxCell id="80" value="UI interface" style="edgeLabel;html=1;align=center;verticalAlign=middle;resizable=0;points=[];fontSize=16;" parent="78" vertex="1" connectable="0">
                    <mxGeometry x="-0.2237" y="2" relative="1" as="geometry">
                        <mxPoint x="2" y="-3" as="offset"/>
                    </mxGeometry>
                </mxCell>
                <mxCell id="79" style="edgeStyle=none;jumpSize=14;html=1;entryX=1;entryY=0.75;entryDx=0;entryDy=0;fontSize=16;startArrow=none;startFill=0;startSize=14;endSize=14;sourcePerimeterSpacing=0;targetPerimeterSpacing=0;" parent="1" source="77" target="35" edge="1">
                    <mxGeometry relative="1" as="geometry"/>
                </mxCell>
                <mxCell id="81" value="Manualy register&lt;br&gt;&amp;nbsp;git hook in bare repo" style="edgeLabel;html=1;align=center;verticalAlign=middle;resizable=0;points=[];fontSize=16;" parent="79" vertex="1" connectable="0">
                    <mxGeometry x="0.4475" y="2" relative="1" as="geometry">
                        <mxPoint x="10" y="38" as="offset"/>
                    </mxGeometry>
                </mxCell>
                <mxCell id="77" value="User" style="shape=umlActor;verticalLabelPosition=bottom;verticalAlign=top;html=1;outlineConnect=0;labelBackgroundColor=none;fontSize=16;" parent="1" vertex="1">
                    <mxGeometry x="335" y="530" width="30" height="60" as="geometry"/>
                </mxCell>
                <mxCell id="86" value="" style="group" vertex="1" connectable="0" parent="1">
                    <mxGeometry x="22.560000000000002" y="30" width="134.87" height="260" as="geometry"/>
                </mxCell>
                <mxCell id="32" value="&lt;span style=&quot;font-size: 16px&quot;&gt;VSC with webhooks&lt;/span&gt;" style="rounded=0;whiteSpace=wrap;html=1;fillColor=#dae8fc;strokeColor=#6c8ebf;verticalAlign=top;" parent="86" vertex="1">
                    <mxGeometry x="7.439999999999998" width="120" height="260" as="geometry"/>
                </mxCell>
                <mxCell id="2" value="" style="whiteSpace=wrap;html=1;aspect=fixed;strokeWidth=2;fillColor=#f5f5f5;fontColor=#333333;strokeColor=#666666;" parent="86" vertex="1">
                    <mxGeometry x="27.379999999999995" y="60" width="80" height="80" as="geometry"/>
                </mxCell>
                <mxCell id="19" value="" style="group;fillColor=#f5f5f5;fontColor=#333333;strokeColor=#666666;" parent="86" vertex="1" connectable="0">
                    <mxGeometry x="27.439999999999976" y="160" width="80" height="80" as="geometry"/>
                </mxCell>
                <mxCell id="8" value="" style="whiteSpace=wrap;html=1;aspect=fixed;fontSize=16;strokeWidth=2;fillColor=#f5f5f5;fontColor=#333333;strokeColor=#666666;" parent="19" vertex="1">
                    <mxGeometry width="80" height="80" as="geometry"/>
                </mxCell>
                <mxCell id="12" value="" style="shape=image;imageAspect=0;aspect=fixed;verticalLabelPosition=bottom;verticalAlign=top;fontSize=16;strokeWidth=2;fillColor=#99FFFF;image=data:image/svg+xml,PHN2ZyB4bWxucz0iaHR0cDovL3d3dy53My5vcmcvMjAwMC9zdmciIHZpZXdCb3g9IjAgMCAxMjggMTI4Ij48cGF0aCBmaWxsPSIjRkM2RDI2IiBkPSJNMTI2LjYxNSA3Mi4zMWwtNy4wMzQtMjEuNjQ3TDEwNS42NCA3Ljc2Yy0uNzE2LTIuMjA2LTMuODQtMi4yMDYtNC41NTYgMGwtMTMuOTQgNDIuOTAzSDQwLjg1NkwyNi45MTYgNy43NmMtLjcxNy0yLjIwNi0zLjg0LTIuMjA2LTQuNTU3IDBMOC40MiA1MC42NjQgMS4zODUgNzIuMzFhNC43OTIgNC43OTIgMCAwIDAgMS43NCA1LjM1OEw2NCAxMjEuODk0bDYwLjg3NC00NC4yMjdhNC43OTMgNC43OTMgMCAwIDAgMS43NC01LjM1NyIvPjxwYXRoIGZpbGw9IiNFMjQzMjkiIGQ9Ik02NCAxMjEuODk0bDIzLjE0NC03MS4yM0g0MC44NTZMNjQgMTIxLjg5M3oiLz48cGF0aCBmaWxsPSIjRkM2RDI2IiBkPSJNNjQgMTIxLjg5NGwtMjMuMTQ0LTcxLjIzSDguNDJMNjQgMTIxLjg5M3oiLz48cGF0aCBmaWxsPSIjRkNBMzI2IiBkPSJNOC40MiA1MC42NjNMMS4zODQgNzIuMzFhNC43OSA0Ljc5IDAgMCAwIDEuNzQgNS4zNTdMNjQgMTIxLjg5NCA4LjQyIDUwLjY2NHoiLz48cGF0aCBmaWxsPSIjRTI0MzI5IiBkPSJNOC40MiA1MC42NjNoMzIuNDM2TDI2LjkxNiA3Ljc2Yy0uNzE3LTIuMjA2LTMuODQtMi4yMDYtNC41NTcgMEw4LjQyIDUwLjY2NHoiLz48cGF0aCBmaWxsPSIjRkM2RDI2IiBkPSJNNjQgMTIxLjg5NGwyMy4xNDQtNzEuMjNoMzIuNDM3TDY0IDEyMS44OTN6Ii8+PHBhdGggZmlsbD0iI0ZDQTMyNiIgZD0iTTExOS41OCA1MC42NjNsNy4wMzUgMjEuNjQ3YTQuNzkgNC43OSAwIDAgMS0xLjc0IDUuMzU3TDY0IDEyMS44OTRsNTUuNTgtNzEuMjN6Ii8+PHBhdGggZmlsbD0iI0UyNDMyOSIgZD0iTTExOS41OCA1MC42NjNIODcuMTQ1bDEzLjk0LTQyLjkwMmMuNzE3LTIuMjA2IDMuODQtMi4yMDYgNC41NTcgMGwxMy45NCA0Mi45MDN6Ii8+PC9zdmc+;" parent="19" vertex="1">
                    <mxGeometry x="7.5" y="7.5" width="65" height="65" as="geometry"/>
                </mxCell>
                <mxCell id="84" value="" style="shape=image;imageAspect=0;aspect=fixed;verticalLabelPosition=bottom;verticalAlign=top;image=data:image/png,iVBORw0KGgoAAAANSUhEUgAAC7gAAAfQCAMAAABlzOIIAAAABGdBTUEAALGPC/xhBQAAAAFzUkdCAK7OHOkAAAMAUExURUdwTAAAAAAAAAAAAAAAAAAAAAAAAAAAAAAAAAAAAAAAAAAAAAAAAAAAAAAAAAAAAAAAAAAAAAAAAAAAAAAAAAAAAAAAAAAAAAAAAAAAAAAAAAAAAAAAAAAAAAAAAAAAAAAAAAAAAAAAAAAAAAAAAAAAAAAAAAAAAAAAAAAAAAAAAAAAAAAAAAAAAAAAAAAAAAAAAAAAAAAAAAAAAAAAAAAAAAAAAAAAAAAAAAAAAAAAAAAAAAAAAAAAAAAAAAAAAAAAAAAAAAAAAAAAAAAAAAAAAAAAAAAAAAAAAAAAAAAAAAAAAAAAAAAAAAAAAAAAAAAAAAAAAAAAAAAAAAAAAAAAAAAAAAAAAAAAAAAAAAAAAAAAAAAAAAAAAAAAAAAAAAAAAAAAAAAAAAAAAAAAAAAAAAAAAAAAAAAAAAAAAAAAAAAAAAAAAAAAAAAAAAAAAAAAAAAAAAAAAAAAAAAAAAAAAAAAAAAAAAAAAAAAAAAAAAAAAAAAAAAAAAAAAAAAAAAAAAAAAAAAAAAAAAAAAAAAAAAAAAAAAAAAAAAAAAAAAAAAAAAAAAAAAAAAAAAAAAAAAAAAAAAAAAAAAAAAAAAAAAAAAAAAAAAAAAAAAAAAAAAAAAAAAAAAAAAAAAAAAAAAAAAAAAAAAAAAAAAAAAAAAAAAAAAAAAAAAAAAAAAAAAAAAAAAAAAAAAAAAAAAAAAAAAAAAAAAAAAAAAAAAAAAAAAAAAAAAAAAAAAAAAAAAAAAAAAAAAAAAAAAAAAAAAAAAAAAAAAAAAAAAAAAAAAAAAAAAAAAAAAAAAAAAAAAAAAAAAAAAAAAAAAAAAAAAAAAAAAAAAAAAAAAAAAAAAAAAAAAAAAAAAAAAAAAAAAAAAAAAAAAAAAAAAAAAAAAAAAAAAAAAAAAAAAAAAAAAAAAAAAAAAAAAAAAAAAAAAAAAAAAAAAAAAAAAAAAAAAAAAAAAAAAAAAAAAAAAAAAAAAAAAAAAAAAAAAAAAAAAAAAAAAAAAAAAAAAAAAAAAAAANHuELwAAAD/dFJOUwD7/IgDAgQB/v1mmXf4qoAFBvkHCwn2kfr0VUQRDPcIDsxeb031Cu/zDRrdFO678NXmKzPyouwS2BDtsyLeD+U85MTqG9Hc4Os2KtIoJeIXJx/oGdpQ8S7b0CHTOh3Nl87p4THH50FwLCBZJBOWFSOmxbY14xa8MqPZQNR4NKg7eyYvP7KwsT2kvhh0MH9gt24ck8GhfI/W351YU4O5rqyJRmI3qSnJhF9IrziMupW9tJJxnMqYSmeekMjGnx6rdqdJLW3PQovLYXNOuD45fXKFbHmawkO/fnW1rUVUUcOlateGepSCXIFba09XR4ddoFLAVmVLjZtpTI5oZFqKY64YgvEAACAASURBVHja7MEBAQAAAICQ/q/uCAoAAAAAAAAAAAAAAAAAAAAAAAAAAAAAAAAAAAAAAAAAAAAAAAAAAAAAAAAAAAAAAAAAAAAAAAAAAAAAAAAAAAAAAAAAAAAAAAAAAAAAAAAAAAAAAAAAAAAAAAAAAAAAAAAAAAAAAAAAAAAAAAAAAAAAAAAAAAAAAAAAAAAAAAAAAAAAAAAAAAAAAAAAAAAAAAAAAAAAAAAAAAAAAAAAAAAAAAAAAAAAAAAAAAAAAAAAAAAAAAAAAAAAAAAAAAAAAAAAAAAAAAAAAAAAAAAAAAAAAAAAAAAAAAAAAAAAAAAAAAAAAAAAAAAAAAAAAAAAAAAAAAAAAAAAAAAAAAAAAAAAAAAAAAAAAAAAAAAAAAAAAAAAAAAAAAAAAAAAAAAAAAAAAAAAAAAAAAAAAAAAAAAAAAAAAAAAAAAAAAAAAAAAAAAAAAAAAAAAAAAAAAAAAAAAAAAAAAAAAAAAAAAAAAAAAAAAAAAAAAAAAAAAAAAAAAAAAAAAAAAAAAAAAAAAAAAAAAAAAAAAAAAAAAAAAAAAAAAAAAAAAAAAAAAAAAAAAAAAAAAAAAAAAAAAAAAAAAAAAAAAAAAAAAAAAAAAAAAAAAAAAAAAAAAAAAAAAAAAAAAAAAAAAAAAAAAAAAAAAAAAAAAAAAAAAAAAAAAAAAAAAAAAAAAAAAAAAAAAAACA2aN/VwgAMAzAwxHOdSkK57KQcE5yyXLl92ZgYDKYmJSbLoOykDCcQeIPwEBIko1BySBlJwMZ+AsMx7FYLCSG55m+vt7pfQEAAAAAAAAAAAAAAAAAAAAAAAAAAAAAAAAAAAAAAAAAAAAAAAAAAAAAAAAAAAAAAAAAAAAAAAAAAAAAAAAAAAAAAAAAAAAAAAAAAAAAAAAAAAAAAAAAAAAAAAAAAAAAAAAAAAAAAAAAAAAAAAAAAAAAAAAAAAAAAAAAAAAAAAAAAAAAAAAAAAAAAAAAAAAAAAAAAAAAAAAAAAAAAAAAAAAAAAAAAAAAAAAAAAAAAAAAAAAAAAAAAAAAAAAAAAAAAAAAAAAAAAAAAAAAAAAAAAAAAAAAAAAAAAAAAAAAAAAAAAAAAAAAAAAAAAAAAAAAAAAAAAAAAAAAAAAAAAAAAAAAAAAAAAAAAAAAAAAAAAAAAAAAAAAAAAAAAAAAAAAAAAAAAAAAAAAAAAAAAAAAAAAAAAAAAAAAAAAAAAAAAAAAAAAAAAAAAAAAAAAAAAAAAAAAAAAAAAAAAAAAAAAAAAAAAAAAAAAAAAAAAAAAAAAAAAAAAAAAAAAAAAAAAAAAAAAAAAAAAAAAAAAAAAAAAAAAAAAAAAAAAAAAAAAAAAAAAAAAAAAAAAAAAAAAAAAAAAAAAAAAAAAAAAAAAAAAAAAAAAAAAAAAAAAA4JOy6GAyPV31FHkMZkKh0EogZ7845yScc5A7D9/f92+BxeB5pLZqJDGQbIoWqA8AAH5Bw3LryOn6Ueh54nbvpi/WFa/O/khhvCd2t7ETvt6+zGwNjaWT7XlKBgCAb4gOdA4dXZZP7o7G4kXZ31ffsZqaW7saf3ha6i1VPwAAfK1gIXHxMnM8v9PXUZH9S8NTqdmDzfHHs/46qwAAwIeSxkRtMNDW3FKZ/X+qY93hQE2kM5lvKAB4Ze/+X+O+CziO01xyTe4ud0na5Nq7rUnurtmSpmmS6zVtk9rsWpvNrmqXMiP1yzpWcW502jWoUxibaBmIIAoVdDqYPxarP0wY4uYvMkXrDzL0F39QEH8REfbTRORUBN3Y6vLl7vL58nj8C/d+HU+O+7w/QDxdev4Tv/7jl0YvdjfCoHffq5+8Xq583G/wAADERP9CMZXIjh5ohNP+0WwiVVxI+iABAIioyQ/96bd/ffVKdyMKBlaefeHlQnXcxwoAQHRMFFP5qZlGFO2vpzMV/4AHACDc+mcLmdro7kbU9U5nE6XqTh84AABhM/j43198dqm7EScd+y5f/1l12IcPAEAoTBTLtemORlx17JvPFWa3OwcAAARW32wpMX+hQaNxoJ4uL/rvDAAAQXOk+PmfTG8T7G/Sc+6lX/1w1eEAACAQ+qrl2nSPTL+Vmflc5ZJjAgDAFkrOlvL1AW2+tnqfc2AAAGi/iUK+PqTI12Nfrbw45uQAANAuY4vl7FEdviHbptOls44QAACttlpJ1Hv19yb/OJMtV71tFQCAVlkopae7ZXdzHKwnKkecKQAAmit58+dfPKG2m/2/mVdefG3Z4QIAoEkWUtk7VHbLHllNl046YwAAbD7aD4nr1sd74VFnDQCADVoupB8U1e16zep0unCbMwcAwDqtFtLTarrNOkbzhRFnDwCANep7IvFuFb1FBm68/AFHEACAd7Ra8iTqVruQLc05iQAA3FJnNTfqovaA/GsmUUw6kQAAvNX7/NQeMIeyqa86lwAAvEHnL587LZQDqPuBv1ztdD4BAPi34WL+okQO8g/vpRGnFAAg7uYKtYPaOOj2TJW9XRUAIMbOpuZ3qeKQmM5VtzuyAAAxNJupu0EmXL6RrvQ7uAAAcdL1xA8e1MFhdPQz3xx0fgEAYqKaP66Aw2tovnS7QwwAEHmzuVPaV7sDABDwaj+nerU7AAABr/bDele7AwAQaO/JXVO60bP7u7/zrCoAQHTMpeoaN7K/u2crSUccACACdlSy3rIUbcfzi845AEDIVfN3C9sYuJZbcNgBAELrx5kVSRsXPfXypCMPABBCR0pT3XI2VnrnC/0OPgBAqHRWvtMrZGPo6EdvOv0AAKFxMrMkYWPrD5lVEwAACIHOYrZDvcbawHzBDZEAAAF3JnGfcKVxPPGYMQAABNaOgudR+e8tM6kxkwAACKL3J07IVd7gQPrTZgEAEDDDX/mUUOUtPvL7EeMAAAiOiZz3o/L29tSeNhAAgGBYzG7Tp9zaaGrQSgAAttp46rwy5R1cSDxsKgAAW+lMYr8qZS2XzEwVOu0FAGBrdBXn3f7Imp3KTBoNAED7vat8TIuyLr3ZJw0HAKC9nnphSIeyfg+9lrQeAIC2qdY6JCgbM5ObsyAAgHboqnjXEptxZ/peMwIAaLWdqcPKk83eMTNfNCUAgFZazR1SnTTDA6lhewIAaJEzeU+k0jQXc4/aFABAC/z0slvbaard3ztjVwAATVZ8SGfSgj+732NbAADN01V5RWPSGvWKgQEANCnbC9fkJS18TrXUaWUAAJvWXzonLWmtlVSfpQEAbMrO8hVZSestlcesDQBgw8bLM5KS9rg7N2dxAAAbMvmtO+Qk7XPwH8tWBwCwbuOZA1KS9hpIn7Q8AIB12ZnZLyPZinSfsD4AgDUbK98nIZHuAADB1p86Lh/ZOr3SHQBgDfpKx6Qj0h0AINi6CiuykSCkuxtmAAD+X7YflowEw968dAcAuIXKeblIgNL9Oa9kAgB4G4//RioSLHcmxg0TAODNzta6dSKBcyKzwzgBAP5nMtGrEQmkpVSngQIA/MdY5n59SGB9rmCjAAD/kkzNaEMC7UdfsFMAgOJpXUjgTX3ZVAGAeHv+a5qQMOjJPmauAEB8PfySICQsBq7fZrIAQDyN5YbUICFy1N2QAEAcbS8sKUFC5rMumAEAYqdaV4GE0A1PqQIAsbKc7pGAhPMp1dqyAQMAcdFX9sIlwmtv4nYjBgBioXJK+xFqd6W67BgAiLx7L+s+Qm/Uu1QBgIgbyW8TfURB9sPmDABEWOW9go+o/NU9N2zRAEBEPfILtUeEnHrdqAGAKBrM9Uo9omV+wbABgMh5/ZjMI3IG8q6GBACi5WRN4xFJV0rmDQBER7J8UOARVTdmTRwAiIir58UdEbYrP2LlAEAEXPp6t7Qj2u76s6EDAKFXOCHriL5nnrJ1ACDUJr4t6YiFoVy/vQMAobU9db+gIy5O3zR5ACCkHnlGzBEj3bU5qwcAQiiZ2SPliJeLLnUHAMLn6VEZR/x8/6ztAwChMpjbpeGIo72ZpP0DAOFx9bCAI64+eI9vAAAgJMbTXrlEjHX8bcy3AAAQBk+uSDfi7djHfA8AAP9k795fu6rjOI7z1W3fTTc3c9MsL8ulI3VJ5pwX1GCpNS2t7IKh1TIvdLEozRKTMsvqh8oMComISpKwwvypUBKEIPK3DDIKhAgqKoqiiMASrTSn7vK9fM7nPB5/xIsnh3PeJ3jDe1foNtKuvO9QWwAAhO3VQ6INDh9+4YA1AAACVlPpmAwce+h+gUUAAEK1/Ga5Bv+Y/blNAACCVFZZpdXgOP1a7AIAEJ6VX+o0ONFF31oGACAw2T6DVRqc/ND9DusAAIRk908KDToyY7t9AADCsXWKPoNTaHbTHQAIRN0gbQanNma9lQAAQrDuAWUGp5PpXWMoAIBiyzacpcvgDLbNtxUAQHHNe1qTwZkNbMiaCwCgiK6dqMigU14abTAAgGIZ7qtU6LTLvrAZAEBxjJ+jxaAL+g0xGwBA4WV3Vgkx6JJpl1gOAKDQ6veoMOiqXtUlxgMAKKiLx2gw6IYlK8wHAFBAfRxvh+5pPMeAAACFUv+Q+oJua64zIgBAQdx6g/SCHli73IwAAAUwYqDwgh4Z2GBIAIB8u+Bu1QU9tmeyMQEA8qptreSCHHjhTXMCAOTRiJGCC3IiU11qUQCAPKlrVluQM1NbjAoAkBeLdkktyKErvS4DAOTDhluEFuRUlesyAEDu9cnILMi1TbW2BQDIqbotEgvy4FCbeQEAcmjlHIEFeTHhZwMDAOTM9iZ5BfnSt7+NAQByIlvZS1tB/nw52swAADkwdI+wgrxq/dzQAAA9dsVaWQV51stvVAGAnvplnKiC/HtsurUBAHrC9XYojAXuQgIA3Vf2lpyCApnwrckBALqp5QkxBQVT3jtrdQCA7rhikpSCQnqt1u4AAF33SqOOgsKaudDyAABd5bNUKLyJB2wPANAlZZslFBRBptL8AABd0LJaQEFxbKqzQABAZ91+SD1BsSzebYMAgM4512epUEQzLrdCAEBnjDhbOUExVf1phwCAM6ss101QXOXV/sUEAJxByU2iCYrvg+HWCAA4ndp3FBOE4J677BEAcGpPnqeXIAyz5lokAOBUXp+tliAUTUttEgDQsf2XaSUIR+YPqwQAdGTrQKUEQRlUapgAgJM0VMgkCMzBUaYJADhRyWaNBOHZ96x1AgCON+CgQoIQtbfZJwDgP7Uv6SMIU9PHFgoA+EfLEnUEoar6zkYBAEeNnqONIFzlT1kpAOCIue3KCILmLCQA8LeLW2URBG5NjakCgNTbcJ0oguCtrjdWAJBy5/tdKiTBnEvNFQCk2g8ZQQSJMG2+wQKAFHumQg5BQkxZb7IAIK2y1VoIkmPk71YLAFLa7XcqIUiSzAi7BQBpVPqiDoJkKd9puQAgfUp+VEGQOL1tFwCkrtvXSCBIoM1Z8wUAqdL/oACCRGouM2AAkCIDNsofSKiNA0wYAKTGqB3iBxLr7aFGDABSona19IEE+2S6GQOAVBj6qfCBRFu8ypABQApMXiJ7IOEmLTJlABC9IbtEDyRe+8PGDAAiN3am5IEI3DbenAFA1CZ/KHggCq3XGzQAiNh078lALJrWmTQAiFb9e2IHotF4uVEDgEjVPid1IKZyf9WsAUCURrnfDnEZt9+wAUCE6t6WORCZwQ+aNgCIzoDPRA7EV+5LjRsARKb/VIkDERp5wLwBQFzd/qjAgTjL/VwDBwARqdkobyBSVb+bOACIRtnL4gaiNWy7kQOASGTflTYQsbP2mjkAiMOvwgbifs/dVUgAiEK1rIHIDX7c0gFA8n0jaiB649bZOgBIuq8rNA3Er/F+awcAyfZRRtFAGrS22TsASLKlw/QMpMPVcy0eACTXvRPUDKTFfQttHgAk1fiJWgbSo/0qqwcAybSoXclAmiy4xu4BQBKtmqRjIF0mzbN8AJA802eqGEibfZNtHwAkTf8LNQykz5Ja6wcAyZJtVjCQRlNr7B8AJMqv+gXSaVOpAQSABPlNvUBafWUBASA5PuolXiC1nreBAJAUHw+TLpBiDVYQAJKhrUm4QJpVfGcHASAJRs/WLZBuZ++1hAAQvvp9qgXSbuR6WwgAoavZoVmAxkesIQCELbtFsQCHD89YYQ8BIGjf6xXgiAfGGkQACNgbagU4atsokwgAwbqkSqwAxzxaYhQBIFALW6UK8K87rSIAhKn+RqECHGeZXQSAEJU5BAmcoGKrZQSAAL2lUoATDfMjJgAIzzKNAvzfxPnGEQACsz0jUYCTTJtnHgEgKG3jBArQgQ9rDSQABGTsLHkCdOgd59wBIBzD3xcn/MXevT9ZWddxAG93WQ/Lsiuwi+uycllXrsaKN1wwQRQQ8YaAEogokhqDiqmZk5fQ1EYMujiN09hMojI5ZN5ApmIss9LxVkkXL110CE1Tm0mtn2ysxikV2eVcnuecZz+8Xv/B857v9817l+echW48oCMBICtyL5gmQLdu1JIAkBH9DROge3V/VZMAkAlt1YYJ0IMxCxQlAGTA8llmCdCjY3wpJABU3tDjjBJgFz7TpCwBoMJyd5gkwC4dqi0BoMJWGSRAHq5QlwBQUet8MBXIR90pChMAKuiE0eYIkJe9rlSZAFAxQy83RoA8TZ2uNAGgQnI/MkWAvD06Sm0CQGWsMUSAAjTm9CYAVMLjdXYIUIg/K04AqIAVB1ghQEHqHledAFB2w5cYIUCBDpmtPAGg3DaaIEDBuqZoTwAor3cMEKAI1/mAKgCU1adH2h9AMbYqUAAoo6E3Wx9AUeo2q1AAKJ/LjA+gSONX6lAAKJenTQ+gaDOatSgAlMfFDZYHULwL1SgAlMU+R9gdQCl+qUgBoAxyG6wOoCTV61QpAKTvCqMDKNHERboUANL2ZJXNAZTq0eHaFADStc9ZFgdQugfUKQCk6zp7A0jC3/QpAKTpVWsDSMSY9RoVANJz0F7WBpCM00bpVABIy/AZtgaQlI1KFQDScr6lASTnTq0KAOl4u6+hASSndbZeBYA0TJ9oZwBJ6hqrWQEgebX3WBlAsi5UrQCQvG/YGEDSbtOtAJC0Y/c2MYCkDfuydgWAZE05wsIAkjd/hH4FgEQ9ZF8AaXhBvwJAkl62LoB0rNWwAJCc6ZONCyAdrXN0LAAkJXeRbQGkpX2glgWAhLxqWQDp2aZlASAZJ7SG3Arju9rbOzs3NF53afv8s8fYTmRew4Hz22+49sL6jY3f7uxs7wp0L+vO0bMAkIQ+W4LNn0Gbzuh4fcXgDz/lgEVf3PeZb3bOrDMPyZqqy69veWzI7fN2vJpjr3lzzYapIR7xksM0LQAkYGukCVS9Zc3ipp6etvn2ftt/M9pWJBuWdt5157IeT+zHTl97VYAPjz+vaQGgdNcMirSDvp/fQy9/7b4zq61GKvp79k0/+MO4/M7rsQEe9y1dCwClapoRagx9Kf8nH7vuL5e2mo9UQutXfnFOcwHXdEKAR56jbQGgRDWh9tD+ucKefo8ja9r7mpGU95S2tDUVeE2fDfDYS3wnJACU5guxXhhZVUQE89Y+NMuYpDwmPrR2XhGHdHVVgGd/RN8CQCma54daRXWnFxdD7cF7dtmUpO3E+v0GFHlT741wPds0LgCU4IxYw+iJEqI4qP9RliVpviBzZK7443lLhAjmnqRyAaBobcHe736ttDhW/Phn9iVpmLBqTmlnc2CI17l8JyQAFG3UzFjraPTgkiNZv+cnrUySNa3lyNIv630honhZ6wJAkVqCDaS7kwglt3j70bYmSRn/68/XJnEul8VIY7raBYCiLK4LtpGeSiiYAW8/P8jipHTVz93SlNR1nRAikYtyihcAitA0IdhKOivBTbBPv4VmJ6U5sWZ5gvf1mRih9NO8AFCEbdF20hvJ5nNw/SG2J8VqaGxL9pfLK2Pk0rpC9QJAwZZVRZtKy5KOqPm2dgOUYtz800mJ39glMaL5Xa3yBYAC7RFuk3alEdPB9SOtUApTd3hbGm9yPxskng7tCwAFWhVuLq1JJ6hJHfubouRvbs2D6ZzE04P81YVhs9UvABTk+GHhBtPxaWVVu/mivvYoeTnqzQGpXdoof9r3U30UMAAUskX/FG4xnZlmXitaWm1Sdv2OzOI0T+HTUXLaqoEBoABfjTearkg3sfO2TjNM6cn4mq+lewZXVwdJquFhFQwAeTt5TLzZNCft0AYM2WKc0p2ZHc2p39sw/0+2cKASBoB8fS/ebrq5HLk9+ZyX3dnpa9unlONLDh8Lk9dLShgA8vRKwOX0q/JE9/Che1up7OCo/cpz+laGSaxqmRoGgLyMmBpwO11crvRO9jlVPqju8CvLdnVPC5PaJt8sAwB5OT/gepqWK19+562ZaK7ynr2+vryMV/c7cYJ7TBEDQB6urA64n7aXNcKhHWebrLz77qD66WU9eBfHiW7kSlUMALvUZ0nEBfX7MqfYbLrTUD+uzMcud2Kc9G7IKWMA2JVzI06oA8r/9XLNHQearmZ7mW0PFOBaZQwAuzD91Igj6qpKRNl841LzdXc18h8nVeLMvR4owsmr1TEA9Kwx5Iyq0C/vRnVMNWF3y9neMq8yJ274yEApNqpjANhtfmP3vr7jKpVnUz/TfbfTWqnZ/h9PRAryFIUMAD0YPDPkklpYwUhNd7O9jO6PFOWBk1QyAHTvWzG31K2V/Wno3KPN2d3FsLsuqOhhWx8qzQdUMgB06+qGmGvq5xXOtbn/ASbt7qCucVGl7/Axod5x+61SBoDu3BP05YWmiid7Xs0wsza8zgWVv8P1oRKdP1grA8DOvRJ0T12bhXAXXVZn2YZ201NZOGd/jBXqNrUMADs1dFrQRfVqNvJdcK9xG9eMzdk4ZVOqQsU66HjFDAA780bUTTU7Kwl/9+8Gbkxn9euTlUP2w2D/j5HTzADwUZ+I+hb20gz909+20MiNZ1b/4dk5YrcGC/cd1QwAH3V91Fl1R5ZSrh2yv6EbS2vNiCydsM3B4p3ry9wB4CPWhR1WL2Yr6KYbRxu7cVTdfUG2zteIqmAJtyhnANjBHqeFnVazs5b1YTWDDN4gsvANkDvYFCzi6mXqGQA+7P6w02ppBj/dNqfR5I2ga0gGr/K/oqW8qVY/A8AHfTbu6xt3ZDLwthlmb283uf/ALB6tt8MF/ZaCBoAP+mfcefViNhOv3Xeu6dub7V3/8WyerCnV4X5CukBDA8D7Phf4r3ouyGroUx5pMH97rQ0nZPY2nxku7I0qGgD+L3dT3IF1SJ/s5v7goX0t4F5pwk8yfJ3PDxd338VKGgD+55XAE+ueTCd/+xYjuPeZ1dEny4fqzniJHzdASwPAe5ovCTyytmU7+9rblhrCvezl9kfGZvtMzQkY+rlqGgDe81LkmfV41tOfdF+VMdyLdK7P+onKTY6X+qmr9TQA/Ne41sg769/s3X1UlvUdx3FQniEQgZCbWxTBB0RJxFATFcjHTAMdyybDdCds1kxKA53bzIeOs3kEPG4+ZWGW1dE1jU1Ks4NO53zYqdww55Zb81hZ2zrTmjsnd207ZzunrWU+APL7ft6vP/3v+n2+38uPt9d93Xe0/QBu30YddkVBNwc2+kGDB9/AjRoAgH9Za7loZToRQfp0KrETT8kkdnZhnFYYPPrwh7hTAwAQEPC06Sc1TrkRQo8YXg3JUzLNpc7i4e8K5V4NAEDACdNda4crMRQddulYexX0q89aEn2stv3CxyLO+A4lJ4/NWZSXt9zv9w/+3ytL+Ocf+vPyns7JmZ/8gc8XsS/qta2Ry/ZkvXV3Zl+Xfj9g1AVXZslv8i2j67hXAwCw3/aHpOXuJFEytA2fY9L0ssdn18ZUP1tSXpk3sPnehphR07+0cd3ON7buXlIxaEwbLpzdV3dxZ5TWWFzl6QncrQEA6oJTTff2ML9DWSTEpLSpwwvM/umJ3W+nrSu/c0QrldbQPkWlhyKOn95YOKp72xqkja+4tNXPm1zm49yuAQDq3jXd273RbqUxPqsNnNmYu4ZM/cWzdXvvuL4PFcePz/fN+Nu3C6d3agNjlO7WHK0wucxJNdyvAQDauqyxXdyfdy2QT+65Xkd1w6CVUxf8afH4NvdESPCksSXVB/b8LPd6nUyni/GOTdFZm9u8jBs2AEDbY8bfA7LCuUQG/7CVv7AZmPnCi6vf/U7vtv/Sjoy9h9K+v/SuAa08QxV3OjdExUYffDvKHRsAoMx/i/HifsjBUL72TCsdTnZWZJQvx72v/PlzfFE3p365dQ6pZ1qwgzNkdK/LgrlnAwCEfWS8t3vFLqYSlNbCHyrn/jJyx/miWMeHd/mRTU8umdyuZY+qaq6TZ/Ndo/vcjXs2AEDXV6z/6s9NjgYzYk8LHcicbYk7F8+yNMNxi95/J3pcx5Y5rnm/cvRUXjK60MM7c9cGAMiabf0D95edjeb8hGY+iluatp8b29XqJIeMXx/zxORm/nZAx3fiXD2PnVY3egt3bQCAqm+FWS/uu90NJ+N0c9XQTiOXvfrcCIWBjh97bntTsz3evau/uydxxOpGpxRz3wYAiDpsvbd7r7ocT/7vr/n6kypqDy7qIDbWNekrHi245qMbsM/lL0LOMrvSVdy3AQCa8s33di/d6YA6RF3Do9u9ChO75cTKDvfg/LSb+13D/yideMXt68+1utLhldy5AQCSVtkv7uMdj2hR6lU9m/3y9jNFvDgvIGBg3eoh067mBCeuc/3S3zK704eZawCAog/s9/aOIa6HFJKWdGWXnD0kKj+B4f6U3ukxWd2v7BCj+zh/1R/b3epkZhoAoCe03n5xn2Igp/uaLvup7G0xjfcz2P9Ph5zfVa253HMcXWfginfY3erUUAYaACCnxH5v9zaa+BdWxE1ffKUFm6srgxjqS+r9l8SywC88ybBvZFi42AuG13omswwAUBM8TqC4b7WR1Yill/y23pSpZ77OQF+ezskxWb0udZqZ5TYu9DbDa50Z9cZYeAAAIABJREFUyyADAMTMFOjt3ntW0kr/vNcbZkb6+jDMVyYoJy265+d83B5p5Zc5Eyz/RkM1QwwA0BIyT6G4N5rJa2DVZ0vmuO0fUtqvdv6PLjj82U/eJ+fbucJsw3t9a1cmGAAgZZNCb/eKDCVW8l/vNRxUu57Sfq3lvfSNh1M+/S+h0/GGrq7C8mJvYXoBAEpihyr09vA4S5n5//Ohe250BM+0N5OE5Pap/36oJPu8qStbZnmzb6xhdAEAQl6X+MB9grHUfGO8wNT2ySHMb7Oa64uc4HnRfltXtcH0akcytgAAHT2yJYr7Kmu5TWqMZ3hbxN7F1q7ooOnVDrydmQUAyHhTord7p0gaqk7yEw0AAJgQP02juF8kaqi6zfhyP0XEAAARP9fo7d4MooaqwcaXeyURAwA0dBkuUtx9ZA1ZSca3+wgRAwAkvC7S271SsoasLxnf7heIGACgoMNoleLO286hq8n6es8nYwCAgHMqvT0sjrAh65T1/S4kYwCAfSGjVIp7X8KGro/ML/hJQgYAmNdNpbd78wgbuv5gfsHrQ0kZAGBc8Ddlivsu0oauCPsb/hNSBgAY975Mb/eWkDZ0fWh/w8v4yB0AYFvoSJ3i3kDc0LVYYMXPEjMAwLQSnd7uHSBu6OovsOJTgskZAGBZvVBxX0Dc0LVcYcf5cWQAgGWNQr3diyBv6IpV2PF+fOQOADCsUKm4f0LeEJbCkgMA4LJ8pd7uXSBwCBujsOQ/4CN3AIBZj0oV9/kEDmFDJba8hKABAEYVhUsV9xwShzCNN7/yLncAgFUfS/V27xEShzCRL7ScJGkAgElzU7SK+yQih7CVGmveRNIAAJM2aPV2bxiRQ1i0yJ6XEjUAwKAeuWLFPY7MIaxKZM9/RNQAAIOqxXq7x4vioGytyqJXkjUAwJygUWK9vROZQ9lUlU3fTNYAAHPWqX3gnkTmUJaosunhRYQNALDmGbXi3pfMoeyAzKo3EDYAwJj9ar3du4fQoew1nafiikkbAGDLCbniPofQoSxGZ9drSRsAYMq9YRR3gOJuUgo/tgYAMKVBrrd7BaQOiruGPxI3AMCQWSkUd4DiblTPzuQNALBjoUdxByjuVlWTNwDAjJA5FHeA4m7WmiACBwBY8RvB3u4NJ3dQ3FWsJ3AAgBWrFIv7NHKHsg1S676LwAEARnxPsbd7PQkeyg5o7ftREgcA2LBWsrjfSPBQlqi173tIHABggr+7ZHEPJ3ko+7HWvrd7gMgBABZEeZpCiB7CdovteyKRAwAMCBoqWtx7kD2EnRLb96T7yRwA4L7fivZ2j7/HoewJtYWPInMAgPuaVIt7MdlD2ONqC18QS+gAANf1D1Mt7vcSPoRVyG38GUIHALguUrW382JnSBsnt/EjQ0kdAOC2wUmyxb2O9CFM8Evp5aQOAHDbPtne7q0nfQgbo7fyvyZ1AIDbRuoW94OkD2E36K18YA2xAwBcdlS3t3tvEj90ZSju/AZyBwC4rEG4uF8kfuh6QHHnb40jeACAu4YlCRf3P5M/dGn+Z9tMggcAuOs94d7uPUj+0HVWcukLCR4A4K67lYt7KvlD1znNra8keQCAq55S7u3eBAYAuhZqbv0xkgcAuOpF6eKewgBA10uaW999INEDANyUMUC6uHtdGQHImi269TOIHgDgpr9q93bvPkYAsh4W3frJwWQPAHBSmXhxL2UEIGuc6trXkT0AwEUPifd2r4QZgKyJqmu/lOwBAC46pl7cdzIDUBUUqLr27YpJHwDgnoxe6sW9PUMAVcW6e/826QMA3LNJvbd7mxkCqNqvu/cTOxA/AMA5q+SLez1DAFV/58stAAC4ozhMvrjnMgVQtUV48YcQPwDANcc9DGMMIGq28N63+yr5AwAcM+8f7N3/r9V1HcBxYBfuvYSKV2BAXpCmQCZfTFQs5MsmNBuE4EbQZAlr1fILAxzhwlXmFygQ18JK0QEiMTGKSDPLShwFWxu1Yqso50JD4weVrTXH1unee7iXc+75nAuXH+7nfXg9Hv/Ceb7erzfnfvgc9/bCehkQ1EuRB/+ozx+A2jLdtb1QeFcHBLUk8uDfWC8AAGrKn1zbC4WDOiCm5tiT/3kFAFBLRo5xbS8U3hACMe2LPflrFQBALTnu1t5ihRCI6d+xJ3/EpRIAoIb81a29xUIhENPB4KP/tgQAqB1ze7u1t2gcJAVC+k7w0Z8pAQBqx0GX9jYrpUBIt0cf/S9rAICaMdOdvc02KRBR3ZDoo79bBADUivWu7EXva4GIZocf/QmjVQBAjXjMlb1ovBaIaLjZ/5cKAKgNdfOt7aL5YiCii8z+OhUAUBuO2Nrt7lYDAT1r9BsXywCAmrDX1m7np8+JaJbRLwyQAQC1YOB1lna7R+VAPIMajX5hog4AqAUv2Nkd3pED8dxm8lvcLwQAasC1VnaHyXIgHj/A1mqLEABI38gJVnaHhjsFQTgXmvwW0+qUAEDy3rWxS7wiCMJZavBb7VcCAMnbbmGXuEgQRHOruW/zfSkAkLrRwyzsEhsVQTT+6Fa0YLAWAEjcl+zrUmP6SoJgtpj7ohNaACBxD1rXZWZLgmDeM/ZFD2kBgLRNHWFdl3lEE8TSb6yxLxp6lRoASNpO27rci5oglqdNfbvX1QBA0lZY1uWWaoJYjpr6dsvVAEDKLm2yrDtZpgpCWWXoO8yRAwAJO2BVd9ZfFUQycoih7/A1PQCQsAes6s5+owoi2W/mT1ukBwDS1ezLtgpL6nVBID8w814HC0BN+LtFXemLuiCQzxn5EkcFAUCyVlvUlX6iC+KY2tvIl7hdEQCkauA4i7rSKmEQx+MmvswdkgAgUUes6QxDb1AGYaw18WXWSAKARO22prOcUAZR1F1n4MuM0gQAaaq/x5rOcq00iOJh896JX2ADIE03W9KZPtZPGwSxxbx38mtRAJCkP1jS2aZrgyAmGvdOfioKAJL0XUs62/vaIIZbTHuFKbIAIEFzrOgqpvVVByFsMO0VviULABK0xor2rAyxeVKm0g5ZAJAgP3Ve1R51EME+s16pYZ4wAEjOrY1WdDVXe1aGCN406xkOCQOA5Jy0oKs7rA/Of/ULjXqG15QBQHKesqCrW6sPzn+/N+lZ+lwlDQASM3CCBV3dkBsUwnnvRZOe6UPSACAx+63nrvRXCOe7QZMMeqZfaQOAxPzWeu7qxRKPK4Tz3fWzTHqmSZeIA4C0eIFzVwYIhPPflPlGPdNWbQCQlMWWcxc+KxAiuG+sYc/ybWkAkJT/Ws7VPVQnEEJ4pbdxz7C0XhoApOQBy7mql0brgyDeajDwGe5XBgAJucSfyKuaeL0+CGOTic+wSRgAJGSr1VzNtHnyIJA9Zr7SDl0AkJDHrOYqFqxXB5HU/c3UV2i4SRgApGOy1Zyt6Yg4iGXwa+a+wkldAJCMKRZzlS/a3hIH0dx5r8mveLOULABIxqsWc7Zj2iCezywx+p0M8WopAJKxwmLOdKHXNxPRyisMfyeXqwKARFw8zF7O8jvfshHT8EbjX+4uUQCQiG9Yy1k+MVcaBLXG/Je7URMAJOJNaznDpE8rg7B2OwHKLdMEAGlYbitX6uOhVgKr+7gzoMzrmgAgCc1DbeVKrwqDyD68yCFQ6llJAJCEFyzlSm/ogtgWT3MMlFgwUBIApOA5S7nCun66ILhrvBSy1MOKACAF/iReYendsiC8JxocBadtFgQACbjTK5s7G7FSFtBrs7PgtB16ACABw63kzrapAnr1qt/uMOjQeJUgAMjf81ZyJ3tEAa0Gj3IcdDihBwDyt9BGLrf8YlFAm3nzHQjt9soBgNy9bCGXu/pKUcApt13gSDjlHjUAkLsDFnKZodM1AR12OhPafVINAORttX1cpr8koMR/HAqnfEEMAORthn1carsioFTdDx0LRSvEAEDObrGOSy28TBJQZq5/3Bdd4b+tA5Czk9Zx6QPuTysCOtnV5Gho81UtAJCvX9rGHmKFLv3R0dDmqBQAyNcs27jkGdZ6QUCldxwOrZ5UAgC5+qZlfNoMv2kOWQbf7nhoMXagFADI03DLuEPjfj1ApjsmOCBa7FICAHn6uV3cYYMcoIrLG5wQhcIAIQCQp1F2cbvX6uQA1WxxRBQKG3UAQI6ae9vF7e9oniMHqKrfLxwShbH9hABAfo5Yxe3eVgN0YcoCp0RhpQ4AyM8xm/iUdd4ECV064Zgo/EUGAOTnRzZx0bBlYoCurXZQ/FgFAOSm31ibuKi/GOAMmu8Nf1BM8F/YAcjNzW7sReM9KANndF9T+KPiGhUAkJdDruzFr9Fe1gKc2YDwZ8UhEQCQl6fc2ds8IgU4C33HRz8rHhIBAHmZ787eapUS4KxcOS74YTGurwgAyMcUd/ZWTc9IAc7OzujHxUc1AEA+jru0t/qnEuBsPRj8uDgpAQDy8ZxLe4tPNSsBzlb0h2X2SgCAfPzZrb3FP4QAZ+9/sc+LrygAgFzU+fmlFk8KAbpjY+gDo+FSBQCQh31u7YXCBV8XAnTHTWNCHxlbFQBAHra5thcKx3QA3fOz0EfGBgEAkIe7XNsLHxmsA+ie+lWRz4yNAgAgD6Pc2wvHZQDdtWxE4DNjXL0AAOh5I5vc2xf5GUTovs2RT43ZPn8Aet4u9/bCB2UA3Tf4e4FPjQM+fwB63qPu7e+pAM7FE4GPjQ/4+AHoeavD39sbdqkAzkngl7nP9OkD0PMmh7+4XygCODdzLgh7bjRe5uMHoKdNbYx+b+/zjArgHG2Je3Ic9ukD0NMOh//C/XkRwLlqnhH25Njk0wfg/+zd+8/WdR3H8UHIDRksW1IsQGmkNxoYNAObmc5iU8BwFgoROGAKmoLhGkNAOYSQDGZhaGpW6yAeWpoOpUiqlcaM5okOqByMjJzkqGBjrfofvK/355fX4/EvPL977b37/l7X1dpT6Xf7oDM8BPC2XRM7HavFB6C1vemH+9c8A/D2dc1NnY4LxAegtc3pb7gv8AxADzwbOx6fER+Atk7uFX64r/UMQI+MTh2PLdoD0Nay9Ddl5ngGoGcj0i90PJ7XHoC2/ht+t2/0CEAPfSt0PfwCBACNPRJ+uF/lEYAemhL6wt0E6QFo6+vZd/tjngDosU2Z89FviPQAtNR1evbhfrdHAHrs0gGZ+7FEegBamp99t5/ZxyMAPfeXzAF5VHkAWtqZfbg/5wmADrhsWOSAnK08AC39Ifpu7z7PEwCdMCtyQW4SHoCW/hx9uM/yAEBHTI/8YpnepykPQEMTog93P74EHbI3ckIeFB6Adkb2T77bb/AAQIdcHvnzqceEB6CdGdF/cP+uBwA6ZWPihrygOwDt7Eu+2weP9ABAp2xJHJHhugPQzo+SD/d/6A8d07U/cESG+SUIANpZl3y4r9IfOudY4oqs0B2AZsYE3+1ndukPnfPeUYEz8oruALRyTvIf3O/RHzrpG4EzcovsALTyYPLhPk9/6KRJgd8IuVB2AFp5Jvhu3yw/dNaLeTvyadUBaOXbwYf7HfJDZx3O25EBfWUHoJE1wYf7ZPmhs075eN6QTJEdgEY+m3u3f1596LTAH4bwtTIANHJSL98pA3RM4MfdvXMHQCNjg9+UWSY/dNz4uCXZIToAbbyce7df4NeXoPN2xU3JRNEBaOOO3MP9OvWh8+bHfZW7r5UBoJG1uYf7CPWhwE/jtmSS6AA0MTP2bn/PUPWhwO/jxuQt0QFooas79nD/svpQ4Qtx78rsEh2AFrbnvinzR/WhxLa0MVmuOQAtfCD3cL9cfShxW9qYTNMcgBa2xt7tF/oySKhxbtqadFsTAFp4R+zh/nPxocj+tDm5THMAGhgYe7g/Jz4U+U3anNyqOQANDI893H8pPhRZkjYnz2gOQAOjUu/2j50gPhTpmzYsP9QcgHpDYv/gvkZ8KJP2Dt73JAeg3rLYw32p+FDmeNieDJccgHpHYg/3JeJDmWvD9mSq5ADUW5p6t/ceKj7UuTNsUa6XHIByL6Qe7ldqD4XuCluUGZIDUG506uF+ovZQ6D9hi/JByQEo94nUw32r9lDoU2GL8rrkAFTr2yv1cL9IfKg0O2tR9ioOQLUFsZ9NPU18qLQwa1J+oDgA1fakHu4f0R5KHcqalFGKA1DteOrhvlZ7KLUybFPGSQ5AsTdTD/fXtIdSfbqzNmWR5AAUW5x6uN+tPdR6NWtT3lIcgGK7Uw/3edpDrSezNuVqxQEodkXo3d7/ZO2h1uGsUfm34gAUGxR6uN8pPRQbmzUqAxUHoNYXU9+UuVd7KNZncNSobFMcgForUw/3R7SHao9FjcoYwQGo9a/Uw/2Q9lDtiawPzpykOACltqYe7nu0h2q/zVqV6YoDUOpg6uG+XXuotiVrVVYpDkCpJ0Lv9kEnaA/Vbs+alb8qDkCpe0MP94nSQ73To2blNcEBKLU59HD/k/RQ7+moWZklOAClpoYe7kelh3o7/D0AADplZOpnU1/XHurd4w08AOiUi1MP9+PaQ70NUbNyluAAVPpO6uG+U3uod37WrpyqOACF7k893BdpD/W+mrUrYxUHoNC7Ug/3M7SHel3Donbl14oDUOih0Lu9d1/toYEJUcNyjeAAFDo79HD/pPTQwu6oYblacAAKbQw93IdLDy0sjhqWA4IDUGhm6OG+Wnpo4UDUsNwlOACFZoce7idKDy0cixqWHwsOQKFhoYf7m9JDC69EDcvTggNQ59TUb4Ncqj20cHPUsFwiOAB1rk093PdpDy1MjhqWAV2KA1BmRurh/jftoYXzspblHMUBKPP31MN9hPbQRNbnaFYIDkCZf6Ye7s9qD01cErUstwoOQJnnUw/39dpDE1dGLcvLggNQ5snUw3269tDE7qhlOSQ4AGX2ph7u47SHJr4StSwHBQegzOjUw/3d2kMTm6KW5XHBASgzLfRu/5D00Mb7oqblAcEBKHNj6OE+Rnpo42DUtLwoOABlpoYe7uOlhzZui5qWiYIDUKVPv9DDfZr20MaxqGm5UXAAqgxJ/WzqcO2hjQ1R09ItOABV5qce7nO1hzbe8IVVANAJ61MP91e1hzZ2Zm3LhxUHoMiq1MN9nfbQxp6sbZmsOABFdqYe7g9rD22cn7UtixQHoMjh1MP9S9pDGx/N2pY9igNQ5Feph/sa7aGNlVnbckRxAIrsSj3c79Me2piXtS3vVByAIg+lHu7LtYc2vp+1LU8pDkCRo6mH+2LtoY0VWdtyQHEAigxMPdx/pj20sSBrW65THIAiD6ce7ke1hzbCfp95h+IAFNmWerjP0h7a2J61LRsVB6DI+NTD/XHtoY2wv7jPVRyAImO8KgOUOjdrW/YrDkCRs1IP959oD21MztqW2YoDUOT9vlUGKDUla1suVByAGn1S7/b/bRIf2rg4a1sGKw5AjaGxh7sfYIJG5mVtS/8uyQEocX3s4b5QfGhjZdi4nCI5ACUujT3cl4sPbcwJG5dxkgNQYlLs4T5QfGhjWdi43C45ACXmxB7u94kPbVwUNi4rJAegxIzYw/0B8aGN34WNy3rJASjxUuzhvlp8aOPmsHGZITkAJUbEHu4bxYc2rgobl5ckB6DEkdjDfZ340MYvwsZlhOQAlLg/9nC/QXxo43Nh4/KG5ACUOB57uM8UH9r4Zti4bJAcgBKPxh7uN4kPbaT9Y2+f5ACUuCX2cL9CfGhja9i4/J+9u//VsqDDAD4QDgccFR7FkOrk1NDGmAPNUZEWq0iNfkh6AWswg5BGIcuXCghJU0wShdG08NRigyECxcSsU6ZOptkSwwIsa3OW0zLXC1qWuzv/w7m/9y/X5/MvXN9d59p5nue+vyFyAEpsjx3uc4UP3dgYVi6HRQ5Aiddih/ts4UM3joSVy0GRA1DiP7HD/WPCh24cDiuX40QOQImTY4f7eOFDNw6GlcsBkQNQ4tnY4d47RvrQiV1h5bJF5ACUWB473Jt+6UMnbgvrlttEDkCJQ7nD/TzpQycGw7plt8gBKHF77nD/qfShEwNh3XK8yAEo8VLucJ8ufejE1rBu2SdyAEpckzvcvy996MRPwrplUOQAlFiRO9wnSx86sSCsW64ROQAltuUO93nSh058MKxbVogcgBIDucP9z9KHTrwzrFu2iRyAEjtzh/sr0odOnBDWLU+JHIAS1+UO9yPShy70pXXL9TIHoMTR3OH+nPShC1PTuuVdMgegxGO5w/2Y9KEL89O6ZaXMASgxLXe4e0kKdOLjad1yt8wBKLE+d7j7ARl0Yklat+yROQCGe7t+K33owrfTumW9zAEocVXucP+k9KEL49K6ZZrMAShxd+5wnyt96MKqtG7ZKnMAStySO9wnSR+68JqnygBAG4Kf4970iR86sC+tWvbKHIASwW9ObW4SP3RgZ1q1fF3mAJS4Pni4Xyh+6MCmtGrZKXMASjwVPNwvED90YEFatQzIHIASPwse7qeLHzpwflq1bJM5ACXWBA/3HeKHDrwlrVrWyByAEiuCh/v94od6M+Oq5UahA1DixuDhfkz8UO/iuGo5V+gAlNgcPNz9Www6sCSuWgaFDkCJweDhPk38UG9ZXLXcLnQASrwcPNwvEj/U+2xctRwSOgAlng0e7rPFD/W+G1ctPxA6ACV2BQ/3sT3yh3J5P6Q5IHQAShwMHu7NTfKHclvjmmW70AEocTh5uK+TP5S7KK5ZfiV0AErcnzzcvyd/KDc7rlm82w2AGhuTh/sO+UO1N4yNa5bTpA5AiXuTh/ta+UO1y/Oa5V6pA1BiR/Jwv0f+UO1rec3yTakDUOKO5OF+VP5Q7W95zXKH1AEoMS95uHt1KpRbm9csT0sdgBIPJA/3KfKHavfkNct+qQNQYknycG/e6gCg2Mq8YnlY6gCUuDR6uF/oAKDYV/KK5atSB6DEZdHD/a8OAIqdk1csq6UOQIlro4f7fx0A1DovsFguFjsAJT4aPdyfcwBQa11gsdwqdgBKnBU93Dc7AKiV+MTZmWIHoMToscnD/X0OAGodCSyWHrEDUOPM5OG+WP5Q6/i8XpkodQCKLI7+rsybHQCU2pNXK7OlDkCRS6KH+4MOAErNzauVWVIHoMjC6OE+zwFApf7AX9G8X+wAFNkUPdwfdQBQaXpgrVwhdgCKHI0e7ssdAFRKfBrkVrEDUGRN9HD3FxZKJT4NckDsABTZFz3cP+AAoFLg0yCbl8QOQJEt0cN9RJ8LgELrA2tlt9gBKPKn6OHeLHUBUGhRYKscJ3YAijyePdxPcQFQZ2piq6ySOwBFHske7htcANT5cmKrjJM7AEVeyB7ua1wA1Hne53gA0J4bsoe7dxxCoeWJrTJZ7gAUWZo93Mf3OAEoE/lm5hlyB6DI27OHe/NhJwBl5iSWyrvlDkCR/vDh/oITgCofiSyVNwkegCoTs4f7r10AVHk4sVPGjhI8AFXemz3c/+gCoMrGxE6ZIncAyizIHu5nuwCosjmxU2bJHYAym7KH+8i3OQHwb4H2nCp3AMrsDP916oecANQ4aURipUwTPABlfhQ+3L2eHIrcFVkprxM8AGV2hQ/33U4AarwSWSmHBA9AmVXhw/0KJwA19kVWynbBA1DmkfDhPmm0G4ASCyMr5TTBA1Bmf/hwb651A1BhwgmRjbJM8gCUWZ0+3P/hBqDC1ZmN8hvJA1DmU+nD/YAbgAqZv01tlkoegDJ9veHD/Uk3ABXOzWyUKyUPQJ0p4cP9jB43AAU+EVkoI0dJHoA6X0r/rsxlbgDaNzXzw7xFkgeg0JPpw/1VNwDt+0VmnyyQPACFBtKH+6AbgPa9mNknV0kegEK704f7t9wAtO/vmX2yQvIAFNqQPtx7ZzoCaFvPmZl9cp/oASj0avpwbyY7AmjbjNA6WSt6AAo9HT/cNzgCaNtDoXXyT9EDUOiu+OG+xxFA2+4MrZN/iR6AQrfGD/eJE1wBtGv0nNA6uVn2ABQaNSJ+uV/qCqBdN6e2yedlD0ClL8YP91WOANr1w9AyGT9G9gBU+kz8cF/pCKBd14WWySzRA1BqIH64n9PjCqBNo6aElskfZA9Aqfvih3uz2hVAm1andska2QNQ6ojh/rgrAK3SgmOyB6DUMsN9ryuANt2S2iWPyh6AUjcY7pP6nAG056QzUrvkL8IHoNR8w71Z4gygPQ/EVskFwgeg1IRew/0ZZwDtOTm2SuYLH4Baiwz3U10BtOeS1Cbp7Rc+ALU+bbiPvdIZQFu+ENskc4QPQLE7Dffmf84A2vKEz+4AoMgxu70ZdAbQlr2xRTIgfACKPWG3N+ePcQfQjv5JsUXi/UsAVPu33d40M9wBtGN/bo88JH0Aik0325vm9e4A2vFybo+cLn0Aip3oQe5Ns9AdQCtGL87tkQfFD0A1D3Ifcrk7gDb8MrhGzhI/ANV+bLY3zfPuANqwJbdF3iF9AMr93GxvmsfcAbRhVm6LeIw7APWeMdub5o3vcQgwfFcHt4jHuANQb5zZPuQUhwDD953gEtklfgDK/c5qH7LCIcDwnR1cIh7jDkC9z1ntQyad6BJguNYll4jHuANQb8JIs33I710CDNeLyR2yVP7wf/bu/9erug7geNC93HsJyMtXQxAMruCgbhAhSiBOCNACRcVARe0u3BBkCYphCcNvUza/lV9i05ZhTpuRrpjSnEzXlGojs6a5THOzX0oaa+Vabbf7hXv5fO7n2zmfO9/n3M95PP6F+3y/Xu977/mcD/DRm+HW3mGEEKCfGh7O8Ahp9F87AAK4x629Q8tEJUD/3JHlEbLVzx+AAMa5tXfaowTon01ZniB3+vkDEMBrLu2dHlUC9MuQq7I8QT4hAAAC+IFLe6eTJ0sB+mN/pifIbgEAEMAFLu1dPi0F6I8bMz1ALhYAAAHUj3Vp73SDFKAfFrZkeoCcqwAAQrjUpb3rbW5rpQDV+zDT86NpjAIACOEtl/YuO6UA1Tsl0+PjawIAIIgP3Nm7XNSgBajWSx61A4CP3mPu7N3mqy7iAAAgAElEQVQu0wJU65lsT48rFABAEItc2b2IGfqneVm2p8dhCQAQxPWu7N1aTxUDVGdPxqfHVAkAEMaZ7uzdjmgBqnNDxofHlyUAQBh/dmXv9g0tQFUeb8z27Bg5RAMAhPFzV/Zj2sQA1diU8dFxqQQACORlN3ZvhoB+OG11xkfHXg0AEMgv3diPmT5ZDRDflKyPjk9qAIBAVrqx9/hQDRBbw7ysT47xIgAglGVu7Md8TgwQ25OZnxyzRQBAKN9xY++xSA0Q10+zPjcGNYsAgFA2ubD3+L4aIKbzm7I+Nx4SAQDBvObC3mPwZjlAPM/5hV8EAASz3oW91zg5QCyLR2Z+bLyvAgCCud59vdenNuoB4viXsbFBBQCEc47N22uYHCCGCXNMjV0yACCcozZvr7O8HwJi2GloDB4jAwDCecbqPe6veoDIxqwyM+bJAICAXrV6jzuvQRAQlXdStbfvlQEAAbVZvTneFgRENGmridH+Ox0AEFCz97nluNKf3CGiKQZGe/t+HQAQ0hq71xqG2CadbV60ty8WAgAh/cPuzXFAEBDJYeOivX2uDgAI6mrLN9dJioAIRnulTId9QgAgqO2Wb66jioAI3jQsOvxHCAAEdUaj7etP7hDPZN+53OluJQAQ1gLbN9crXiwDFb1nVHTapQQAwnrU9s3zJ0lABYtbTIoOJzZLAYCw3rB+83xziCagvO8aFJ2WKAGAwH5l/eb7ryagrF1N5kSnL0gBgMAut37zrZgkCijnaWOiy24pABCa9zH3cUgTUMaThkS39VoAILT59m++aTNFASWdcJMh0aVpshgACM2nU/u6QhRQ0iEjottftABAcP7v3dfgS1QBJaxsNSJ8NhWApJzuu1P7ulMVUMKNBsQxU8QAQHgzbOC+3lYFFLXDL/o9dqgBgPAO2sB9zfBKSCimbo3x0PNI3Wg5ABDeYSu4wE5ZQBH3Gg49zlMDAAm4wwouMHazLqDAC3MMhx7fkwMACTh1kB1c4BFdQIFbjYZe78oBgCQssYMLbdAF9HHEYDhuix4ASMK/7eBCqyYIA/LMPMdg6DVylCAASMJQS7gI358K+W42Fo47RQ8AJGKXJVxEk7c0Q66ppoLf7AFIXH2rLVzEjInSgF4zZxkKOY4oAoBkPGILF/OgMqDXCCMh1zWKACAZb9jCRR+WuUUacMyrJkKuZQ2SACAZf7CGi1pwmjagy9rVBkKu2yUBQEJG+wqm4n6iDehUf9Q4yPMtTQCQlHX2cFGNJ2kDOgwzDfJt1wQASbnfHi5u1UpxwMeWjzQM8gzyzikAErPHIi7hOh9BgwkLjIJ8vn4JgOQstohLuVcdZF3DUwZBH/erAoDkrLCJSxjepg4ybrc50Nf/VAFAcg7axKVc5J2QZNsPPeBeYK0sAEjOyzZxSc/Jgyyb6f9xhZ9alwUACdpmFZf2T32QXUP2GQEFntIFAAmqm2YXl37MfYtAyKxxJkChZ3UBQJJutYtLW3GtQMioI85/EduEAUCSDtnFZeyrUwiZtG2s419otYEAQKI+bxmX84FCyKK7tjr8RfxRGQAkykPuZTXukQjZM+aAs1/MMGkAkCwPuZd18o8lQtbUv+XkF2UaAJAwD7mX9/UXNELGPO/cF9XSrA0AkvVt67i8mxaKhEx51qkv7mltAJAwD7lXcp03SZAlUwc79MU9IA4AkjbfPq7gQZGQHZd5EWQpv1EHAEnbbR9X8qJKyIqXznTgSxg+SR4AJM1D7pVfCvmYTMiGa2Y576UclQcAiatrtZErOXG/TsiC+5Y67SW9rw8AknebjVzR2B06ofbNfMhZL227QABI3rs2cmXLzhUKtW7hOie9tJZRCgEgeV+xkiO46nGlUOP39gPOeRm/VggAabDATo7g7M1Kwb09u96UCABp8LqdHMWKtVKhdp3xI2e8rDaNAJAG4+3kSJZeoBXc2zNqbr1IAEiD033FeTTzFouF2rTR51IrGCESANLhZ7ZyxL+5e86dmnThEqe7gqEqASAdnrCVI5rlrZDUoLVfcrYr+aJMAEiHW2zlqFZdIhdqzeyznOyK/22TCQAp0TzdXo7qM8v1Qm1ZPte5ruh1nQCQFvPt5cha1+uFWjK1xamu7G9CASAtptjL0Y3cIBhqx9BBznRljdcqBYC0ON9ijqHpasVQI+qed6CjWCcVANLjqzZzHON8Fws1YfRtTnMkT2gFgPTwZ7d43hmlGQa+u15xlqNZJBYA0uPvNnM8v1gpGga6tqVOcsSXSQ1RCwDpMcoLIWPauk01DGwbxjrHEe1VCwBpcrvdHNP0i1XDAFb3cYc4srv1AkCaDLWbY79c5kXZMGBt/KwjHFnjhYIBIE3ua7SdYzs4UTgMTFsWOL/RXSkYANJlje0c37zZwmEgGjrc6Y3ht4oBIF3es52rMGe8chhwJt/s6MaySDMApMsO27mqh1/HnaAdBpY237cWzzQvgwQgZerm2s9V+f3l4mEAaZjiMZmYRqgGgLR5x36uTuse8fyfvXuPqqpM4zgel8NNlEuCmKKUoCAEqHgJEEHMW5BXVMQUFRVKzbw1eUFYSpmoeUPUGDWJskyHcRTJnMkmdRqZ0TKbVV7WGnNNNaOlM0ubxmnNJZ0c8qB29tn78Lxnfz//utlrv2v9Xp7HzbvfF8oYVM2UtdV7xAYAIM0m6rNW44KID9Rwmb+s2cx7GbkBAEiTEkiF1mp+PvmBAqI2Mlltt5/gAADkqaNCa9am1EKAIN3kaKaqBudJDgBAnmtUaDvkFZMgiBbWwpt5qgWnNQAABBpEWbdHsC8v3SHYxQlMUk2iyQ4AQKI8arRdYoeQIQjV+hITVKP1pAcAIJEvNdo+Eb7upAgS3Tee6anVPOIDAJAokxptr0MLiRHkzeydTE3NEjk2FQAgUzlV2l4uLULJEUQJ8uOoVDv8hAQBAGT6lCqtw6ds4QQJgmT1ZFLa4wIRAgDINIAqrYe5VUQJQmTMZELaJeQhQgQAkMlzNnVal1rfIoowQYDuLVyYjvb5KSkCAEi1izqtj9kXPEkTGlnA7g5MRXt9QI4AAFK1ok7rJW8RcUJjsnwbzTS0m9djJAkAIJU7uz3rJ+kJAoXG+0/4WKagDt4iSQAAufZSqfUT+OZUEoVGsXAu808XpWQJACDXR1RqPUW6sSUFHC+/mReTTx/JpAkAIBdrZXSW6McGM3Bw297Vm4mnkz3ECQAg2Thqtc4mvXsvsYLDjDzF23b9LCBQAADJDlOrdZfWrj3BgkPsKKFt1xMfmAMARHMfSrHWX38/1rrDeKlJzDVd5ZIpAIBs06jWhqx1X9GabMHQ/3NfyGWe6ayMWAEAZJtMtTZoh5kmxaQLRony6cEc010GwQIAyGbpRLk2iHfS78kXjDDa7UHml/5ySBYAQDrWyhhobZY7CYPOFm9m/0dD+JEtAIB08yRX0g45MwubbC1a5XPdiXEzo1VrWTa8zXGq0FHYn+fTYRskn3gBAKRz7yWyhvYr8csa2MBhRm2Xf/GPtQkqdQPBGyeSMuhjeZNI+mujxJMvAIB8b4groBGvXyu44yNbMlYe6KtQR/DUdnZ2h91Ct71Fd22gY0QMACDfRGHl89yqlB/13B0fnxatTE8Qt2s5SYM9Umt52W4sTl8CAKigXFLxTN9mseHRBx+fG6hKW7DHJ4WsQZs+C56hsTZ6ghIzAIAKigQVz1ibzy0KPbtRla3xgme8xiYzsFnU9lhX+mrD7SZpAAAVjPYSUzubBWgZQMA3S1X5XLXXEXaugC38rxwMpql2AO+OhA0AoITeYpa3a/6GM+jMFlXam+wijlTFj+zaL37Yn5baMZ4nbgAANfxdSu1sZc8oovblqtIjZJ/PJHW4i7bhlzgf1XF8SBwAQA0xITJK5yhPOwcyoDZClTbh0Hn2sMDttT9zMIFm2oECuxM6AIAikmTUzkv2jyTMJ1uZViHebzDRQ0Nde3hXunYHW0LsAACq2CSjdvrpMpjnnvVSplsYW/a0J/FDfb/0SWpKH+1w35I8AIAqgkaIqJ1f6jSc/K4u6jQM6c0eYH933OCR6na/F010I4gIJX0AAGWsE1E81+k2nuRxbVRaXjv3+GAyaHoF157lbNTGcpD8AQDUcVhE8Ryu44jm+HVQqnHo2SS8LTk0re9etdM9N6IaMggAUIdlg4jqmaznmFpXtFSrd2iZdHy5hSyajvus0k9a0jo3qkke5BAAoJDPRZTPCn0HFeOm3Fd+CbG+Xfhc1URNe5d2zdisvfG9QRQBACoZLeKTuElBOg/ryUIFP/UbWriPs1VNwKPy7U/Y9VGGkcQRAKCU50XUz491H1eqmkuH07puG0wonVfQIt8XaNrFyCWRAAC1PCCigCZO131gln8NVbSb6FZdNJlN6pxP5mdr9oTQLEsyhVQCANTSXMb7v6UGDC3s567KdhSu2dO+yiSdziLlpWPV/emTpQmZQzQBAIr5hYwammXE2GblKt1XpC85MZlDmhQX8PS+2nhvmmSJlhBPAIBqUmXU0LgnNI/AcmXNyR7n8macGGO1t5vHcdX32/Ma9bLv6anEVEVRqe/WHmJxjFwvklEAgGo8h8soog+31ziAWfE37zFhk9WWislrnaHD6Le5rGYZWVVHzGnfwmd4zy5b4r0EFQCgnPNCyug6bY9fGVH/JnVWX7ladgc7SZ/RK+lP91VxYIxw/vl/q1jyKF2xAnaRVgCAelZL+YRzt6bHP3lLd5tvdUXGfidqNpoeWup7pYDUCuRefPnYy/NZGqOMSjILAFDQC1KWc2/X8PApt560lD7Q6hqP951t0cKIvA9XHWZLDCksyeELlua2oRVWSjnBBQCo6KyUSuqiYWuZIVZ3iW9gsXyrSc7YeTyYd2DB2aoAEtx4Wlduf3/LI03pghX0W+ILAFCRRycppbTNYdsf3noFe1kDl82pc9r+w2X4kiP/fG46OXYo/+KjH399cjztr7ICmTIAADW9KqaYRs6z+eFPWd0k3dLAZZ5lTr7HR+IrMypWpg4jzQYLyv/L8V11o1jKrrpmZBkAoKYCOT1tcI2tD9/F+tvaqgYvrOlghnak5cObj+xrNdqdVOtt6oDHyw6c7EXH6yReItIAAEXNFPQH7DO2Pryf1T1us1tE5nzzdCUho2K/LvpiUUdPwm2vsJFH260vyY6j1XUqGyxEGwCgqCxBBdXV1r1lLLW33MH7dkcVhW4xXXvStEfd3gWbdrCCxnZRnb/54OqpsYn0uE7pGAkHAKjKQ9ICAK8yWzt3tx9uCbnztld6bjVrm9K07x/WVeyr6RxG2O/Cf0jqZyemJT3Sgd7WmbmuJuoAAGVViCqqtf42Pv47E+r9dJuBd7jSx8XkDUtcTvXeoq8WJ7OJ5C1iJh5ddaTwqTRXmlozqCbxAAB1DZG15Upsio3PH3Qs4fufjXznjldeHEHTcv3vGp1e2bJ+youVw0y+Cr5t8UcrV2zceS6YSJhKFr/0AQAKmymrrJZn2DqAqZ+XX3+hvLHgLheO7ETXUl/g6yZ++b5wNgEwpUn+/M4HACgsS1hhTbhs+xgG7Vj8a4+7X/ZkT/qWen7T3cy5Px1JAszIjV/5AACVeaRJW8rhZthW5H3KaVxu6p1i7uAP6E8GTLhQLJNf+QAApa0QV1znGnYk+fSxtC7/87PmZg9+xgRSYDqx/MIHAKhtWKC46jphllGDTelN73LjfXtzkv/YcHJgNmeJPQBAcTPkldcQP6NONwzbT/PyX9mtyf0996zmoweTedSD1AMAFDdGYoWt62jQaB+6n/bl3+XTif13ktPIgqlwaioAQH0iF35HXB1kzGi7HzJ9+9KvD6G/IWM8zayJhCwj8gAA5b0ns8pGXJ1jyHBjckzevsR1JvPfG5lIO2sehQQeAKC+oG5C62xCqb8dwyoufXNN6bwG9pbs2M/crx1bEfn/GxBBP2savyPvAAAnsFVspT13WuuYppbcuEP/L2Os/q2qm5m7l20Evr4z3jS0JpFD2gEAzqDAVW6x/ZW2pe6jN9y8Q+QUqy1qxgSbt3v5lLz/0Ak6WpP4I2EHADiFEsHVNv2MhgG171v/Fn+1Wiz/H/buPTiq8ozjOAmb7K5TyJWQtCSGOgZSQpEQEkKBFrkIclMMiC1yKWKAaLmWCqhoESlyrSLCMKQgt2KttXYQOjqFDo6lihahQHFgBC+ALR1sZXS0FktbGLPnnMDZ3deZ8zzv9/Onec/OPDu/mefHevbssFRby8u0NOLucJZKa4WKUrIOAFDha4FeuFOq4h6oNvYV+tY5D3xsaXnpXkXanbIeo9Ta4BmiDgDQIfxEoDduz+/EO5Czin3f9eDyZ6zsLnnjCLvbXe1otRaYQNIBAEocD/bKTVkUjm+e9s5XmOl8ukzmIRu7y1Ki7uW+bGqteofIOQBAi9ygP856fnVc83RwvUCt80jZKvu6y2qS7m05vVa9YcQcAKDG20FfuyMGxjOO+0ntbVxfUL21wLbqUlNI0L2F6ym2yrULEXMAgBrfCPzNAu0PxjHOz9zXN3UdOhqxq7rkTyfnjanuTrXVrZaQAwAUWRH83nmV/2necF8+Nst16td2VZf9pLxx/bnNXbXhxWQcAKDIYgHLd53vr6hWefzC0nrXqZxRVn05jye4X85Oyq1mvyXhAABVfiVg+672fZ/qR+6LM9ynBlXY01wKJpLxywltpt3qFZ1MwgEAqpyTsH/fzPE5zS3DXde+5XFsEvf44qLyZvRbteaTbwCALuETEhbwTL8PRql1XVrvdewjW5rLHdwocyWP02/VupN4AwCU2S5iA19f6vPfIc2dV97tdaykxo7ikl1OwK8kvTUFV6kBYeINAFCmRT8RO/jPPj9zL37JceEez2N7o1Y0lyXk+8oW51NxddpDuAEA6rwnYwn/I9dnc/9mzGVjS7yPrbShuNTkEG8f9lFxVRp7NdkGAKjzSJGMNXyohb95MrekfHFRyiuNnCqZZUFzOUe6/cidQcnVKINoAwAU2iZkDz+U7nOg6QsvXTL8WKOHRqaqLy7Pkm1/TlNyFcr7AckGAChUJ6XCdvb9XbORozteOF+xo9tlzjytvbhkDyLb/oSnUnP1uZtgAwBUul/KKl4Zx1CtJvw067IHCgcrLy5NSbZf06P0XG1S+fElAIBOiyNSlvG9Jsdeo/yreaUk27cdFF1tmpNqAIBSr0pZxpHTJsc+orq47CbX/g3pQNNVZgOpBgAoNVvMNi6aa3DsuiLFvWUVj4KMx+s0XV0WkmkAgFpyvpxX+aDBsU8pLi4/J9XxKO5K11VlK5kGAKg1TM5CnlVtbuyr26ntLdeFSHVcHqDratInTKQBAGqFr5OzkpcZrKTD1BaXDwh1fEorabuKnCTRAADFlgrayesMzr1MaW+5jQ8c47WftqvHjEwCDQBQLPMGQVt5j7m5N+XrLC5/I9Lxyh1L31WjljwDAFRbLmgr5y02N/cnKntLDXe4x28nfVeLroXEGQCgWslQQXt5lrnfFuoxXmNxOU+g45fLg2W0yCDNAADlFklazBvNzT1J4x2+WeQ5AU1pvDoUlBFmAID2zxt7SVrNH5obfK2+4nINcU7E7Sl0XhXWkWUAgHr3SlrNReZuc59YoK23VBST5oRspPNqUHQLUQYAqCfrI/cac7e5q/vpnZWEOTEjKb0atCTJAAALvCNqO3eOf8D+q9t9/vngFR+kxf7nrD66ekvkQbKcoM20XvmybyfIAAALFMt6qsaTcY6X/knk4pUn1sT+5Ue67m1eRpQT9Rm1V74D5BgAYIXDovbzteVxDVf4ywbXvhj7nOd9qorLOZKcqMxv03ulS5lMjgEAVqhuI2pDj8mMZ7h3Y65t3arh33LmKCouI9JIcsLeo/hKdw8pBgBY4pSsFX0qjtHKo7HXtq5u+Nf+im6W2UmOE1cXofnKFt1EigEAlhD2kXvKdP+jbXFeXB/z5ww9dwrwLLxkXE/1le13ZBgAYI0tspb0nBzfk011Xby94Z/T79BSXJ4lxcn4F9VXtMg4MgwAsEZVB1lrep3vyVa5ri2IeWpcXVslzeUoKU5GcR7lV7KniDAAwCKvy1rTqSP9Dlbpvrh5zIEPdRSXyhxCnJS3KL+SP3D/MQkGAFiktJ+sRT2rxOdgXTwu3htzQsfv3T9KhpOznvbLHe4AAAjxF2Gb2u/Pmy/0uDb2+6k9+mpoLp2IcHJCM6i/YkXLCTAAwColHYWt6r3+5vJ6QHfqzTFHOjWT31xGkOBkvUz/FWsX8QUAWOYNYbv6iSxfY832unZ57Jnd8ptLUwKcrLn0X6lSBxJfAIBlsroL29YP+BortMrjUucjKFZwpwzSxtOAhepMegEA1jkvbFvn1fkaa7/HpR0dZ3L7CG8u3cPkN2kHaMAypQwivAAA66TXCNvXa32NVdbB43+thxyHJreXXV1eJr7Je54KLNMOsgsAsNBn0hb2JF9jed3BXuY89Puo6OqygfQmL6eCDixRfjeyCwCwUNr3hG3s8dV+xgqNcV0YcX+xtVZydRnMnTImbKQES3SA5AIArHRM2soe7WusQa77YHp5nGopuLpsI7smTKIEC9TsZpILALBS+AVhOzv6C19zbU11XFfvcSg0X253+SvZNaFHNjVYnpYEFwBgqQXSlvaoNH8fpebHXrbU61DJZqnVJbuQ6BrxGDVYnIofklsAgK0ekra2z/ub6/mChhf1zfE8NKS70O4yk+CasYQeLE4GsQUAWKs8VdjaHlrsb7CbGnycHj3XyKGBQh8K+UeCa8YCerA0vUqJLQDAXr+RtrjX+RwsvfbSD2NGPm700LxmIsvLjeTWjKwCmrAwtaQWAGCx3nnCFnezOr+jtbhqWtGFC247dpkz/0wV2F1uILamrKUJC8t+DqEFANjs79JW91NxDJfZe8IVvse5JyKvvLxIak35ClVYlqVkFgBgtR6V0nb3eqPzvy+vvOwhtab0pwqLciKdzAIA7PactOU9wOzylveh62RCa0qoDWVYEn7AAABgu5xV0rb3p2bfgJ3Cxu9JZs15mDIsyAsEFgBgvZPS1nfHXLNvwJ9k3ec+hcias4g2LMg8AgsAsF7aGGn7+3HD78BuUc39UyJrzjzasBxHyCsAAE1mS1vgxn/1/GS+oOl5irtBhan0YSlSJ5BXAACaNKmXtsJXmn4HzrQVM3vXMIE1aA6FWIptpBUAgAu6SfsB0exupt+CW3tKmX0teTXpLIVYiLaPkFYAAP7raWlLvLPxt+C7XYSM/jZxNel9GrEQ7xBWAAD+p3iosCUeHWf8PaiaKmP0NcTVJH6CSYieJYQVAID/Oy5tjX/L/HuQe0TE5BNJq0k52XRiEb5OVgEAuCg0QNoe3/AlvAkZ0eDP3Y+wmtWaTizBS2lEFQCAS85IW+TLvox34djwwM/9Klk1axulWII7SSoAAF+YJm2Tv5bEsFmvnNo1Zds1ndKdf7gp8E8H3EJUzeLbqRI8TFABAGhgU4qwVZ74YxHDxwdffI3xS4Y4/lZ4f8DH/ipRNesgrTj48gcSVAAAGnpU2jKfm+CgoY0NXqTocKbjz88F+18w/HqkYb2pxcH3LjkFACDGXZXClvnMBHv7rtiXGeB8suTcdgEeOiWLpJoVrqAXB137MnIKAECs7dLW+YKExjzsfJm2Wx0nCkdHAjtzF3Jq2h8oxkG3m5QCAOAQGiVsnSf0gJWya9030LoeEX2mZ1Bnrienpt1DMQ64OemkFAAAp9ciwhb6fQkM+aTH60SPOk+1+klAR95HTE17gGYccAcJKQAAbmeFLfQ3E5jx314vVDTPdW5Nr0COfJqUmraGZhxs/F8mAAC8DOkga6NHb4x/Ru/HPY6vch38D3v3HlxFdcBxfG6eNyTBPG5imAQSqBASkuZhghGBSJTwiBLA8AgYSJtYJKUK5RFIaCjxwUOgEGMGwVoGqjRSRWg18nIkYqMtINjaMo4TaKdUBlstddpBqVKHcaYJ2d3cvdmze074fv6+u3vP7m/m/LI5d3fBXD8Jh1xNSq2WTTWW2oBZZBQAAC3zFJvTc80P8T/ae1qu8dGKAtnGO/YrVvtaLtqPciwzXjkGAIC2oFq15nSX+ZtxH+ns6k6NzwZ/kiXT/xce47XvQmylHEtsiYeEAgCgbY1iv0/dZ3qEl3X2dIfmpz03hUsy0pxQXh4pSDvtWGJVBBQAAD11as3qQxPMDjCmn/ae3Dq9+N5cGVZSZJ5OIZuivEE7lldBMAEFAEDPln5qzethpkeo96DH9/Q2mHw2xNkxZoTuIpgC/YZ6LK0Qfo0NAICBlYqtgI0wO8B7dO6gF+hvMrHOueruXvfJEFIp1Lfox9L6PfEEAMBAZKZaM7v5B5sf1t7RAKP/yT9Y53JkdJPOjySSon1IP5bV+AXEEwAAI4r9PnWO6QEmjNPeU7HhVmX/GG/30L7zSnwgeRRvDwVZVl+RTgAAjD2t1txeY3qAJ+I0d/RcN5sl7jxm47DyG2oCyKIttlCQJbWIX6YCANCNBeOVmtwfNT/CKpf5O+7XHO9rz9Mhv/v5Ku612yaANzDJyVVPOAEA6M7baj13YrX5EW7XuOc+2KuXkiZcuST6h6p/3jGBG422WkJHllIT0QQAoFvBTyo1vf/VhyE253TZzeveblsWViRsLEMf+2I+AbRbJR1ZRvlJRBMAgO5NjFJpfp/e34ch1ne5y3rUxNatJyutv+8e1X6+JpLwOeBRSrKMtpFMAAC8cUqpCb7FlyGmvtx5J40mt0+7sHC4dUMYULA7nse1OyWXkiyhbxNMAAC8EjNMpRm+1LdBfpzVYR+P+3CvO+D+kz9M7vnXL1z75uIIMuegm2nJ8gmfTDABAPDOUaXm+A2+DTJ6U/k3Oxjzpq8PcQnM/uxwnq/fO27s8ifi00ib0z6iJstnN7kEAMBbP1dpjt/h8zCP/K0p9OmTt0T37KhVmXoAAB77SURBVGTdvqrPzcummvnGGW0LN1ZVsKJdDvupydIZFUMuAQDw1vp0hSb5SVI89HzBnRdWvnRHkdHiGVf+wQ8OvLNtVTEBk8kmerJ0moklAADe26nSLP+ITGfOU9Z6/LeDNj/l7+//79Cvfem/MeydPv+Kr56fRKykNI2eLJu1pBIAADN+qtA0H8rlgu9qKMqSGbGUVAIAYMbIfgrN8yyIhe/qacqS+QWhBADAnP1M9P+X2Hr5Sp9tzanEoheaQlOWy7JgQgkAgDkBB9WZ6SuFnomU07+L/eZAUxvfCiQavUwSVVkqsd8nkwAAmNUapc5cXyHuNMSc6vygmHGnI2w4+Wm3noivTg0ihTYIpitLJYxIAgBg3k3qzPWvCDsJ9ZldDla4XfCJn/VeZci1I8Ud+uVbLBsQLo6yLJFS/lwFAMAH0ZnKTPZDkwSdgw3TtQ73mkfgaT/xM79OfyY8kUgUxRpMW5aH32ICCQCAL/aEKDPdnxFzBlKztA9XK+xnqsVru97h5200YiVTl+XRRB4BAPDNAWWm+/xoISdgud7x8taLOeOvar2yNmQzURTpLuqyNMb1J48AAPjGU6jMhH9FxPiX6q9+Lo8UccAWl/bRzpFFgfLpy7Jw/504AgDgqzXKLJbJE/GYxm0GB9wt4HhVbp2DDV5NFsXZSmGWxa9IIwAAvmtSZsr/p4DRhxkczzXL+/0EJHj1btd6/V9JriWK4pRQmCWxZDRpBADAd0NWqDLnHxNwy32e0QH/4sUOHjz36cBx1x5Mk1Vw4P2Ibj69Tv9gybz3SZxaGrMkXiWMAAD0xAk/VSb9KusH/77R8YZ1t7VnXmnnLdI3Gt5QPG50tBiiKMwxGrMcDpNFAAB65ktVZv2ZEZaPPWiMwfFCjB9kEzxI4zePI4z+umgwGt0QkijM81RmKeTfThYBAOiZRGVew/SF9YP/k9Hx5huetoXaGzXpr3kpNXpKHkEUp4DOLIXLRBEAgJ5a7FLlhp31d6VjDP5qcScZbBjdbv5pNMk8bcMZl+jMMsgliQAA9NwpVWb+jdaPfYP+g14yjbabq9/3b9HbZrj+yPxmEENxnqQ0SyDrNpIIAEDPRRYpMvXHzrJ+8Gsy9I72rsFWuwy+ZYneYplR3HCnuN+4LhJEAACsUBGnyNz/goDB3zpM+1izEw02qjP6ljU6GzXqblHuIYQC/YHW7Lyz5BAAAGucVGX2bxYweE+D1vtMx5QZbTPclxU9i/WevFlyNxGkuPfyJ8qwUAYAAIsELFJk+l8RLWL42a+FX3+gAsNVOQmGX1J33YvOa2r30mnEaqc3O83dTAwBALDKyBxFCsApMeNf3/Ls9A5H2bo5wPDjow2/Y5PeZomPa3y635kg8kdx7+V+QAoBALDOTkUKgOtHos5AxCP+beO/PkJ4ecPFgO4+nG70Hc/pbha0L+S6z0Z9eoTwicZz3J1Wwo84AACw0geKVICiSJFnIfGhRK8+9xOjvy2Mqnj1ix2r+8zz60kexb3Xc+0hhAAAWCktS5ES8IwMZ2uawRd8w3jTLe/2nR119WpO29kzzxE7WyyiOjtrNxkEAMBazW5F7t5NkOBkBQ3U/X5jiskSxR0dzIkggwAAWGyfIjVg1GgJTtbDGTrfLn0XSaK4o4MB2UQQAACrxWQqUgT6ynC29jyg+d1m3kOQpHOI8uyk/SQQAADrVUQp0gRaZDhbZXu7frHYZ/oTI4o7OloXSAIBABBgpSJVIHaGFKcr/o+dX4Va8lQqGZJRJe3ZORlTCCAAACIE7lVlmXuaHCfsoU2hL85MnzQs79DLc9/ODiZBFHdc57/kDwAAMYqnKtIG2iO5WPDWQeqzYxqJHwAAohxV5JmQVxu4VvDW8/RnpxQmET8AAIT5XJVG8BnXChR3ycVNIH0AAIgTocqyAr9pXCx459c0aIeEET4AAER6eLoqj5a5n4sFirvMLgUQPgAAhPpYlVYwnHcdwSttVGhHpB8hewAACJarSi8YdTcXCxR3WbkvEj0AAETz5KnSDEp44RG8MJAS7YSXSB4AAOJVh6tSDVbcx9UCxV1KmTEkDwAAG8xTpxws5WqB4i7jj8dbCR4AAHYIflaZelDLPXd0Zw412n68aAEAAJukKLPM/erWe7lcMFZOjbZdHbEDAMAuM2KVaQhTN3C5QHGX7HfjScQOAADbtKjTEZLXcLlAcZdqgfsMUgcAgI0a1WkJ4YO4XDBwjCbNAncAAHozT6Y6NcHtH8gFg65SmjQL3AEA6NVW5yjUFF4fwgUDxZ0F7gAA3KAuqNQV2qZwwUBxZ4E7AAA3qFCV2sKIo1wwaBtLmWaBOwAAvVy0Um+cdPsHcMlAcWeBOwAAN6SRI5RqDMtSuWSguDsrsz+BAwDAEfF+SnWG5CouGboqok7bZuhE8gYAgEN+rFhtyE3hmuF6s+nTti1Y+5C4AQDglOAXFCsOhd/jooHi7pQdpA0AAOekZKp2yy/3Nq4aOqmlUNtkXRBpAwDAQZMzVCsPD2znqoHi7oCs+wgbgP+xd+9PVtYFHMdddpfdbbmsu+JyWS4u910usTSAXDTkUogBUgMBgw4EFRqITak0ZeK10jQUSQvkMmNNCCFmjZaCCWPTWAYyE5k1jkKTNYWU08VpahoplMtezp7zfHef5zyv1x+wZ+d83z989ux5ngdoV8dLE7cfti90bBjuba3yEa0BQDt7LXkL4vxC96TjHe+1qdvEP6QGAO2taFMCN8Sk4w4Ow70trVcaALS/mvokzogf3uLkOOHrRnUbmDZIaQAQAx8bmMglsf0yR4fh3jbGTxQaAMTCX0sTuSUKnrra2WG4t4EOL+sMAGJiY0LnRFmXOQ4v9cbZ1cE9JjMAiIuShxL7SeAN8x1fyr1qV7swFQBSpPe05I6KSwaUOMA0W2NYB3ZFN5UBQIysmJLgXbG/tsoJppevygQ2aqrIACBWvtg5ydNicLWnqaaWT9zD6n6HxgAgZt5M9roomzCgo0M03IncfyQGALGzO+kDY3n1zU4xhT5iW4dUrTAAiJ+OI5I/MpYdnO0gDXei8+UKhQFADI3NhwXUYee2GkeZKh+1rsOZNExgABBLa8fnxdao3LnPpaqGOxGY16AvAIipOzrny+Cor+7lWtWUmG5fB/v/1T/lBQCx9Y3S/BkdY7rUXuREU6DewA7lD+oCgBjbmFe7o+CC6p6+8W64k53d4gKAOCtZnW/jo+DxHQPiMd7PlZfhniSfLhIXAMRa30vycIGULdhd29COK6Tq+rs37Br/mLoM9wRZ1E9bABBzw/L1Wr+BPzq67a6Ktv47aP5vjryyqODEL/ALcQUxycYOYe4KaQFA7M0ZnsdrpPNPyvt/Z2Fx+Hex44qtB49ueqDslNc23A335OjziLIAIAF+1jnfR0ll/YTC9/QK8pDVqom9ajuVj6gvOPtVfyqtID5gZUev9HVhAUAi3F2ajnEyfOaElUeO3TKxKud3rGT2s3+q3bth8+NLmnm5O5UVxANmdvQO6woAEuJwyj5dHLXgumfu7Xrwql43T70ww7eoqGbh/Pf/4NgnNq7c88uZFxdk8jKGexg+cY/eUyW6AoCkOJTizdJjSv3+a0d0WV9eXr6lsPBApxNeLHzbyvLVXe4ZseyCNct7ZPGDf6Urwz0ZNlXICgASo2i78RI5wz2MpdKK2CKPHAaAJOl2rfkStb2yCmKWtKI1ebGoACBRho0zYCLWSVWGewLMm68pAEiYa+aaMNH6vKgM9/ir/LikACBxRg8xYgz3BJgsrQiVHlMUACTQjwvMGMM9/i6Wli90AUDqvV5qx0ToRUUFMUpa0TmkJwBIqBcMmQgdEVQQy6UVmVuL9AQASfWWKWO4x52rqCOz7Dw5AUBilTxhzETmJj0FMUVaEVk0Vk0AkGAVj5ozUblfTkF8UFrRmOXBSwCQbN3uM2gM91gbI61ITJmjJQBIuH5XmDTReEFMQYyXVhTeN1pKAJB4q8YZNZE4rKUghksrApVblQQAeWDxUrPGcI+vwdLKXVlPIQFAXmjwZYQofFVJQYyUVu726QgA8sSMIZZN7roKKYh50srZTTICgLyxtbNtk7Pf68hwj6cnVQQAeeSP3a0bwz2e/DsoV28UqwgA8sk3C+wbwz2WekgrN5s7iggA8kttmYWTm9+JKIiB0srJ8+dqCADyzbZSGycnGzUUxPnSysWuvhICgPzzNSPHcI+hPtLKwbLeCgKAfHS/mZOLbysoCHc8ysGCGgEBQH46YOjk4ICAgqiUVtbWzNYPAOSrLaaO4R437lSatel18gGAvFVypbGTtdf0Y7jHymdWqAcA8nm5rzR3svVn+QTRQVrZmfuweADAcsdwbzseMJDlbr9UOwBgudOoQvEE4fkCWVlitwNACpa777lnZ4t2glBWVru9QTkAYLljuBvucTflk8IBAMudpvxbOUFqVFYWu/1Z4QCA5U6TnhNOCMXKarXho3UDAJY7hnsbK1JWaw3+gmwAIE3L/fvmT2vtkE0IHZVltwMAzSl+0ABqpb+pJoQKZbXOmOtFAwApU/KkCWS4x0CVslplyXzNAED6bDSCWuUtyYTQV1mtMdd9IAEglTqZQa2xQTEhdFNWK4zyvFQASKm9hpDh3t4GKStzS68RDACkVf9SWyhj1XoJ4TxlZWz65XoBgPR6s8waMtzbVW9lZWrNOrkAQJpdVWAPZehetYQwVFkZerVOLQCQbj27W0SZOSqWEPopKzP7V4kFANJuQB+bKCMrtRLCRcrKyLfGagUAuGWeVZSJK6USwoXKysRf+kkFADjnnNFL7KIMlCslhBplZWBCN6UAAG+bs9QyatkhoYQwVlkte6VCKADA/9TNtI1a9HedhPApZbV8eUWxTgCAk8Yus45a8qBMQhimrJYUqgQAOEXvnfZRC55QSQirlNW80jtFAgCcpmqPidS8N0QSwmeV1awO/9IIAHCGou8ZSc1ar5EQZiurOZU9JQIAnKVkh5nUnBskEsJXlNWMIS8rBABoTP8yS6lpXxJICB9WVtPG/FwgAEDjjvexlZq0Wh8h1CmrSZPW6gMAaMrnRlpLTXlGHiFMVVZTZtbJAwBoWsMse6kJN6ojhHXKasKufuoAAJpTt8BialwXcYSwWFmN29xXHABA82rus5katUcbITytrEZVF2sDAGhJ1Y1WU2N+LY0QLldWI0q7KgMAyEDJc4ZTIx5SRggrlHW2gm3CAAAys9cN3c92my5CWKiss4zspQsAIFPHB1pPZ7pdFiFMVNaZJt8lCwAgczPm2k9nuFUVIVytrDMsWKcKAKA11u23oE73qChC+JCyTrd9kCgAgNYZ+pINdZqXNBHCWmW5DSQAkKOO37WiTnWPJEKYo6xTdNinCAAgG/3dXOYUzwsihMuU9a4eAwQBAGTnt24u866degjhYWW9Y9RoPQAA2Zqx3Jo66To5hHCpsk6atlgOAED2nnZzmZN2qSGEBmX93+1D1QAA5KLvf9m7+1+t6zqO4x0OnHM4HOQQ4DkckJuLQxESSgEJiCL3oGKICQW4BkKl5kxFhuSIXKDmTeCWorUyS2Fas5u1qZXpQCqxmyXdLFsu0y0zB+XKrEZaW2vdmML1vq7v9/N5PP6E7/P9w+ucXdf3usqi+oerHUOE97osr5MBAKqjuc1XVP/uR24hwkMu62V9dzoFAODIPT7YrnrJjS4hwlKX9ZL5+1wCAFCVbXWzZXXo0GMOIcK1LuvQoTmLHQIAUB3jDtpWh2a6gwirXdahe0a4AwCgWgbssK4+4AwirM/+sFoafS0VAKim1obc99W5jiDCW7P/WupzjgAAqK5db858YN3hBiJckflZLbrCDQAA1fb1vYY7Vbcg8688X+MEAIDqG/61rCfWXhcQ4fasj6pPuwsAAEK0dma8sUbqH+GujE9q2Lf0BwCibF2T78p6t/wRHs344+2XyA8AxJl9brYza7f6EVZke1AH16kPAEQa8MNcd9Yc8SNs8vF2AIAglaPzHFqnSh9ha6Yfb69IDwDEu+vSLKfWRuUN92o5a6nyAEAtjLshx611vPARrszxlrZMER4AqI3mth75ja2bdI9weX6X1NDWrDsAULu5NSG7uXWC6hHWZndIp2xSHQCopbGPZfexZNEj7MntjsZfKDoAUFtN/XrnNbiWaR5hSF5X1NLYU3MAoOZemJrV5JqreISfZXVEkx9UHACoh5VZ/YzqdMEj3JbTDY18l+AAQH0M2J7R6Jqnd4RnM/qYzL399QYA6uaZydnMrlVqR3gwmwOa3602AFBP227MZXctEjvCV3O5n4OzxQYA6qtnW2cmr9/WOsLzeVxPj37eJgMA1N9d07OYXicrHeGFLI7n0n1KAwBFcNJnc9hea4SO0J3D7Wy5QGgAoCAqo9MfX2fKHOGZ9C+n76hmnQGAwlh4avLza5bKEd6R/OFsWK0yAFAkA/+Q+v6aLLLhfhi+fIzIAEDB7JqQ9gCbKnGEA2lfzRtvkRgAKJ51W9KeYApHuDXpoxnv5e0AQDFVxiS8wY7TN0JXwiczrK2XwABAQZ04M90VNlHeCL9L92KWL5UXACiupnR/R3WMuhF+k+q9tHQMUBcAKLTbz0p0iI3WNsItiZ7Lqsu1BQCK7k07Ev3AsrQRzkvzWn4xRVoAoAS+sybFKdZX2Ah/SfFWZj0uLABQDlP6JDjGXq9rhKcTPJV7xuoKAJTG8ycnt8YaVI3wXHov/G9VFQAok6GTUttjPUSNUEntTi72m0sAQNl0zUrs9X6SRtiZ2M90+Xc7AFBC6z6V1iZTNML1Sd3IJ1cqCgCUUtf8lEZZs6ABPpPQhZzd6kYAgLJa8pGEZlmTnob7K7lhsZwAQIl1n5LMLmtXM8Cf03mZjH+3AwDlNqVPSyLLrL+YAX6fyHVM8+52AKD89m1IY5oNlzJAaxK3MeGAkgBACgY19khhnA1SMsCLKbwpdNLbhAQAEnHtyATm2UAdA/yx/Idx7H4ZAYB0NLUNK/0+O0bGAE+U/SwaOvxFBwCk5bTHyr7QRogY4Nclv4q96zUEAFLTXJlV7ol2koYBflDqmzhuVE8JAYAEDe3oXeaRNlTBAB8r9TsgVwoIACRqxvISrzRvDokwqrwHMXeXfABAuppGTSztThsnX4D3lPUcOhu92B8ASNvsb5R1qV0oXoAvlfQaDi7UDgBIXve8ck61M6QL8L1S3sLU1mbpAIAMDHy4s4xjbYlyAb5dwkvo8QVfVAYAcrH54hLOtbG6BfhJ+Q7hjgWyAQAZ6Z5eur02W7UAD5TtDCZUfEoGAMjLoLYxJVts3tkdoa1k75LpGKEZAJCdbZPKtdkWSxbgg6W6gcu8SwYAyNPaUv0e0/sEC/BkiS5gUUUvACBXTaOOK89sO1GvAB8qTf+j+/nFJQAgZ9fs6F2W4Xa+WhkP95arfMcBAMjdwrK8GvJ0rQJ8tySvgFwhFQDA64ZsLMV226xUgB+X48PtXgEJAPCy9tZZJVhvpwkV4Lrihx/jw+0AAP80tLFv4ffb52QK0K/o2Rv6nKESAMC/OP2ooi+4t4gU4KmCVx//kEYAAP/mynOKPeEsuPyG+5zbFAIA+E/NXcuKPOKWKhTgziJ/J7W1p0AAAP9Ve+ua4s64D+sT4PuF7T21zXdSAQD+t4FtZxd1yK1WJ8AvC1p7dOMUcQAAXtG4or5gZr02ARoL+iqZJdIAAPxfi/v0LuKYu0KZAJ8uYuppfmwLAODVWf/5Aq65BboE+GvxQl+tNADAq7f/3MLtudtVCfBw0TLfP0QUAIDXZMhXCrboHtUkwN0Fe3F7lyQAAK99uhfrF5lWKBLgT0VKvLyrWREAgMPQ3P3OAq26GYIE+HhxAh9f6aUHAMBh6tW1oTC7bqscAe4tSt7pfiYVAOAIp/uygiy7K8UI0FGMuPNam7QAADhC/V+cV4htt1aKAF8sQtoN17crAQBQBe2VEwqw7vYIEeBX9Q+7seK/7QAA1dLz6Zvqvu+83zvC9npnPefnvpIKAFBNvbrm+KhMgur8A0z3P+8FkAAAVTfkvrpuvEsUCNCvnklndgsAABBi18w6rryFnn+Aj9Yv6CMzPH4AgDBrH2mp185b6ekHqNSpZsNFqz18AIBQSyc11GXpdfp9nghb6xKz76TNHj0AQLjFHYPrsPXmevARZtch5fx+F3jwAAA1Me66+TVfe+M99gjNE2sd8tgn3uCxAwDUzIDKhhrvvbs99BCX1Tbjbr+2BABQY03n7a7p4rvVIw/xVA0btvx0vwcOAFAHe7b0rt3oG+t5h3i2ZgUHv//tHjcAQJ2cv31MjVbfMg87xqAaFVz1wFAPGwCgjkaMurkmu6/Row7yzVrkG1lp96QBAOqsV/f4Giy/SzzoIAfC2/WYtsljBgAohAUXdUZ/0KLZUw4yaHJsusm/3eYhAwAUxrY7zwxdf096xGE+ERnuvp3DPWEAgELp3zW+JWz+jfZTm3HWDYvKNuyoFR4vAPyNvTt5iTIOAziOqZVLqYVW5MGLkdIuhUIERZkWFRKYIGUXUUyihUi6dGkVWqAM6lAUZbeIoENRQouEXby0QIsYRqAYnaVL0LVFZ+Z9x5nx8/kTvs/led/395uBBPS8KaxfKLknbohywhlaZUuVtgAACapkeEUYK2BRnbQh6qwPfmRpN966lgAAkNAqVgd/UTVP1lD1BT2w5vSnqgIAJLzy95uDXQO3LxI1VPmBfieZdmJkuqYAAEkhc7RnTnCL4MzXioZsV1Fg06oeKtcTACCJFGdvDWoVHFMzdD+DGdWs2QudbAcASDqnLwfyHre7QMrw/QhgUpteFAsJAJCU1g3ujf0/U11zjIf8UzHOqf7hYRUBAJJYxdc1Me2DK7dpGBdzL8RyH/VQW6GEAABJruDzyehvqtasEjBOCqN+5/6yv1M+AICUUJy9Ico/37wjXtzMyM2K5pPIvKPSAQCkkC3p6yNfCj+UCRdPI8sjHFDpmdEM2QAAUkzmx47SiLbCBf1+WjDOdh6I5GD7svMerAAAUlPZt/vzJ7wXXt8tWPz1fpnYdLIGhneoBQCQwtqz303oJHX3M60mRcang+NP51WfpyoAgNRX3vJ4vEMYPcdlmjy1Hf89697YtU8jAIApYu1Q4z/3wrSz/XUKTa783rGGv0+n4W6rPAAAU0rruZ49f7zYXTrQdK1Km4TQfmyw6VJlc9HvwSyuqX7zpKuttl0XAIApaUlt28Xc749ybl+9kvfg1s2NiiSegv1HSlQAAAAAAAAAAAAAAAAAAAAAAAAAAAAAAAAAAAAAAAAAAAAAAAAAAAAAAAAAAAAAAAAAAAAAAAAAAAAAAAAAAAAAAAAAAAAAAAAAAAAAAAAAAAAAAAAAAAAAAAAAAAAAAAAAAAAAAAAAAAAAAAAAAAAAAAAAAAAAAAAAAAAAAAAAAAAAAAAAAAAAAAAAAAAAAAAAAAAAAAAAAAAAAAAAAAAAAAAAAAAAAAAAAAAAAAAAAAAAAAAAAAAAAAAAAAAAAAAAAAAAAAAAAAAAAAAAAAAAAAAAAAAAAAAAAAAAAAAAAAAAAAAAAAAAAAAAAAAAAAAAAAAAAAAAAAAAAAAAAAAAAAAAAAAAAAAAAAAAAAAAAAAAAAAAAAAAAAAAAAAAAAAAAAAAAAAAAAAAAAAAAAAAAAAAAAAAAAAAAAAAAAAAAAAAAAAAAAAAAAAAAAAAAAAAAAAAAAAAAAAAAAAAAAAAAAAAAAAAAAAAAAAAAAAAAAAAAAAAAAAAAAAAAAAAAAAAAAAAAAAAAAAAAH6xBwcCAAAAAED+r42gqqqqqqqqqqqqqqqqqqqqqqqqqqqqqqqqqqqqqqqqqqqqqqqqqqqqqqqqqqqqqqqqqqqqqqqqqqqqqqqqqqqqqqqqqqqqqqqqqqqqqqqqqqqqqqqqqqqqqqqqqqqqqqqqqqqqqqqqqqqqqqqqqqqqqqqqqqqqqqqqqqqqqqqqqqqqqqqqqqqqqqqqqqqqqqqqqqqqqqqqqqqqqqqqqqqqqqqqqqqqqqqqqqqqqqqqqqqqqqqqqqqqqqqqqqqqqqqqqqqqqqqqqqqqqqqqqqqqqqqqqqqqqqqqqqqqqqqqqqqqqqqqqqqqqqqqqqqqqqqqqqqqqqqqqqqqqqqqqqqqqqqqqqqqqqqqqqqqqqqqqqqqqqqqqqqqqqqqqqqqqqqqqqqqqqqqqqqqqqqqqqqqqqqqqqqqqqqqqqqqqqqqqqqqqqqqqqqqqqqqqqqqqqqqqqqqqqqqqqqqqqqqqqqqqqqqqqqqqqqqqqqqqqqqqqqqqqqqqqqqqqqqqqqqqqqqqqqqqqqqqqqqqqqqqqqqqqqqqqqqqqqqqqqqqqqqqqqqqqqqqqqqqqqqqqqqqqqqqqqqqqqqqqqqqqqqqqqqqqqqqqqqqqqqqqqqqqqqqqqqqqqqqqqqqqqqqqqqqqqqqqqqqqqqqqqqqqqqqqqqqqqqqqqqqqqqqqqqqqqqqtIeHBIAAAAACPr/2hU2AAAAAAAAAAAAAAAAAAAAAAAAAAAAAAAAAAAAAAAAAAAAAAAAAAAAAAAAAAAAAAAAAAAAAAAAAAAAAAAAAAAA+AVsode6YIZ7hwAAAABJRU5ErkJggg==;" vertex="1" parent="86">
                    <mxGeometry y="55" width="134.87" height="90" as="geometry"/>
                </mxCell>
                <mxCell id="87" value="" style="group" vertex="1" connectable="0" parent="1">
                    <mxGeometry x="305" y="-90" width="90" height="80" as="geometry"/>
                </mxCell>
                <mxCell id="26" value="" style="shape=cylinder3;whiteSpace=wrap;html=1;boundedLbl=1;backgroundOutline=1;size=15;fontSize=16;strokeWidth=2;" parent="87" vertex="1">
                    <mxGeometry width="90" height="80" as="geometry"/>
                </mxCell>
                <mxCell id="85" value="" style="shape=image;imageAspect=0;aspect=fixed;verticalLabelPosition=bottom;verticalAlign=top;image=data:image/png,iVBORw0KGgoAAAANSUhEUgAAC7gAAAfQCAMAAABlzOIIAAAABGdBTUEAALGPC/xhBQAAAAFzUkdCAK7OHOkAAAMAUExURUdwTEA/Q0A/Q0RiQMC9ukBAREJCQoZtbUA/Q0A/Qz8/Q0A/Q0A/Q0FAREA/Q0FBQ0A/Q0A/Q0A/Q0A/Q0A/Q0A/Q8nBvkBAQ0A/Q0A/Q0E/Q0lcSUFBQ0A/Q0E/Q8nBvUA/RMPBucC9ukA/Q7+9ukA/Q0E/RMC9ukA/Qz8/REA/Q0A/Q8C9usC9ukE/Q8C9usC9ukBAQ8C9usC8usC9ukA/Q0BAQ8C9ukA/Q0A/Q0E/RMC9usC9ukA/Q8G8u8C9ukA/Q8C9ukBAQ8C9usC9ur+8usC9usC9usC9ukE/Q8C8usC9ukA/Q8O/u8C8usTBvkenPMC9usC9ukaoO8C9ucC9usPAvcC9usC9usC9usC8usC9ukFARL+9usC9ukSkO0SiOUmrPESlOkKlOkamO8C9ukOjO0apPEOkOkSmO0OlOkWqO8C9uUSmO0OoO0WqO0quPT+aOEirPEanPEKmOkKnOkeqPD6YOUGgOu/v31S1QVO0QT6ZOVe4QT+bOT6XOE6vP+rq2UGfOtXbwff36vLx5EmuPe7u3vDw4PLy4+np2PHx4rnOp+bl0+jo1u3t3ePj0O/v4N7fyfv67uHk0K7Povr570FARMC9ukCdOUCcOT+aOT+ZOUKhOkGeOUuvPkitPUesPUquPkGgOkKiOk6xPz6XOU2wP1GzQESqPEOkOkCbOUWrPD6WOVS1QUOlOk+yP1CyQFK0QD6YOUGfOUGfOkKjOkmuPlW2QUmtPUOmOkarPD2VOVe3QlO0QD+bOUywPli4QkasPUyvPj+YOUOpPFq5Q0SnOkOjOkKpO1a2QVO1QU+xP1u6Q1a3QlCzQEywP0SoOkOqPE2xP1m4QkGoO0CeOVKzQEKgOkqvPly7Q+/v3+3t3Fm5Quvq2ejo1kWpOuPk0OHhzfLx4ubm0127RN7eyfb16N/gy/n47PTz5dzdx0qqPdnaxEisPdXYv128REenPEalO67LncTTsc3WuGu3XbvPqJHAgWGmWoS7dJ7HjEahPlOfTFuzTp3Bj/M7LecAAACXdFJOUwC83gX8DwoB/swaxfY0eSCf5KT66dgFLbCAmQMVqoYL8hB3SjLSVW/uJjpFrd8/Z7tf50KGjFDYtlpqKfZzIo6QlWXNYe6100xum36VHUcZFsE9ClWgFTjFyVqk+1HxcA8mfLgeqFuWiS9Qpuw21+3HpkBI5PZl5jso8bXH4Nn2/kfy+4Bj9lPQNXvz57KUor+2nptpqrQBcrtWAAAgAElEQVR42uzBAQEAAACAkP6v7ggKAAAAAAAAAAAAAAAAAAAAAAAAAAAAAAAAAAAAAAAAAAAAAAAAAAAAAAAAAAAAAAAAAAAAAAAAAAAAAAAAAAAAAAAAAAAAAAAAAAAAAAAAAAAAAAAAAAAAAAAAAAAAAAAAAAAAAAAAAAAAAAAAAAAAAAAAAAAAAAAAAAAAAAAAAAAAAAAAAAAAAAAAAAAAAAAAAAAAAAAAAAAAAAAAAAAAAAAAAAAAAAAAAAAAAAAAAAAAAAAAAAAAAAAAAAAAAAAAAAAAAAAAAAAAAAAAAAAAAAAAAAAAAAAAAAAAAAAAAAAAAAAAAAAAAAAAAAAAAAAAAAAAAAAAAAAAAAAAAAAAAAAAAAAAAAAAAAAAAAAAAAAAAAAAAAAAAAAAAAAAAAAAAAAAAAAAAAAAAAAAAAAAAAAAAAAAAAAAAAAAAAAAAAAAAAAAAAAAAAAAAAAAAAAAAAAAAAAAAAAAAAAAAAAAAAAAAAAAAAAAAAAAAAAAAAAAAAAAAAAAAAAAAAAAAAAAAAAAAAAAAAAAAAAAAAAAAAAAAAAAAAAAAAAAAAAAAAAAAAAAAAAAAAAAAAAAAAAAAAAAAAAAAAAAAAAAAAAAAAAAAAAAAAAAAAAAAAAAAAAAAAAAAAAAAAAAAAAAAAAAAAAAAAAAAAAAAAAAAAAAAAAAAAAAAAAAAAAAAAAAgNmDAwEAAAAAIP/XRlBVVVVVVVVVVVVVVVVVVVVVVVVVVVVVVVVVVVVVVVVVVVVVVVVVVVVVVVVVVVVVVVVVVVVVVVVVVVVVVVVVVVVVVVVVVVVVVVVVVVVVVVVVVVVVVVVVVVVVVVVVVVVVVVVVVVVVVVVVVVVVVVVVVVVVVVVVVVVVVVVVVVVVVVVVVVVVVVVVVVVVVVVVVVVVVVVVVVVVVVVVVVVVVVVVVVVVVVVVVVVVVVVVVVVVVVVVVVVVVVVVVVVVVVVVVVVVVVVVVVVVVVVVVVVVVVVVVVVVVVVVVVVVVVVVVVVVVVVVVVVVVVVVVVVVVVVVVVVVVVVVVVVVVVVVVVVVVVVVVVVVVVVVVVVVVVVVVVVVVVVVVVVVVVVVVVVVVVVVVVVVVVVVVVVVVVVVVVVVVVVVVVVVVVVVVVVVVVVVVVVVVVVVVVVVVVVVVVVVVVVVVVVVVVVVVVVVVVVVVVVVVVVVVVVVVVVVVVVVVVVVVVVVVVVVVVVVVVVVVVVVVVVVVVVVVVVVVVVVVVVVVVVVVVVVVVVVVVVVVVVVVVVVVVVVVVVVVVVVVVVVVVVVVVVVVVVVVVVVVVVVVVVVVVVVVVVVVVVVVVVVVVVVVVVVVVVVVVVVVVVVVVVVVVVVVVVVVVVVVVVVVVVVVVVVVVVVVVVVVVVVVVVVVVVVVVVVVVVVVVVVYQ8OBAAAAACA/F8bQVVVVVVVVVVVVVVVVVVVVVVVVVVVVVVVVVVVVVVVVVVVVVVVVVVVVVVVVVVVVVVVVVVVVVVVVVVVVVVVVVVVVVVVVVVVVVVVVVVVVVVVVVVVVVVVVVVVVVVVVVVVVVVVVVVVVVVVVVVVVVVVVVVVVVVVVVVVVVVVVVVVVVVVVVVVVVVVVVVVVVVVVVVVVVVVVVVVVVVVVVVVVVVVVVVVVVVVVVVVVVVVVVVVVVVVVVVVVVVVVVVVVVVVVVVVVVVVVVVVVVVVVVVVVVVVVVVVVVVVVVVVVVVVVVVVVVVVVVVVVVVVVVVVVVVVVVVVVVVVVVVVVVVVVVVVVVVVVVVVVVVVVVVVVVVVVVVVVVVVVVVVVVVVVVVVVVVVVVVVVVVVVVVVVVVVVVVVVVVVVVVVVVVVVVVVVVVVVVVVVVVVVVVVVVVVVVVVVVVVVVVVVVVVVVVVVVVVVVVVVVVVVVVVVVVVVVVVVVVVVVVVVVVVVVVVVVVVVVVVVVVVVVVVVVVVVVVVVVVVVVVVVVVVVVVVVVVVVVVVVVVVVVVVVVVVVVVVVVVVVVVVVVVVVVVVVVVVVVVVVVVVVVVVVVVVVVVVVVVVVVVVVVVVVVVVVVVVVVVVVVVVVVVVVVVVVVVVVVVVVVVVVVVVVVVVVVVVVVVVVVVVVVVVVVVVVVVVVVVVVVWFXTs2QSAAgigaGFyBFuAphyAiHgYmItiWmBuIRWwJW4Lag8EE75XwowkGAAAAAAAAAAAAAAAAAAAAAAAAAAAAAAAAAAAAAAAAAAAAAAAAAAAAAAAAAAAAAAAAAAAAAAAAAAAAAAAAAAAAAAAAAAAAAAAAAAAAAAAAAAAAAAAAAAAAAAAAAAAAAAAAAAAAAAAAAAAAAAAAAAAAAAAAAAAAAAAAAAAAAAAAAAAAAAAAAAAAAAAAAAAAAAAAAAAAAAAAAAAAAAAAAAAAAAAAAAAAAAAAAAAAAAAAAAAAAAAAAAAAAAAAAAAAAAAAAAAAAAAAAAAAAAAAAAAAAAAAAAAAAAAAAAAAAAAAAAAAAAAAAAAAAAAAAAAAAAAAAAAAAAAAAAAAAAAAAAAAAAAAAAAAAAAAAAAAAAAAAAAAAAAAAAAAAAAAAAAAAAAAAAAAAAAAAAAAAAAAAAAAAAAAAAAAAAAAAAAAAAAAAAAAAAAAAAAAAAAAAAAAAAAAAAAAAAAAAAAAAAAAAAAAAAAAAAAAAAAAAAAAAAAAAAAAAAAAAAAAAAAAAAAAAAAAAAAAAAAAAAAAAAAAAAAAAAAAAAAAAAAAAAAAAAAAAAAAAAAAAAAAAAAAAAAAAAAAAAAAAAAAAAAAAAAAAAAAAAAAAAAAAAAAAAAAAP5gkAAAAPIdJAAAgHyXpQYAABDvetYAAADi9dHLHQAA0i36tlMBAADCjf2aVQAAgHDrftYkAwAAZDt1114GAADItup+1KgDAABEm7vvtdEBAACSDf0b7rVQAgAAgk3f4f6u2ioBAAAf9u5npY2Fj+PwARe5g3fjTQVyARottVaq0tZyiORmDi+c0EX66soqEUIhA7GJBAKCIMwmu1JyvIK3MYlGmz8zmYkGzvNcwm82H4ZvJkvs069w/194duBPmAAAYIkVf4X7eRiG750CAACWVm8p063/CvePXrkDAMDS2umFe+dXuIfvHAMAAJZUtnunF+67XrkDAMCS2noId6/cAQBgSeW73U6nMwj3XfcAAIBllCmOhnu47SIAALCE3f6pl+29cD8LrdwBAGBJver2w73T/dl/5f6nmwAAwLJZKd6H+9e7bj/zLXcAAFg2mcNht3e63/pv3MMPzgIAAMvV7Wvd7vX1oNz/HoT73qrDAADAMnnfHQn374NwD187DAAALJH8XbcPy/1qGO5hzmkAAGBpZDud6+uHcC/fh/uW2wAAwLLIFQfdPgj3yn24h69cBwAAlqbbG43GSLk3HsJ933kAAGAp5Au9bh8N985DuPsXJgAAWAofut3rKeF+sOJEAADw0v6z1c/2x+U+Eu5+nwoAAC8ut9/tNqaHe7jtTAAA8KKyxe79C/dJ4d7aM5YBAICXlC+MdPtouZ/dV3vPG5cCAICX8/662xj1KNxbI3zMHQAAXsxGt1OrTQj31iObjgUAAC8js9Vt1B6H+0O5/3wc7q237gUAAC/S7Yfdbq1Wm/DK/Wm4t9ZdDAAAnt/KYadRmxzuX590e7jryzIAAPDscsVOrfZ7uN+X+7enb9zDzYyrAQDA81ov1mo348p9Yri3Qt+EBACA55UtXN/Ubm6mhPv31u/8QBUAAJ5Tvtar9rHhPiz3ozHh3nrndAAA8Izd3m7f9EzZylyNC/cg73gAAPBc3d7uGS33MeF+Pi7cWwf+QRUAAJ6p22vVaeE+KPd6a3y5Zx0QAACeo9vb1Wq1PXMrUxkf7q29dScEAICF265V++E+YytTmxDurY85RwQAgAXLt9uzwr1f7o1J4d7aVe4AALDgbr973x5pK9OaXO4rDgkAAAu03a4+hPuMrczkcA/2lTsAACxOvl2JEu6NGeGu3AEAYIGyhcp9uM/eyrSm2Vx1TgAAWFC3Nx6H+/StTDgt3MPNjIMCAMACrBeqlUol+lZmWrgHQWtHuQMAQPpyxZvKaLjP3MqEE5J9oLXjpgAAkLbV4t379hhbmXBSsg+cbrkqAACk3O37jUrlcbnP2sqEE5N96I27AgBAmjI7tcrTcJ+1lQknF/twLbPhsgAAkKKtbrU5LtynbWXCYLY1pwUAgLRk1mrNZrMScysTJdyDT64LAAApeXtdbY6Ue8StzFmUcA8+OC8AAKQiX63XJ4X7lK3Mz0jhHrxzYAAASEG28CTcI25lvkYL99u8EwMAQGK5QqXeD/eYW5mI4R4cvHJkAABIaHW/Xa/X59nK/BUx3IO9dWcGAIBkdqonJ0/DPdpWJnK4n37MuTMAACSxdl15CPd4W5lvQWS7qy4NAADze189OemHe/ytzN/Rwz3YzLg1AADMK9s8ORmWe+ytzPcY4d7aUe4AADCnXOHkcbjH2srECfcg2HBuAACYS2a/XX8I99hbmXjh3nrt4AAAMI83zUG3z7eVOQri2XZxAACI7+1Ns3ySYCtzFTPcg6ybAwBAXNl6ufwo3ONuZeKG++mez7kDAEBMK8WL8pNyj7mVOY8b7l98zh0AAOLJHJbL48I9xlamHD3Z+24PfM4dAABiWav+Hu4xtzLl6Mk+dPvG5QEAILp3zXJ5/Cv36FuZeoxiHwhOfRQSAAAiyxXKk8I9+lamEqvZh3wUEgAAIlo9vBgb7vG2Mu2Yyd5/536QdX8AAIhk7ebkopx4K9OOl+xDuyseAAAARLDdvLi4SGErEzfZB3xaBgAAIsgVLiaFe7ytzOl8bjc8AwAAmCVzeH5+Me2Ve+StzOm8/vQUAABghk/N87tyT76VmTvcb7MeAwAATJUtn08J91hbmWDObg9uP/qBKgAATLNaLA3CPflWZu437sHpjicBAACTZTbuuj2drcy8b9y/BKdfPnkWAAAw0Xbz4vg8ra3MaRJ5DwMAACZYKRwf34d74q1MkKDbv+zlPA4AABjv8GoY7mlsZYJEr9z9DxMAAIz34fhOWluZZOEerHkgAAAwRu784lG4J93KJAt3M3cAABjr8HjkjXsKW5mE4W7mDgAAY3w4vzpOdSuT9I27mTsAAPwmV7h6Gu4JtzL/JA13X3MHAICnDo8ur9LdyoTJqr3nlecCAACj3pdKpat0tzJhgmIf+LjqyQAAwINc4XJMuCfbyoRJkn1gy6MBAIB7ma1ST7pbmTBRst/5/PmdhwMAAEPbJ8el1LcyYZJkHzrwTUgAABjIFEulseGeaCtzlizZB+/cNz0eAADo2ygNpLqVOUuW7ENvPR8AAOjJHt+He5pbmX8SFvvQuicEAAC/7F9MDPckW5kfiZO9b9M3IQEA4I8/3h5flhaxlfmRONkHXntGAACQOypdXi5iK/PjS0o+Zz0lAAD+9baOLqeEe4KtzM+0wv2/+xmPCQCAf7n8VenociFbmdTC/f/s3d9KXOsdx+EDD+YivKkBLyBqJGqC0WoiYYcG2Qe5C5k/cZgyBx2n0Mhs6EbwRNpABAs7OegdSGG8giaz1iQmTdpNWO/78q71PLfw8+DDy3eWo9fGMgAANFxrbzL5n0/uP76VqSzcP6T7qksBANBoB//40yTQVuamunAf+zdMAAA02tJPk8n8yT3AVqbKcB8fuBUAAA22/pcy3ANsZaZVhvvTFccCAKCx2m8n/zfcf3grU2W4jy4fuRYAAI31/PR0EmwrU+mL+3i07VwAADTU9unncK9+K9OvNNzHT5YdDACARmr9cfh7wv1HtzIVh/sv6y4GAEAjHXzo9oBbmYtxxdpOBgBAAy3/NDgNuZUZVjhwn/MxdwAAmuhw3u3htjIX1SV7ad/RAABonJWj09PTkFuZowqTvbC75GwAADTN1ps3p6chtzJHFSb73OWJ36cCANA07cnvD/cf28ocVZfsn7QdDgCAZnk0WIR7qK3MmyqLvTD2+1QAAJpl4+2HcA+7lZlUmeyLcn/mdAAANMnzwWAQeCszqTTZS09abgcAQHOsDe6Ee6CtzKTaZC89cDwAAJrjeRHuQbcyv1Wc7KUV1wMAoCnmD+6htzK/VZ3shS3nAwCgKfa+DPcwW5lfq0728vepbfcDAKAZygf3wFuZX0dh+CQkAAANUT64B97K/DlQuI+2XRAAgCbYPn0ziLCVCRbuPgkJAEAj7F0PYmxl/h4q3C/33RAAgPpbG3wK96BbmWDh7skdAIAmeD68vh5E2MqEC/fxQ1cEAKDuNq4urqNsZf4WLNxHT5fcEQCAmns0HA6jbGX+GS7cLw/dEQCAemsffQz3KFuZUUArLgkAQK1tDb8K93BbmZDhvu6SAADU2cpgMIy1lQk2lPlo1S0BAKixe8PhMNZWJlCyF7bcEgCA+lo6uh5G28oESvbSqmsCAFBbD66G5ZP7d7Yykwq3MpeBkt2TOwAANdfafTuseivz3Sf3f4VK9pIPywAAUFc711ffCPdQW5lgyV7wYRkAAOpq7/oq4lYmWLJ7cgcAoNY2zs+vruJtZcIluyd3AADqbPP62+EeaCszDpbsc69fe3IHAKCOVs7P7z65B9/KjAMV+4dknzvx5A4AQB0dXpxH3cqES/ZFuS85KgAAtbO8+91wD7OVCZjspQeuCgBA7ewPhnG3MiGTvfB02VkBAKibvYuLuFuZkMlebmUOnBUAgJppn59fxN3KjAMme+lJy2EBAKiX9U7x4h5vKxOy2Bd2HBYAgFpZfnl9EXkrMwqa7IXHLgsAQK3sdzqdi7hbmVHQZC9G7idrTgsAQJ3sXXRib2VGIZN94b7TAgBQI+1O8eIecyszCpvspbbjAgBQH/euO9G3MqPAyV7YclwAAGqj9bLzOdxjbWVGYYu9cHmy5LwAANTFTqcTfyszCpvsi9+nPnReAADq4nmn04m+lRmFTva5Y/+ECQCAuljtfBHukbYyo8DJvrDtwAAA1MODO+EebyszCp7sBV+EBACgJh4POgm2MuPgyV5quzAAAHXQ7r9PsZUZhU/2YuXui5AAANTCvav3KbYy49DF/qncfRESAIA62O33Owm2MqPwyV7yRUgAAGpgrd9PspUZR0j2wgtHBgAgf1tfhXusrcwoQrKXNlwZAIDctV5+CPcUW5lxjGQv+HkqAADZ2/7Y7Sm2Mrcxkt3PUwEAqIlHR/00W5lfYiR76cCdAQDI21K/EH8rcxuj2AvvHjs0AAB52ynDPf5WZhwj2RdbGT9PBQAgb5vfCPc4W5nbKMnuv6cCAFAHrbN+qq3MbZRkX1h2awAAMrb9Kdyjb2VuTyI63ndrAAAytnXVT7WViRruJ/fdGgCAfLVeniXbysQN95MV1wYAIFtrZ2fJtjKRw/2BawMAkK3174R7jK1M3HAfv3BtAABy1dq9Oku2lYn84n7Sdm8AADK1cXaWbisTN9yPT+65NwAAmTr8brhH2MrECvfj0s8tBwcAIE+Pp1+Ue9ytzG20ZC9tOzgAAFlanfYTbmVm0Yq9tOniAABkaX86nabbysziJfvcu3dLTg4AQI42O9OEW5lZtGRfeObkAABkaHk6/Srco25lZhGTfW70BzcHACBDG91pyq3MLF6yL9jKAACQocPufz25x9zKzGImu60MAADZ2jtLupWZxUz2gq0MAAD5Wel2k25lZhGL3VYGAIBsPbsT7im2MrOoyW4rAwBApja/Fe4RtzKzqMk+d2krAwBAblovu2m3MrOYyW4rAwBAptrdbtqtzCxushd2HB4AgLwcfDvc421lZnGT3XdlAADI0ma3m3YrM4ta7LYyAABkqZi4p9zKzCIne2Hb6QEAyEkxcU+5lZkdp7Dl9AAA5OSg2028lUkT7j+33B4AgIxsdruJtzJpwv14w+0BAMjI7tmdcJ+m2MokCvdDtwcAIB+rvW7qrUyacB+9cHwAAPKx3+ul3sqkCfd371ZdHwCAbGx+Ge4ptjKz6MleeOj6AABkY7eXfCszi57shfuuDwBALlZ7veRbmZvoyf7Rq1ev/PNUAABysfN1uCfYytzET/bCjvsDAJCJe3fDPdFW5iZWsX9O9rm/+uepAADk4v779FuZm+jJXvLPUwEAyETr3730W5mb+MleavsLAAAgC+1eL/1W5iZBshd8EBIAgDw86/V6ybcyNwmSvRi5+yAkAAB5WO/2/sPe3bS2deVxHDdEcN+BNl4ICYE3ElfIAi0kJIyejIQsP8ix7GDnoVGaNE7apJ1MF2UwWcxrULoIpMPACLTJ0DAEwyyi3eBVF5m8CL2IkXXtTJomte/DOf9z1e9nkUUhvfLp3/XvHv/uufJdmYmCA2MuF9z/tsgIAAAAIAy+eWFAV2aiP7Kfu8kIAAAAIAQWX7wwoCsz0dKL+aQnzAAAAABC4PYng7vursxEIrLP/PiQGQAAAEAIfPvmhQFdmYlAZD+3xRAAAADAfHffmNCVmYhEdscDhgAAAADme/gvE7oyE4VPn17kLkMAAAAA4y2+eWNCV2YiEtln3j1lCgAAAGC89Q+Cu2BXZiIR2c/dYAwAAABgugefC+56uzKTdyKR3fE9YwAAAADTPXljRFdmIhPZKbkDAAAgJO6/MaIrM5GJ7JTcAQAAEBJfvzCiKzMRieyc5A4AAICQuHJ8bERXZiKZ2znJHQAAAKa7/evgLtaVkQrur2ZuMQgAAAAw2+PjWXIX78pMZBK748fvGAQAUKuQTBZKpXY8HtNxtfh7pfeS7y2f/jH9J51YaJavk5yuXZQxAv7grh+b0ZWZyET2c5TcAUBtbj8YvFesZdONSi9T719rlnO5RMK2u9215Z3TZH91mrWt3/zt6CyDt0ulafzfXF7e73ZteymRaOVyK83mtX4/lclkKpVKPp3P1mofXOlitXRjt75dTlTXkh3L3OVrZ52VO0xXNur95v8XbXYD4tyiWJe4l+mc38EsT612u6cLaduJxGwtc+XmdDn7Z+qZc7vTpd3ITP9z9ZvlhN1dTnaYZ0DIF8dmdGVeS0V2xz0mAQAUiu4O3Kmd+WwKjwwCV8zXm4m9pIHb8Fbv0l/EQe1XigMVTleqZeRKAXPur8dmdGV+eiUU2R3XmQQAUKgVGYRGJF0vV3eMCqVLhq5Uvt9aLTHdgDZbx8dmdGVeS0V2x18YBQBQp1AchE2k0bSThpTKOwcmr1S2v1SwmHFAh9u/Ce5CXRkFO+6v3LjCLACAMvVBOBV7uTUDtt6bxi/UYWqpwJgDyj0YHZvRlXktFtkdt5kFAFBlbRBiEfHwXghHz6jRSjLqgFp3RoZ0ZSZSif3MY2YBABRZbAxCrli323Lr1w/NOqVzO5RmAIXujgzpyvwkFtl5OhUA1LIH86CSE9pQLkTCtEz5BIdFAsp8MzSkK+O94/4qEI+YBQBQI5YdzIl8S6LI3QzZKkX6mww9oMbxyIyuzH/GYpH91M8/P2UWAECNxGCOVBK6OzPx8J3IM9jdW2TugeBdGY0M6cq423EPMrKf4VgZAFAimh3MlUimq/WUyKVQrlLajjL6QNDWRx8kd9GuzEQusjvWmQYAUMEezJ10S+O2eyWsvaJ9Zh8I2L3RyJCuzFhfYv84sjseMA0AoEJjMIciqR1Ny9eOhHaRejtMPxCor0amdGXGcpF95vkTpgEAFNgZzKmNfS0nH4b5FxaRZpxvACBAt0amdGXGr6Qi+5kvmQYAUCA3mFv5qoYe90qolyi7x3cAEJz7I1O6MmO5yO74gWkAAAUagzmWrio/PSUV8iVKsekOBObrkSldmbHyp08v8JxpAAAFDuY5uA8i+T3FhZmVsC9RdplvAiAY1mhkSldmLBfZOQ8SANQprdq5/m52frN7Y03p+sV29lrXeodhvrlpWXwbAEHY+ii4C3ZlxoKRnfMgAUDpLtFULNlNbIc6f35evaR+DeOn67eRpi4D/IGtfy646+/KjAUju+Me8wAASvP7af7ctFc2aqq2dg/T+XSjMtXIp9O1Wk3bnnJOUzK1YoX9RHMjdL+/aHQYf8C/myNjujJjwcju+Ip5AAA92vu5THCpuraxktjbTLbjH90knIp1Cpv71aXcSj/TKM7D6SnW7CuLJavlTBDxPVJLN3YzU6l+P5XJ9CqVfFbFwfHpAlMP+PZ4aExX5kgwsp8+mvr82S3mAQD0sQp2yn/0LParpYuDruVk+c5ON7FSVxTg622dizf7iq7u9b0/+ltpVdcKsQ//le+b6PHSzupeazvQjf3DJCMP+HVnaExXZiyU2KeR/cwj5gEANIf3ZM5Xa7toxxcs908+ttcS25XA4/uBLfAMZrTq8bjN/mWOoI8WurnMIckdMMStoTFdmbFgZJ9592fmAQC0R3drs++5mlHc9HHhaNJuNoJthWyUJFZw1cvGePpSpXznTqTULQdxGP8hbRnAp/sjY7oyR3KR/RzHVQGAhELKY36u+rtlmP4RX831AgzvByLvCY1vu/+kbo+w7FRTvg/kT/OEKuDPw6ExXZkjTVX238FB7gAgY9lTYeZaEJe2FuL7K8GdsrgdE1g+q+X6lBcPV1lc3vaZ3SsxRh3wYzg0pitzJBnZHTfYcgcAGVd7Hra3A9vAtRYKid2ANt7zElVuy+3rVW1v14lVN3wtU52fs4APi8Ph0JSuzJFkZHfcZCIAQEjMfXIvBxp9rfbSbjBnutv6V8+Kuiyhe77nsUorfp7qTTDpgHdbvxfcNXdljiQju+N7JgIApMRd11X2A/8MhVwgnZlmVPvqWcvuflnh51qdsvfoHtlk0gHP3+frQ3O6Mkcanj69wB1GAgDEfiTtuC1hqMiA1loqgMrMxlX96+fq1wVZf9fyEd3TcUYd8Ore0JyuzIlkZHfwBiYAEOT2bBRFZfJ2zv97h9L6i+62xuC+sFBKef51BIMOePV4aE5X5kgysvMGJgAQV3K5163sTaVRO+/7ha5rulcv7mYTPO3/eqseb28iy0w64GjAZS0AACAASURBVNGdoTldmRPBxH7mByYCAAT13UVAZaULy4ru+X3jUFH7ie4ZvcF9Id73tjL5KJMOeHN9aE5X5qVkZHc8ZSIAQI616m7rdlHph+n63HWP6D5AJecmPAdyxaq3pvsSow54c3doTlfmSDKy8+pUAJAXdfV+n6LqT2P77Lrn9P5Q2Vf8/qVPSHo6hOeQ51MBb+4PzenKnIhGdl6dCgDy6tqONLyUWK7oK7k3tSb3kv7gvtCueLqjYdIBT74YqezKnLjqypzIZvaZLUYCAAQlXG3cqv88ViHjK7lv60zuURcfrBLYvc2Gh2U5YMsd8OThUF1X5u8uuzInkon9zDojAQCC3LQ9/B9peCl72dDsubsoGu0GdlFPyZ33pwKe/Gkk0ZX5xye7Mieikd1xk5EAAEEFV2el6/lMV6/5Se4rGpO7i6dpe8FdNbbrflWyHCwDeGANh0NjujIvRSO74wEzAQCCom465XlNH8pa9bPpXtaX3HsuXu0a5J2Nh+N3qsw64N7ihcFdY1fmpWhkd3zLTACApLzAA5YXizcjPpK7to/poo+fCfK6hQPXi5Jh1AH3tj4O7pJdmZeikd1xh5kAAEkZiQcsL2at+dh0Txi4ePVAL7zv+r4mUmLWAdduDA3qyrwUDu3P3759e52ZAABJbs6D7Gn8XFa75zm4R/bMW7xgg/tC2fWitJh1wPX/h9aHBnVl/isa2R23GAoAkNQfyPS0L/Ejs+y5LlPcNC64p4K9csx1zb3BrAOu3fzFoK7MP0Uju+NLZgIAJG0b3JPer3lN7rWClg+YEgvuCzuu72raDDvg1r1fDOrK/Fs0sk89e/b2ETMBAJJWTH7AsVTxmtzTHcOCez/gS1tNt0tiM+yAW4//x969/UZ1XXEcZ2zGAx7fANvj8d2Mb8PAgMHY+IrtXLi5QBwcIJh7DQk0ldL0koeolfpPjEIVpWqfqvQR3itFljLqmyWk/hFWJfMX1HimbYIMPmvPOV7rDN/Pu3Vua3x+Z5+191k11CvzT7XEvhHZi76iJgBA02nTK5N0HXZN7td2YuFyQZ/RDb+3/ZF0ZZn3KXZA6tGqpV4Z1ci+6envqQkA0DRsO/q1zbom91lbwX3R941fEJ6QW21UOyD0YNVSr4xmZC96Qk0AgKYL1sdsD7pOUd2BTw4JPvF63veN90hnAExQ7YDQb1ct9cqoRvYiagIANB0032xxZdItuE/2Br5ri6ovAC7Q5A4E7PaqpV6ZHZh9uq0YRQEAIQnuh3V2ccFxcZkjPeUd3C8Jn2jOU+2A0L1VS70yX6tGdoI7AOgbsB/cd1295Zbc3w/6FiNY2eV0AJu/ITsd16l2QOiTFUu9MrqRvYC5MgAQluC+rLWTrsk96OaQWd3gfkI4O5WhMkDo4YqlXpkdbGV/rUqKAgAUHQ1DcI85JvfJgOdjCoL7cBCn5YjsdFyi3AGZxyuWemV0I3vBhxQFACh6VxD8bujt5oLbDNXrwa7mflo3uIsW4d9wgnIHpMHdUq/MM9XITnAHAIK7VyfckvsFK8E9kB1ZMLdAJlCGwd1Mr4xuZC+4Q1EAgKKPBcFvUXNHzzqt5777ajkH92bZejsHKXegpOCu3CvzdCdmnxLcAcCwK2EJ7rEBpyH3M0E2y5zWDs2HRefiNOUOCIP7qqVeGd3IXgzuTHIHAEU3Q7MQeGzWKbkHOcysHtxlDzPLlDsg+6/zeMVSr8yO98Vs4TJVAQCKzobnCz5tx5xWlpk2EdwHAtmBXtGpOEa5AzL3Vyz1yjxVjewEdwAIV3CfVd7XnjNOn2Eq4+DeLJqye41yB+TB3U6vzDPVyE5wBwCCu8j0ey7J/YqF4B7Qt6CuS07EO5Q7IAzuf7PUK/NUNbIT3AEgXMFdf3LjTZelZY53GQjuAS3FuCiaqEu5AzKPVyz1yjzVTOwEdwAguEu5TFDdPRzQzsT0g/tByYk4QrkDDsHdTK/MM9XITnAHAH0XwxXcm99xmZ96KaC9EQT3j4PZg5sEdyBAD1dWDPXK/FU1shPcASBcwX1Yf3dj07cckntQzfmz2o32sV5aZYAdDe6avTLPvtZHcAcAgrvAFZdmmQn14H4zmD34SHIarlPugMwnK5Z6Zf5lILjfoSgAgOAusOyQ3A+Xa3CPSWbrHqPcAcfgbqJXhuAOAG+7E6EL7h85rAm5+2qZBvddx22saA+Up3srlnplvlGP7U+efEhRAEBIgvsFE3sce9fMV5gEwf1sQGdjNDxfvgXC53beUq/MN5qJvYjgDgAEd1ly/8BhyL23TIO75AtMByl3QOZB3lKvzA+qkZ3gDgAEd5fgPj0pT+7LZRrcJQ8xVyh3QOZR3lKvzDeqkb2gkqIAAIK7zAWHIfdp3eB+MaBTcUxwDnopd0DmV3lLvTI/qEZ2gjsA6FsIY3BvHpUn9yDWcjcQ3N8XPLv0UO6AzGd5S70yL1Qje0GMogAAgruQw2LuQXw+NVzBfZRqB4Q+zVvqlXmhGtkLqAkAILhLxa7Lk3sAi1kKgvuJgM6EoFVmkWoHhO7mLfXKvNBM7AR3ACC478RuFx1vLsfgLpicepRqB4Qu5y31yrxQjeybfkdNAICmq+EM7pIWkeAWVTEQ3N/xvgsTVDsgdCdvqVfmhWZkL/iKmgCAsAR3S+uAT+wWB/dj5Rjcj3h/48CkMkCqMm+pV2ZdM7IX3KcmAIDg7mDRwIqQguC+ENBp8L6k/SzFDki15S31yqxrRvaCz6kJACC4O3AYcvd9eqp+cO/SH/MHytmKpV6Zdc3IvulPDykJANDUG9bgHjusPz31vHZwj0143oH3mil2QOzXK4Z6ZdYVI3vRPUoCAAjuLhwWljmrF9yvBnMSznregfPUOiB331KvzLpiYi96QEkAAMHdyTVxcL9RdsF9wPMO9FLrgNzDvKFemXXNyF7wBZPcAYDg7uSmOLjf8rldRD+4e56ie41SBxzczhtaV2ZdM7IXfElJAADB3UlsVJzcb6oF94AGvM943f7HlDrg4FHeUK/MmmZkL7hLSQAAwd3NgDi4L+sF90BeMHdNep6XywtuwGF44LO8oV6Zdc3IXvBzagIACO5ueialwX2yy9cdWNQecb/odfMD5HbAxd28oV6ZNc3IXnCHkgAAgrujZfGQ+5XyCu7DWgthAm+Jy3lDvTJrmpG9oJKSAACCu6OL4uC+WF7B/brHrR+l0AEnlXlDvTJrT9Tx7g4ACO6u2o6Iv8Hk621HO7hf8vj12FE63AFHeUO9MurB/bs/UhAAoCkW6uDuuVXk/yaUgvtEEId/VOnDU8Db45eGemX0R9y/oiCAbUXb66NR2soQkHAH9+nd0uDu6zFIgnsQY94fqKylA7xNHhvqldEP7p/bvEi1iZLGr9oTmf4NmWw6ujP7W5XOpja3eCjdXk6vQ6P16dpDmZGNIxvJZGrT0ZAeW9V4pNrxBGTPtZ7qq8kV1FTEWzrnstHwX9j2xEbBDg31p7K16eqqsvxH3/ayeLOb/whSmWyi3vRVuxrq4C7/euoxreCu99hy6xLhC3B121CvjGpw/+6l2xZj1tzeXIXj6GY0W9ex9785azNr9XUkR9qD29nK2vHW+OCPNpg70BRpHQ93uIulM0PJhkjTj09kQWNfy3xdfyJUY8/pzsZcLiJ/5qgfaqjIbWVPX8NcdUgvbXtmaj5SsfTTA+puiuzvHM9U7yoHlYnUeOf++KvHmMst7Yt3nDyXqrf49CkJ7gP2dv+g6oKQysF9mJmpQNAe5e30yqwpRvaCB+auT2K+++VddsghtI/M9O3ZMmnlmlpHAhhWjNUmIzVbb3Aj3LWOtYfw51FVOzcf785tY6mpYyobioHa6FiksMtzoj9rO3Sy6c2noO9kbdgSbTZ5at8bj2kw3nquNsQNQdHsVEPf0nbF2723YdzaUYY8uE+Im9z97Pe+oRrcu4572vJhohfg7tPndnpl1vQSe9GXti5OOtlXvLu2CP+y/lzkzXfsmpYRX2/WVSMNjdtFhHhdfZh+GtVjHmLPj7Pr/IjtFwtV/R3/e7DqEzyQHZpv9HL8TcnQjFFXZV//jPnqDyXemQpf80wsca6lQlC73fFk1lB4FwV3g68MRqXBfVgnuE/7f+jepqYe72FFGcDd5ed2emXWFCN7wV2Tqf1lT4YocU7t9XKzbjzpV46uTDV0ewsI8blwhKDoyHxfTm5PPJkwekSVqf0/uUZe97M66T0ALnVkQ3BtE3XxGtllPRCpq/UjaEz178gB1s/tb3Qo3ppT41aevEI+4h4b1mxyVw3uzZ7Wwtx9guQFlHI/f26nV2ZNMbIX3LHyn782+Upu9D6YOBbZ4zmQNKT9eMLo3CeIB4MnzQ+7J5J7c+4qDDaNtI/tH3xlNz01X8UyLcKjj9iO7rHazia3y7pvPlPikHSsM7c/8ANsy8xXuNfunviUiV9nyIP7rgVxk7uPHxFVDe4DoX1LAoTJb+z0yvxFMbIXtJkY7e3fouvEY2hIzwzKbtWtJXaeV/ZHpOngQKvl6J5INuVK1VRnqWkkUbfVJUp6eAacczkVEavvHHa1ZWf2lXJZBxtSJfyDqOrYSP8Bj8JkWhtLrd09kSH9l2JhD+6x49Lk7uOnkDSDe88vPH0pltwOlOb+tr0yf3fulfmHrFfme83M/tIf9C9HeipyYKsmBC//6mKpiPxG3T1VwkBidMopCR04abQZPNFZemovTkrImLg5VaVmXjMA27ntta1zDYHzJqchy14MvW7cfcb1dUr95lucAOu+MtU66E/tdrdqP3uFPbhLVnbxfZEVzeA+66kvqHkXgJLce/7cuVfmz/72ynyvltiLlL+/VD3W8Lps4aHHvWrcMXTudb1NV8/UOA9eztkbdHm57qaPmsaVRy4rDyXjr59cu82IezTZ7X7ojf3mru1Q3Lfr6jTFeqgQqgNrJKpP7vOxdpciKdXfZ+iD+7vS4H7Dv20ve9/qz3w+7AUva7if6SF1ASX64rm8V+bf2wb3b116Zb7Xi+wFD/UuQzQ186bZkNsuAlI15X7jXqpzuUuXENs3OyrStn4HxXU3/TRYp/diIX2u5c3HM/Xm2F7i4G2HqVcqh1r9vbbxOeHh1Z8q/uVYIMcXS7X4Xbu5vn7F6B764D4tDe6j5RDcu7yspjP6H/bObzmNIwvjwGhmxP8/EjuAgGCxYBCSbGQNQZKxkKw4wibejb1RHAe74sTyZlO1tdnKli+zjyFt+RH2IfIUegtu7CdYW1iOJKPp6e5zukdsfxfJjYvR9DTMr09/5+s9ZZRRUuLVsyPPeGWG8pD9WK9eyoJ2O0zIHfST6qN8oNWmNjeE+hFOMog0vfMlACzIykf3uWivQHa5OIy+1uP3XCQ906GrrQXhH+wgUzUoviszrpZLjArFAiiTVyK6P7js4O5bogT3KbgjmCjAHfj0UjcmnaUvfEpKSrz67sgzXpnhf2Qh+0mMu/g3VWitX3GRAlNwrrbPCuaseH8AQAYpj0RDsru5XbhGtoU2PGsLsba76nL5wvJtFYQDZ3reWJL1AkhPtlRwdaSYuZA7tcTtgt9gPTeDNnmDsiKCLj+4fyWvO1UauF91xe2q3q6kxC/zyCteGY44yP/C6LnYUmC0l3JLFTmHAus2hLs1UqYA3S4QK1S8EC+Tz9YOMFVpCLqReNWmCChfuOBTLLC9h778E33yRdRnOxO0W3nnddS5jKIE8A1aqQHq5M3IMbRdenA3qU3uO5ce3HddGNw/V/V2JSUQ/ewZr8xQHrKP9FDYoNfXumEa+r04A6RRAXpHr7tdb6zDwdDsguzZH7JLB9gqoIdD6o1YhnLXYDyRGUVAEGxLNrrnu5EDfCXbxfVy9CN+161WzP/R3IINco8WprHvLpKVsfy6/BV3apP7pgxw34N8ZjfJ1/vyE5+SkhKEvveMV2YojdjfS8QunhZtdv3U6HuRN7behntHu/Pfgi0URlzQkDr3830RaIeZoWPGW9kMixtkbKW4DOsrCcskdyNWOxCoSCAY9mcKqVwuUWj7gxcsoyAr7tG2kBurSFhcX35w99Emud8Bu/KiFHC/8ZR8uX2VA6mkBKRfPOOVGcpDdhFpkPmFtWyqwlbRHN9KaNigG+UxFzsF0PEVg5a8ma91SqKwzg9vCjKsaiwXZr6DMYXUUAHcJC0t0X2umTzwoLpwW0WJaUF/87QtvOg+AeC+SAnuS5cb3HfJ9fapeVP525WUgPT8yCtemaE0ZH+n3377EW+Ql+0wV/1vrAO9Cs0mpJq7bsM3ws2UZU38akAgsdVAo8317QLnsy99jLo9hGVMRVLNHXZfSOja2OV2QkngX10RfSDT5Qd38x5trAxYujkFuENd05wn+9s/u6+wXUkJru545BWvzFAaso/0AuuXpcWNEWNCX+oIO+XOCY1VlPCViJzoimh4IJbZEmAZOhDe7cD5D43jBGKGZSQH6QlXmz2zgUqwEpgVicAwOe7mWkDs3I2si32AE1BxfyItVkY8uF9xccnbt3xKSkpw+odXvDJDacg+0t+RVkYJ/jfnR62Ecx0Md/bAwXIeyiBRQU1CckVemNHgVN0S6D4bEOun4LkPbWLha1t8c2OZOECzhU65/iGnU6u3OrmwkDkAkm5vhYXPXcHRrTcogPeaNyvu1N2pu5cW3HfJfv6pTWVvV1IC1V+94pUZSkP2kb7DGd8UwHvzfC5JHendXbpoU9zcxmv1Cwh3QjfcGk2SwXYi17VzuVQ7mOQt0ddAXEFlELtS+GyJuoCHfH3RO4g2abrFouO21vSyje6vGQDgr9lxOQEGgXAmkbPfTt6Cv8K92BMa3UoF7t50YJhPKcEdbOdAMLjfWjwk+mQ+faAwS0kJVj95xSszlIbsI+G8AVoQb/yzVmEthhaGkh5vSq77UVs3hR5SREa70UjktqP6h3Yq87gyW+6k0jxtfgAHZ8ZhFlDt05+5jNrIKdZmQbD8TBcaF33NTZ9pdXGTaIL89xdy800chO2qdXarw7Cq2QzPc64JtLRd/oq7z/dIVh4kBbjzpzN+seWiK3VTpUAqKUHr+ZFHvDJDXGJ3QPZj/YozvCAOE4OCTfiUGcM1OL6cUyqKnO8WubA68K9fmL2ut/rs8N7nXqLkYEa8cHodg2sbGohsYig7k3eG1GapVTHL7jb3/VXJK4taqmpcsDgx480Uc+19UBX2FCeg4u7bogT3/csH7nM39qfIXamPNlRXqpIStMxT3alyvTJDScT+XkihMkGAF/706Z++Jm433cfBF1bwAFnTAuPc14iLkECMcGLSXD3Lyu4ZXrMEUIPw70fx1tGfblKYFcrMOm+iuIkkN6tptJHgneZal+yBajrOMNM0l/uMcwhiw+j/p+J+jRLcv5EA7jxxkFd2t9xk1a/sqBBIJSUM/csjXpmhLGQf6SccwwZAa+pB5FTBt4CMWYNzDXRmT8AhRUlRsYFkm0yg6WoeRBNsw+LnI3cDaMC7Jx/YEHBMUVvQq5vQBt53OfRzWP0cNc5G3TzRJuN3dVqS1mqzbbKI2hmbBHC/TwnuKxLAndGeY2483nw05eYCn80rl4ySEk6Z6kePeGWGspB9pGc4w1sH4N7ah09bwD9XJnAGovOZAxFKiJnrRPQp9VzDld5hehZ8x4maQKuo7PuP6wh5umJs7rrjwy1RtAbHcVo6OPt0o6T5lnZf0Y+znRlsi/maTgK4b9AGuUPlrtyhuOji4yc3vv7jrT2XeL23cX9ndf+2277bm6tXfEpKSjj6xSNemaEsZB/pIdLwAtQ0kyfY1hkIhuiGqAMohZhlLFL+dSFEVf5eTwond6B11MgQZRTEPNxaSMDD1R09P0m6Q4TWMbaZ+MIgSR6vmSxVQT9ks9xiV8jmySSA+x+mKMkd6hjTO4e0S4Z3/3m6snT7m+vXry8u7u/v3926e3dzdXX13vz8/L23/9+6u3/n0ecrN+m2EO4pbFdSwtOfj7zhlRnKQvZX7/RvtPGNp3hxezBiPT0jGKKx+xZPVwsF5H0vE5ZQs9Ttd0aWgX64DiWKwizdjmvgcWHnixYEbKY4cnuadukQhT9tzM91f6S9kaBF/7vkVbfMJIC7b4WSnzdkgfvFNM+hT6+p5HYlJUyZR97wygyFI/urU/onYi0p3+HsADzeZI+S6sWRSridynVzqYI/zVMxDLwnS/y+RcemWGhVCWOSYWmiDDHQT4ZnkbINMtrbPjH29hMtYD9c3XERkqRPIY+nvTQGJqEtdTrLMqeiDF9wER2qEwHuX1Ki7teeAndOfTvnU1JSQtUP3vDKDEUX2c/oJe7iKM7H7v61su1Ua00nOuX470sP0/TlG50Uq8+le/whruNrSkmAc+NL2Nkj6yT0YVy5lelHOcWzSGxB8HaWXMIFVRDZYmE4RqTWLIaP1IFTV3l2HTTC8pD1bC+NIei1if9Cuj8J4P6tpKNTPQHuSzt7PiUlJUy98IZXZigJ2Uf6G/K2humLd3AC2AO5tfFGANNnxdgu+fblbBaJ/2q2ba+X6/rxzfn0fHQtm6qwe2u6uA8gRlg3sB9rqqdYuJmjuFwE6Jro+Q+ECjcEfM7ZRMaWJK+Dbjjx+PyNNsFnVmf+aPpdNQG5/BMB7quUrPt4ksD98HDq9uoN5ZZRUsLTM294ZV5LQvaRHooY6boNbZ1NFwnVRMtmwbwg6YjQdL85lhbYT44foB6qTuD2GpeXgz5af43rZrRWQUBG53Qg6M+kcu+cV+Ekb7MDbsndRlkmhQKAg8mxctEI3B7k2awyutRLkDr2z+REgPsOJelenSxwP+54XXys4iCVlLDqVUee8Mq8loTsyL2p517CVT9cw2ey6CaowohBm5n9Hcd3t1VkIp4+4rATfCGzFt/HW7SG6EiU84aMKia7pxOdlqWdZm2t3ohleCKGWohPt+k8W5lbCupwy2wOa7hG6EkPcx6CUKWdSGnsUxcmAtyfUFLuvckD93eRkIuPVbiMkhKKfvaEV+a1HGR/35sqbrTrNgxyhatuiUQvAsZIhpvk97ZZZnBiRPBc7gR/e83ivYBOe78Ax4karRQGuweLrQv/tnqP2e0VxvtCRR2HIcKxk9MAWmTPcBjDNUJmZ9DgHj/aBVkGuWNhIsD9ASXibgJd11vgfszuT5RnRkkJXi894ZV5LQfZR3ohcrzz/C7lSI4KNi0gv27SdrtPvtD2TtRcE9+1q9GekAtynKi+Dpzo6O+RMDffYTSQRLGerp7G6ycogoxqJcr+sE1CB0U6zz+RQrS/Dj3vgPuOV1+qG5LA/fqh97SyektRlpISsJ55wivzBj7j0b2eix1xPcuF7hGbtmCrQSBIuEXhOjDLtIQ3a+AM9vIMpuH85HZtObl6CwmwsntlPe/uwTI1tqawvkvOS6YA16TSAPrJazGe+M+sCMM5bYLOTBT113EiKu57lHC7NcHg/lbX/6LK7kpKoBqZ3GV7ZV4LLrKfkSZ6zI3iDDO2d1kSKqq8kY3+Zepb9ETSnFUTE2cTo2zGhYIfPQZhxY6kKPpzywwbOBEkZ3QVdU7F3S+LSmP9aIEY130TNoumy0C/RpT7YwFUm/tEVNxpj069O9ngfni4dFV1qiopAcr8wQtemTdykP1Yv0oY9XqbDbFyjMFyFhffZVg4c5nOPYvigyZlg4Sh1mxmlrLHD2yDwegkObG9VKTbwjG36XeMcJZluvOtB3ifrtuHOtPSjOVYoTI4m720zGdkaQwEucsMyl2UHOYv4+4kgLvvKR3XfjXp4H54+HTzTwq2lJTA9MILXpk3UpB9pO+lDHuLwS4cZi/UcpA761XzdDyAEDRHMjuUAFMoKXcYbLgrGz0edKd3Xr1dD2Wod2xQvkM5ZDe24XJg0yfzLb7czP6PvTN5ruK6wnijh95DD6EJhGYJITSCZAZL1gBijEAgMEIMAWQ8hMGQ2C5XOcYLV/xnIDsm2yxYZ5FVFsmChbep8h/hTfgLIukBVTY2/Z3u757TtM63YEdd9b23+/3uud85p72rq+HYkb5y2sGHY45HW3kNKotCt8xeB/cYjcqo9k7+wX1l5fBRb8zkcrFihRez4JV5ZoLsFX1iM/FFKf3sOJAmgjec0FjfOJV41IKoO1GA9NS4MtXTzPdImKE6wtxKbUkrB21ZSFThpjQt9XqFqBo0EmMBT3+rMQU+XTnA5yHGkbTcQhysWpbn3BjQLJMPcL8uY9p9GwHcV1Zu7XbDjMtFIo4/Z8Ar88wE2Sv6wGjiCzJyX0j5azmWxFdf25aGfkqSBi9V9DpzA3FXCdQRC7ILhn5qZkVC61V/4uPDiDDKH6AWSSkmTkzoDVAC/fzT/KeLuU1IVzDnFdXLlvOYg/vrtSgj2rmNAe4rKwdPeZqqy0XRvQx4ZZ6aIPuanjw0m/hqgVumMf319IkEOalpvSTdRjFo5I6BGrOMYksTBqos80IT8huV2jQlT+plTxsghWFAYT8NYE/XSn+4uFh/MzmjfpusPlFLsI9iPsB9v4P7b+j0JScul4ugrzLglXmqT+wv9LHdzE/BP5Rd1YTosLTceO186kElBpJx7uQW4qKl9By7YVHtnl1kf0WL1One3JJqecsyewXdTVJoVrjB6cDO1o3qW4nejPaA7BwWrA1TPsB9zsYqs7jyBuiKt1N1udJr6b/2XpmnFshe0Vd2M18CWWuIUm1cFOFfVQ0jXbSAeziauZPbpgzOeHw2UHHzMRm3T6Y1KleL6kJOsSc7jjQ5ORPz2NPVkz8MW/XBuV20ew6E+ibmA9z3Obi/zi/j0OVypdan9l6ZpxbIXtGS4cxjHvDGYdLP9Jiki3s35zJecFqg1pVpicvXbDNbzxeJoexONqIblTZC001JjL+BfeiNs+pwSp8UMQcSOQAee1wY4+/dgugGpSpU84t8gPsdm6oybwa4r6zMeWlIlyut7tp7ZR5bIPu6HlrOPBai5QEejnbL0+l/QQAAIABJREFUtJJv2+CkWGaKX6xRpjZEnZOiCH4myaO3aEdMJcZotptkIm59SZXysUA09xQ4HDevQZoetIhs7kcCfRLzAe43ZSB7c4OB+8rBC45dLlc6XbT3yjw2QHZzizuIWsRYZRl2YR/jDXrEwjsS28p0IcyCikr3sOOmVdrYNSV4WHKd/jgzCaty/Jj61o1Km5QD/Gic/2fFaQOVhMwHuJ+1acAkAffDdwbfuzZzvndVz/9377renZ3ds+faoUPvXT41ePTK3MnRzSHIffO5jsjlcqXRZ+ZemR//aqVPLCe+E2nLyPTP1qG/y8SyER01+kHZ2G71W4aDLGhHnQR+2IFTuL4orR9SF/6w3JKJw3HD1bEoGvID9TOfLTZPtDlMamhJ1IepLcwnUQLub2X2F/W4DGOP64P7ydnX74WX/6wC/cyZ3WcXD5LRfdHtMi5XKn1k7pWxA/eC5cQXtZtOFsEGqruYg27TD8rGAuVkoBWVOYXJIfcF1F1Pm+hOvAhlF/VRY7MJ+tRGWjfmEOOH8f1aQ9lUhiV9vIaKQf6GDQnub+uD+6z48Ne758bRxVtEu8weJy+XK4U+NPfK/MOK2782nXgE3Lmta9rAX2UToDzBGnAkdqiBUEs6IkkAJh8f0HA/sew4XkWwino+ij0w1OvtJbIRKPYVXe4MtXnbJKfO+SB/Qj7AXWiVOacP7gl6mK6h/s6Zt26yYu+Hzzh6uVzJ9bPmqSZemb9ZgfuXphNfUPcGV4Mud2p9uzKY9sZyCsc3vBwKd9Eiqu3CbWSDZhMQLdIlvCYk0xTdp3fyLEBvTJ/iy9Ia7nskKRjbGOQdyge4X5Eh7OAbAe4vNTs4d5hidM/uArpcb4A+tvbKfGsF7rczD+7kG2kw+t1HHXRcNygbnzO5EG5Ny5I2TNxa7iC41zK3VB/8rExfUOzpiJg+AHUimNZ7tECpqesSdSIIUss9H+AuLAfJehAlcF9Vz5krvyOg+9ulyOVyJZS5V8Yi4v79qr6x/XB0aJtW4JqBddRBO2s1g7IdzaoQ+UtJ8lO5rgcQ3KlZExGc0Uh0Zsc7ZZqUZ5XW9jc26/bRrmLAzSvJTw1SlDIf4C5swHT5jQP3Ve08cyd93P24k7vLlVTmXpnv1JG9os+N513ZGrwmzNvQzh0U9I9wKtbHB9yHQqYkFyV9iah5hiC4d1MfdwJ91AbemGN6IA3mVrfqvSldIb9I2yQh95YAf8CGBPdDpGF/jw+5kzFe7+DJ1DF3py+XK6ms68p8q47sFX1lPO9b9MF93iAqi/IA5fK9FF/YpSnook5LOlCW1JeWbHEooOcUYsnE+CRKYuZkB+J9qiENVr+svHy/VKtg87YHGD8f4D4no1dWfRUJuJM+PJfupKzzfi5yuVzJfptuG3tlvtMm9udaMp74ZX1w74TKnrCHxeL8lDgpEAIeCLqoBUnIfS9x4Gn9IVfVjdqCeNccW1VXGLGPsHoQxKegbKkOunklIfcQpp18gPt+GbyeNwB31qOWZq+kQ/fByOVyJXv7jHswPVFH9nV9bT3v2/XBHbOxLpMHxVwck0rP1xl2VSUh9wb9ccm9p4bRR6WNW1xWPZy0I23SOAFMIBmkJvAnSRJyn3Jw/3Utyti1hzSsQcR9rUrk7Nk06L75hvOXy5VMxl6ZJ9rIXtED62mvNQB3LHmSHEyrVysrA2Tf9gdeVUnInRm1BMG9TH5ctOcULSM43uL+aIT4fJADqVrr3RwPvHklIfcAbczyAe6nReh6izWsRcR9XTNzKcj9sHdicrmSydgr80Qb2Sv6YCOCO1ZXpp48KuaVIeAPEB9dCL2skkY2RFPHCf2C6mtCvTK0/lrA9c024vPtRR6OcolTAuqoT4TevILCMgFaQV2QgHtmS5KMisj1nTce3FcPXKPJyX201wHM5UqkL0y9Mv/SRvZ1PTSf9V0G4B5B8WB2xQiM7tKPinSYGgi9rGj5S5s2pmxn8gj4pG2sAZt0t29Z7TTUZ3DsekUTglPnNH30fETcb4nAdX8OwD3qOZe8OOT+DgcwlyuJ3jf1ymgje0Vfms/6kAW4d2m3y4HDlgRrMmIXGQ6+ru04+xDbIRmBe0G5MS7izaEuca3WpAL+8qrge7dD0D6V75XJRcS9JPN838wDuEfRntOJyd1Ly7hciXTR1CujTOzPdXFjgjvk2WVHpYtKlQoBS85Q8N/7ksQozGtSawTu0Sbdhj2lWmVwR0iWETMsxyfdhq3iXpleQQexZXr8/0IeIu69RrXMr5uCe6nneOIE1UORy+VKoE8tvTLayJ4Rp0y0I/ansZk/KGRyP8EetRkZNXU/IqTEySaFha3B4YdXDXvKCNxBkzurZCJiXaE6vQDXN6UKE3JbVBd+7yLnh2CuMwm4Z7aQ4Hmjgoi24L6K7peT2mVGeyKXyyXXA0uvzPe6yF7R+xsU3DuWLQABMugcSzsKEi0cV1hYQUXIRtoFgBW4g+NuJw0HFJWhJqciW7eWMc4m1fuZ35agImSDg/uvaI+MWi/kBdyj0kzSHNXjTmAuVwIVLL0yyshe0W37SW+0AHeofl8be1DoAj61DbrG4jLhV1S9HYcfWnR4wAjcUWNQUe8xmeUgo2M6twlQEmy9wuYVpKc2ssfOBbhfkkHrTG7APSpdvZ7QLOM1IV2uJHHYe3ZemR+UkT0rThkjcG+1AHcoLJvWxQI1AxrTWFlB1JJWmsMK3Ivgg5KgE8nRoHaHBc6cjNYAyC3Nskb9jeIQvnnZid65APcbMmalQbQ9uEdRT8KS7iczW9vT5cqyPrTzyvygi+yZccoAaW8hwH0c+EHuZg8KFQ1M+7RQg9ayxsoO4OxDyzcEI6X8goJDqlcLiKWe2tNzPvyJc02IU6Zf5bPUgG9e9vVVLsB9UObvpo2bBXCPdu5LRu6nHMFcrgT6wswr83ddZM9KTRkrcEfwlm4EL2vcvCPsU6sS2inipdx3sP4gM3AHCwiSrjoWgKHmmY93QuXwVUTcVa0qn6W9OLg3kYfOBbgftSnjng1wT0ruozsjl8sl1l0zr8y/VYm9or9kYcptwB1xrdC7ixYQDBhSoGWdoKXEK8OyG/RZgTvYbJNUgqRd+8LogMrrAtHyMZW9W8C9MuxytbkA9zsiYj1qAe4hLVc7k7llMrucLleWtWTmlfmnKrJX9CALU95sAu5IWY52+qgIDKQszgGxzyadpT2AgzvL12EG7q2qtoom7e0L2J4IKSGIgS19vVTeFD9Xp4P7K1oUASuvHP1JfNCg1449J5OA+0EPubtcCfRHK6/MT6rIXtHSxgV3JIWzgT4q5KdI93sCFRRv0FnaTpx9WGFUM3AHPdEk6kQKi1ItJcC8pu8chpX+P6CzeQUZGuT6lLkA93dEwHopd+AevZuoKmRmG2q5XFnWfSuvzE/fq+vzTMx4vwm4I3bzJvqokJ+iEH6IbqW13QqzD6ul6F4rcB/HBib1BkDAnfraAPOavvxk9RZkCvfq7N1qvAcTufxUHsC9JGtD1Js/cC9dS9KJ6R0vLONyJXjdPjPyyvxPH9zvb2Bwr9YsdfJSk8GhsgjhxrzS2rbB7MNKlzUD9yOqjIf4OKhlE4GIe1ljEHZHWMqpk5wumwdwv2pUVCY74C4trMPuROVybSRw//KVkLuOV0Yf3L/JxuE+HtxDpFKWtliAO9Q6NZVjFmsENKW0tmO43aBedUQ+uJ/ABibddbQrTum64o0ju9J/TrBzXqfS5sVPneTIQh7AXdZ/aV8uwT1KUlpmX+RyucRa0vLK/CLk/kwd3D/KBrjXmIA7kifKB/em4Lw1DZHGhNLaFnZp+4TNwH0KG5hUYhQpB0n1lMTnGdekHwRL8C0qbV7BqbNAHTgP4H5KRKu78wnuV/8kB/fDV53BXC657tl4ZfTB/XY25tsI3BstwB3irVSVEaFQrE7j1DVNwuxDcu+MWIE7mBVLKjE6rjil4IGwQeWdfPRoWWvvFvA2BFz3Th7A/W0rf0iWwL102StCulw6um3jlXmqze0PMzLfRuDebwHu48HBHarL8Wib1uLidgNS8UIU3Ok/2mOqjwnVDmImV8db+KdTj4EVIdqh9mXCTe7cG6w8gLvIJbKZGGUWgLvCNOyXg/uiI5jLleCY/AcTr8xjbXC/m5H53moD7lstwL0tNLgXtkOgUa+1uHj/SVJpeRDc+T5pLLmAVYgTSoWtUt25I0qbpUrty9QNb9466rh5APfTolIqxIGzBe4z8soym887g7lcct038cr8qEbs/6loKSPTbQTukxbgXheaqusx0ChrLW41zD6kBD8zcB/GBiZFwae0nzK+TH166zmWn9Gv9mWagDcvt8fyIQm4Z7N8oKwa5Nncgnt01Eu5u1w6H53/s3duXVFdSRw/0NAtt4YmXITm0ijNRQQF5SaoiIAiXkfFYBA1oMbRlbXMmMk8ZE0+Rmd0lo95yaMrD5mXeci4Vt7nxQ+Rl/gJJna7DGaUrjqnqnadPvV/dS32PrWPp397739VPXbhlflBDtnzeqQl3I6sMp0uwH2ZG9yHXHHrh5SFsk8tzXjOwL1eFNxh60zYGKhMIDd1XBm4V4PBnbYe5CE3aZ2UOoZC1QXCkeFH/RUSgbiAP3K3ujImkx/92YVX5pkYshd0O+Lg3iD9c/xa89zgDju0ZLB4Bwgzab6oM3CvFAX3Vsnak69VtL8xQbkcWFGZKrlPUwr67tLOqQTA/QYKVWdKF9x9HLlvtBiCmUx4pb904JV5Jobsef1dTbQdgftZF+A+zQ3u45KQDNFRMLjTVOZwBu4xUXDvEObJRNG+XgS1J2G3MzVynyZwTaSUgfu7QhWVGaM8RtAG7qv4I/deQzCTyYduOvDKPJFC9oL+osYb6Qjc51yAO8g1G8SADju0FCuFjSmGTVN13Bm4J0TBPQErVUiWy1DUNVIbl3omQXAHZ6fuIv2algC4L2FA9SrlyNrA3btqBSFNJhHdcuCVeSKF7Hl9E1MTbEfgPu4C3Ie4aatKGbgn4NmpfeEGd29dEtyBp9OjYi8uQVEg2C2CJLhPg19e0iusEgD3MQyoXilpcO9Fg/snRmAmkx/dk/fKfC+E7AV9qifWjsAdcJpGn5w6wg3u5dqsMl4TlH3mQw7utaLg3gkajewNTgqs3qA6cG8FgztpfdXwg/s5VP3DnpIGd28NC+6Tnslk8nFOeFHeK/NUhtjf6GLkwb3NBbjv44bKWnXgDu5ik5SLMAu4Z0TBHdbZKkN1tVLMgrVOEFCgq0owOTUOBnfSjmbhB3dUbiptxyF94N6PruTebQhmMvnRA3GvzFMhZM9rU1GoHYF70gW41zFDJZQ05MpBeu1Q9qEpgQIEd4ZC9gOi4A50cVB5ZYrd5FC0zwKWTc8KfpvAZWVGDNy3C5Wbuoc0QUAfuK9WWHaqySSiLXGvzFMZZH+t58/vG7gfLUVwBxYTl2vAhCgrMxdycId5gqjeKaCLg6gfbYfEBmFeH7iXQV/evZSjhh/cL7nDVH3g7h3Egvt1AzCTyZceSHtlhJA9r680tdtzBO7LLsC9lRnc64CcMSi3vH2y3SfdgXtKFNzTMGfOLpoHLXYYPkBhyUnClq5c8NsEvi6aMHDfpm5MCcQx2h8jheCO9soozTg2mdRrS9orI4PsBd3VFGlH4D6vFtwDGNChxRdb5ZYXupfItYcc3MtFwR16GEyTOdAucVsCLL7YJPhtSkJf3j7KUUMP7pgHoC0GqRLcj2HB/YTxl8nkT5uyXpn/yiB7Xv+JaQq0I3AflfMj/65BZnAfAnLGPrnlBfeNbwg5uDfLgnsbEHMpzsITKYkbHGDzsFrBb9Mo9OWdNnDfJpTF/XTJg7s3iQT3JcMvk8mftmS9Mj9JEPsb3VQVaEfgPl2K4L7XhSW3CPStA+dEE2134J6VBXfoHo2iymaxW5Mpkic6C3wiwWMHaJDpCuaXBLh/jHiAhy2uIHlWLB5nkOC+ZvhlMvnUpqhX5kcRZC/osiaLuytw73MB7vXM4D7h4ma/iMojAu5VsuAeB1b+bE4HH6vY6T5NMUSooVywlumggbsPoSzu1LYQjeC+YIXcTSYh3Rb1yvwigux5faYrzo7AfcIFuFczgwm01eMRVetbGlYZYXD3puQ2aVmJA3evQV9mNbjvr1lltuk8BlKvRQDcZ5Dgvmj0ZTL51aakV+ZXCWQv6JaBuytwB3V1D+BKhnpy2wTXFwqYYU9OrREGd2D1xFw2sLWkTuTA3WvUl6AB9nk5qyqzovCH8wRi/sPUt78awT0xiwP3Cs9kMvnUbUmvzCsJZM/rkbIwG7jLg/uc4Po2iM4JCO719M9ZJgzu1buAgV1mXkGq/yZQcBdM0AB3YHJWx10huCeGEfM/TD26RnD31pBH7mnPZDL51ANBr8wrAWQv6KKBOxDcG8gHrWQGd2jR9EbB9QUWC8mNRwLcd9MNWAMM7EDAPrmVO7vpM1S3F1CP+6jgy5sFzmnIwP2tejGIOhMJcMdmp3YbfJlMfnVR0CvzMz+xF7SpLcrFwb0qWuAewNoArSpTJri+0FrYXSEH9ylpcD8iVCG/yDhHqZ4HWlUmKfjyQjdHIwbub4UpBnmSfHSV4L4HCe49Bl8mk299JueVecmP7AVtGbhDGZce3OPM4A4tX9csuL7LojzmDtx3S4N7JbCuTG5XIKyM7VwWqIqsOiP0auas4MsLTdCooxw05OB+CjH9A+QFzlSC+3U7cTeZpJS4/C8xr8xLfmTP62t1UTZw/4MCGByB2JqrFSwICk2ipKl04w7cO6XBHZw9kEsFMcvsvPFap2vCC+ycShpCmkUlrnRzPtTgjukTukhPqJMaU0CvIZNTE57JZPKtm2JemWfsyF7QfQN37eAe4KtdB0W5Drn1hfruaWrLRwncodu0XG7K/zsVT/Fmvv4uqKcqK/hxgu6NSGvLhxvcVxCzP04/vEpwP4cD9w0jL5PJvxKxL6W8Mk/YkV3pgbticG8nH5Qb3FtzLq72Awea0CbsDtwb5Y+Lq8Dk7v86I8m1I/g/HYUm2wp+nOZgU1onPSI9HWpwn0ScLB9zOrzcuXY3DtzHDL1MpiC6K+WV+Z4b2Qu6beCuHtwD/H1wp0fB1qlQ3z2N5yJS4D4BBvd1v2VPBnc00pdTnjSDk20FW6cCffdNpIPecFlOMagwrpD9DOMjalG2yEUFV8h92MDLZAqixGMhr8xTbmTXWVLGwJ0U3Kuh7CNYmWMEOCWaqoKRAvcE/Mg94++OJb1jWZXaVsqnGVV4XQT03dO6d0IN7pjuS4ciA+5jKHA/ZeBlMgXSF0Jemae8xP78u7y2FEbYEbgPlSK4x6DsI1jIHerEjkmOVhrgjjhyzzX5yp9MyvULhT+MYCH3NhflVa+EGNxbFh3z6ZjK2i2TKHBfM+4ymYLpcxmvDDey5/VIY4CzBu7vuhqCDJABsk+NOnAnchuMRArcEUfuuXIfz1y3zl8HCL3Dy7WpA3faffAVt+mdYnNfiA64n0KB+37PZDIF0m0Zrwwzshd00cAdA+70BaMh4P5RkAHKoQl+colZwEo3RIsMBPdB+ueEgfsUMezugpN7Cm1sqU9J8jM4QaNT7uOUdLGVuB5icD+IcHK3cHyEHqpsc3QSBe7aFtVkCp0S90S8MszIntc9lQFujhC4x7hP3KGdHjmOnIMdpDaKLSsTuDe4AHdwu9H8bm0v7m9XN/N3ut2mSuhzCLYPA56405p3QgzuvZjmSywzWFQJ7msocO837DKZAuryCwGvzE+8yF7QLZXxLXcD7nu1gnttkAF2Q+FnQmx9gSjdJTpayYB7ZROC3HNJzBlnvSy3ewloJ1jBsjLA5NQR0kEXEIx3QtfH/AzmwJ1lBhsIcJe7dsSduN8w6jKZgv6e3BXwyvzIi+x5faozvgbuhOA+B2UfOZ8wsI77vOhoJQPu3jQG3HNl8No9rSnpskTN0KfYJ/byzrm4vwovuK/OOna4o8B9VS4wOI97r1GXyRSY3D/n98r8worsBcV1hjflBtwnShLcoU1sBPvGT4geWk5EDdzBzT3f2GWOpIGBHFjn32a9qzL+dlJYtTvov4QC9zOqvuWIrqmTTMUYEVuHC3KBwVWVEbwKMJlKVvf5vTK/chJ7QX9VGl294D7nBNwzQQboA1cHFFtf4JFwtdiylhi4x7Mocs9VQXoxVe6YapvhMVq1Qx9BrpgpbFFpy7h7B8IK7i2Iki7XmeaAAPdzcpEZxnD7oiGXyUSgB+xemVecyJ7XVzGl2/gmN+De5wLc49zgXgfmN7Hs1FHRjURf5MDda63FkXuubKjIp6CybWDH5NBWnjclCX2AcrGPU6OLjQQG3K9q+pT3V8BruHP9GlWoBPcNDLgfNOIymQh06wW3V+ZnRmQv6G9agztg4P6umSHIAODKHLlpqfWFdbKnamEDPN9nQE9n4I60ueePiJc7PvznBrt2/i85xZUbCr4uynVIvbywZO+jxPyLgLxPFH3JMQfup7kmgQD3Y3KRqcCAu7puuCZTOHWT2yvzkhHZ8/pabWwzbsB92gW4V3KDO8B4xGbg/4BgtvsuuWV1Cu5l7kL8ri176sh771yq54s5zcfTXG9KK3j2YjWRpkDTGaIdNKzgjpj3EtccEt9qBPdVKypjMskr/ZjZK/OMD9kL2lIb21o34A5wcIyHENzBCX5ZqfVNil4AwIw5ubqSAndvPOdHzY1HRralFiTqp+eKdmLNMN7UxMEzn5N6ectcXABgwP2Ong854sB9doZtEirBfQYF7hc8k8lEofvMXpl/8CG74t5LeX0UIXDvYAd3eEOeaqH1hZXCpjKdz0cS3BONOb+qba7Z3dnQ3jmVhVjla1hTI8rV7TqrILNJEQ+6BwF5+/V8yBH7jRW2fCsMuM+IheY8htuHCQbsuXb9wJ6Vw3v6Fw7ZNsAUYd3j9co8YUP2vL6J641szsCdME1zHkxsUiZ30FYiQ+W/iCa4e+mGnIDWk2nWV2W3ul0naCtBXVo1nODe8xCOpt1ss+hWCe6YdOOgS9pybWXp7VK89tZvXFo51OKZTFFU7EtWr8y/mYj9je7qDWzCEbjPuwD3anZwh5eVaRBa4E7RnE1YKixHC592l+DuJcb5ub25jvlVaVO368xAJrNs4P6bjqswcaPAXazO2mEMuB8I8hn40/H37p9m75w2djdFUV+wemX+yYXshVKQab1xjRm4U168x9eh7JMS+tkC2YTJ6nIsRxTcvUSS+7i9i/3abi94Mo1qPk4Mmc6INkZ8WZ5YzcyqmHOPygal+xGzqvDvbenuf1svfuPk0p0zZ+4sXXqbeDDc3+2ZTJHTJqdX5jtW3Vcc1rgjcAcczXaRD1rP75iFt+Opk1ngrOhcgAVWRuif0zG4e15fhpPbywb5X5Vq8GwGYiLvLmhCTdQ74FCC+0HwlDfOMR4Z6AT3U4hZrfnG9pXCYfvsx4fP/wb/iTdR7unt37+Y/4eHK4bupsjp8gtGrwwrtz/SHFZX4L5couAObj/J8Hjv1QCEw8iuhCIM7l5rMxu2p/pE3hVwMVOOBXyPQMazTupRMcaKg0o+46fhU17gnMeqRnBvQbRz/XbF7woUTttP9q/+8V8SXsuhq/kWUMMLnskUMd1l9Mqwgvv/2DuTrriOK443TTdPiBkhEGOrmRuExDzPYhBYCIMEQgJhWUPiKHIiOx6yyLE/Bm+XZRY5LLLKxgudON5lkV2OP4ROLzRLx066aZ1Yop949zb33qrHq/+Sg1T1br1X/OrWHW7qbNWwInAfO6Lg3gVmH5nSHKAaf3TpfcCAkXb6B1UP7oFwLQ+2n64USm6Hz79PZD79kKkMU4864T1wj3RockewjLDdqpR1Gm3248T63J6zfe19CbdWtH4vaGZu3YCckb9U/YArVubhz4zYvvsrra1aowjcC1WAe4wf3GNwHotJrC9oPguSy3p0wT1xbGulx/b8OrFGpQvgSQUtbeZD/hlhwH1Fj118Cjzh+7zlCTHg3iNlHUxRmcyKQfYkqTy0tnTg4ao+6XXv7gkYGflKH7LFyjxjBPdv9DZqjSLXcKWu4B485BjwcINKifVth8ykSHJZk2pQBe553J9TKTG2n6g6LrcZwGsicaQXpwtSqod+d1pEcN6GFpt4Twg84Su8M1lC2O6ClHkwC5pRifv6pP3nXW8Qlu8m8b7ekJyRv/QVT6zMwx9fMYL7Hb1telwRuNepAPcKAXCHhxuclFhfSGF1wisVv4N7INAfJMT2ssrjkptBNfzC4KLEfCDfEv0usSaRykipyAB4vpvMUxlH2O6GlH0GEDVllvD/vZVMighNQOo93kimqU5YASMjP+kBT6zMw1d8pSBvaf6VFikC9z4VHmkJcIe3YBKpKwNxWhaKnseS6lcF7rn8Fs8eo4qXye3KFt494KfOMom6Mk1KPqJNBHzO67CHw2N7OqIagft1IfNgbgEyyACwkge92QsW6FMdSRa42dS4PLSREb1u/sASK/OvF3wl3LM1N2mRIs/w5FEF96IdrbyWkG6YhFHCBtwTCvflE2SklrbJ7waIU2c//2wsgBkZgu0xVb8HNNjCL4EDZUbZC7mMIGwnVWJlhjd8J3ls6gYbNrqS+PU143M38pXu8dSVec1Xwl33TzSmCNwvqgB3SAzvoZ8WXhSwVaBYyEnZGxVgA1GG6obFGpXyCdRUlh2u29KprhwVuwHi1Dmox2wm6YedY89lJNXSfY1QGVPA5ZyQgRAHsQ78n+tk1f8BRIBNJPl69RqUM/KVbnPEynz/2Jcl3JWCe9WRBfc+OPx0sS8vpJMrpZ0nYQ8+dMTBPWH44Yxj3fMHu8KqtgNEKXr+6HtIJ1eGcLNOBHx2K9/Ay1fAk13kn81VhO1aZAwUQVRxxyeO3gglcP8Xbl/rfFt3F3uvjzsu2PWAkZGPdPlLjliZ57s83P5tjvYGBURHG/bfAAAgAElEQVSPBDnGLT2y4H4Wzj78qZIFwgR2UXNwPyn3ZVntpRlEzDT1tavcNOrgM+UvilSo5iC2goDPWeUbOLxd1HmBxp2rNiclZ6Qb8Bndj2A97kuziX/1VvF2hzzYjvp9tduj87a9PWJYzshP+pwhVubPT8iLt6f0R/3tWaAI3GtVkEGbBNpVI6Ik2NNTp4VjHqqUXTVoB+4JhafzMJ72vMmhGv23g/+np7IfMAB7xALDsBsI+BxVvX/fAAe4318SmE6PQI9SpO4yHiWqE+9K6O3K7I4FbEb3BQWNJ2h/vjxgZOQj/ZYhVuYJObLv6TMPmLPNgDu1D68KDj+13MsL8ICTZhkWaw7uQenvaxg2rayLXRU61Jqw4G0I+AO93IONtjgOOvMI+Awp5q/GbfARY1Ui3eoSwnYygd5ReKRMN/pK4tz+88d7Kk9uvmv7K3LHFiMjPZT9BX2szFNqZN/Tt9keMCcgsKOEY1xAtZNCFQ9LAO4NcPbZKmJe3lzhun7A/kPTvgH3g1YgvyR3sLRvoSGm0UYxCX95m5hJMKzo4Iso+23balvYL3eATxgyUdUXEKabEplRC2PQ/fqsbW9UQ96dfYeUtcRBatywnJGf9DF9rMxTYmRP6TdesGaDInDPUuFxlwH3bESsDHNFSEBuKm0Dm1rNwb1E/ANzmlewr6uhrUjLBBhErAxHG6231e8+g3aOcbsx4K40Vrl8Q7eA8isI021KTMgaYHS4LyYORCNWGrjXR1NaH1+dOZNy+IeuphH/GYNyRn6S9RVxrMy//xMnRvY9feIJa/Yrgp08FeDeLlN3BOG1zOetzeH+wCdoJzAIe+xh/4B7usc9r0HnGrGIujLMRfHdyzPlshhyFgPuV1X+JbyrmXc7ELjO2+wIL8QVAPpOYmk0rQ3qQJrnfjlVjXIfprckWL4xYGTkI1XfzjRW5u/OsTLP4n/dpUT2PX2d7QljNgOy0GR4RhNwJ6ARjNdyknV1K13HL6YdMAv21Aw5hTBwL5P+vsbSvO39em8Ihdq43N3P9kMs445iwP2CupWypuCMLBWKj2l2tCIxIXiJoE4LewycsO3tfa1o08E9UL3XFyD0bmpweYdxuRv5TcmakCiX+8GxMn97Fv+JEtlT+tgbtuxSBDsAx14d+aANQm7EJl1c7q7scywmPGBKY6rAvVX268pJi/kvDWu+IRQdQ7jcOa8Owq5hXkEW30g5htvFugg5CF4I8lpEak6IiHL7vMB84Mmy+JjzZNrr/gRbB3APjITS/fnWuWSUjUE5I1/p04PB/R+oWJnvH76Iv/yOENn3dMsjppxWBDtBFeDeLwTuwwivZbFS9jlFPGIu7KHp846B4H5a9OOKpZ3g6vRvdn4K8fIOMc7D/S5wmGXcKArcJ5StUz2c26MaTkqm6+w1xuKUCfYeXQeAe2oS+4KVIt2mf6qR73SLNFbmdfwlIbLv6Ztqj1hyWBG4l6kA92YhcA+fRsBPBd/iDrkO3kY8IvCugaF5Dwzc8wU/LWs4X+CmgVyIokhMPm/ggjIVkl9GgfuKqmWC+7bPy3E74hbAtrf5pwPPlc2grvqKQ36tI7hPOUX0TyROLlbAyMhPqv4dZazM4/iz3V0qZE/pplcsOabIS9nqPm6fApAl6mZ6EQE/WXyL61qccZB6RGBqY5+CZ03V35T7sorS4/1rvfCX2kKkpzKeRNwryjONPY4C921FSwp3bc9HBac4gbEde0eoCLha5ig+yXgpZNuXQOD+gdMJrzHxsx5Dckb+0s0vCWNlnsdf7VIRe0p/8IwhCxV5KU+ooLsuKXCvwHS5b+Za25xWcW9/EPbIk0ce3B3c7TtlYU9sCWOId/c0W4rGWUXefmsEBe62mtogcM/2vGil+UWtEnvhVmrB/+cztt1dDgF3a+9yZN7hV02sjJHf9ClhrMyT+IvvqJDdMy1T36hODexUK6E7MXCHlkVMlSjk4jnXkP4q8iGBjTcZytcDWz8JfVYVeaLuaVKFWxEvL1vvX9dLK674+qs4cK9XsELWhKbcHriLMR1389BGcH2gOQt/K7Fp22sBCLinPO4b+391yravGY4z8pmsj+hiZZ7G/0uF7N4KcA/Aao4zXLXmKKG7aTFwb8O43PuY1tatGxJDRRsg8xUrA3eRsIFwn2NW8HGP7AmVmJeXqSSkaxcztoo2F2zdg9zLN+Gzi8pOrRNjug1mM82D02QzsVKHbc/AwH3CsWr9FdsORQNGRv5S9W2yWJl4/PEupT70ELhXAf42MySB1SgB92ExcIfWReRJEX1j43z5FNEt2AOXKgN3iXalzc73Die9sie4vjjvRKzw3Be53had5Xr6GRy4h8Rb10fhtcnnIsJzG0CZjvc2AHwtEVrN4H9P5jCPw8B9w7H80Hrih6sBIyOfqfwLqliZePw5Jbff81KyOIR3GP40FwGGpQ/kGJMDd0xtjp2TLDjp9rRB+lGz1QVYAMGdP8w8liWfhUysPszLW8wyhSz5o98b1ePAnT3gY79G4HC8Vi795qC6zjp4rAkFryiTUS3+VceyOE7gvjzq3Je1m9kARkZa6g5RrMzP8fgTQm7/LNtLRoRUba6hH7ZCW3CnwiuUy50h5jtgBeWDHMLA5z1FPzQQ3GuYv6ecuhM7ngf3Gkw50x2OVrAxtxK1fOs4gQT3Dlk6vnQfXmNe3IMU0SfMqHEbOovMUkRnHEPUncB9rxrkaPrtworKLgBGRsp0jyRW5i/P4vGndNz+tae4HdSjniE2t00JuBcKgjsqyp0DfhoU+CyLgI/LwLC1sJGLeD+n/gNOS03e2RVQUe5lDDZ1S73p4nv2TSS4O/hS+WR9EAIHgLTIvzfjSNPx9Q5dBleC3MzseNPrUMXdCdxTNWXsM+m/u+j4UyOjI69fk8TKvIrH44QB7t4yIcQxHKMftl3JHXylJFNiOlDutBZJryyLzzIGfNw8+qGB4B7j/JhiBxYTavVOCF24DPPy5pH7Ko67RNlnMZpyAwvu83LrGp0Dz2pWRZHwVaTp2DzO0fPQKXRmeGEy5eiq3w/ukSuphITQiOWE/p2G4Yx8qOoHFLEyrynB/XOPmRDS6pKht2ezEnCvkwT3ii0M/ORSB5y3q/BZFqgDd+A5ibFPbU6dy4oXeGdbWEDdF5GXRXIJss/nPH51Y8E9sxjpjLgY7Ea2B8ZVvDbIxF57dJlnHpFr7G1lNx2zG/bAfaDzjTY6QgckQtSz19UxMtJTl39PECvzOB5/RMXtn3jNgkE1sAOpqE4fyyEK7qBKm289La3fzspTUX/7LPSYQj80sHI+Hzw3u35Kld7ZFrKbUC8v8SnQzeE+zfjkkRAa3GdlaqWX98KnNqem0GCvrYXLPQq+NTmf8dKdceza9J7E4UWnzf2cQ1cmIyNf6M4Ph46V+fF5Atx/ouH2P3nOgCVqYGdBCbhDqmUMko0WLkHBTyHpow4pKeIHraXDEO6dBRu5jek7igHGL8nxzr5wFvXunqAtzlisqOlTUo02XnMSwTKN4LLkdqhXUUHiM1jLjS4xzGIdHCdzLfPzzZzjTYsjuI86X8nMJM4NhuCM/KnPDx8r8yT+6NHLf5Ikpl72nP0g8RwMJZMhaaL0f5+rRMHdDZ45W0HmHHxo2CrgQY1m4KMG6YcGVvHhKf+dXQmKi6rz0MZQinp3yyiDVwqOqTh0/uIHxYu/d32kF9wG1O6+pCqbYh5tOYb0zMYOAW5P9ohtsSDg3j2x7tyXtUVJ9y4jIy300aFjZZ4+ij96ReJwv+M564Hq97XTj1unBNxPyYK7lYWCny3C+owudwtjTK9TF/BRS+iHBsZ2cNQuDLT9j70raWokucISEhRaEEKgjUWAhIQkFjU0AiGpkQA1+zJgdgRtTw9e2j0z4W3sg8PzM6r+gc++c7L9A3ztqw/ERBAKDu3pbQ62SsLdTSOVcnmpoob8oi+tCJSZr1KV33v5vfdQhSVD2nkzdIexNm8bXHa1waQc3WebKnBMQtwl1hVcltDV7dLWulp7ph9fZiTtQE8ih+zhHNDoiXara9yfj0yNFP+VkyViVZ0of4V2qhwc9wW/ptXKXF0VCv89h+i8pD3jIZUBYVDwu1MV4m6pL3HXtWLVwxatYOHgGrUoPaxu0m2oAVr4oRvqf61xjaZsM+oT7otq59WAeV/kBKtSVKP20zLbZY8QEXdplmU19xSGBMU44VJtyywRGG4cVo3vWkEP9lO1lc1UFOh/XFVmr+RBLCh9wzGnbxz3FcJXdFqZf8nE/SU9bT//pQaNN6pSlBIl9g3fpcdZ71HnRFWYe6PyQoPMtAaoLTet8EMjBojh8xrdDThPeFo774YeTOYO1O6hJV/n7g43sC8Rgl2ce3MWI5A9vqHijsmQGO4BpKMxMI+eF0unJ/JXlPncKAc5Wy4EWe0bhuvfdZeD4+7gp19TaWVeXRWuCgCtU59q0XZJFWpGyDCpUTPQ0F5v4i4kMJk7yOWG0FP3hjnXQBZGg6dpNiEODC4SasG7VRF7zFp5N3R34K2sAWRfdSv7QXrG/e1mSYm79PiIibJ8D0PcXuSSeypuGGGK7LICbAK9GWQXJ01bw/NEkqZqEPeZ0mx2q33DoiQdaae1AwcHNL6g0cq8eHdVKBToW6f+xaBF06FIVoDrnZSAwgmc0IMi6YJgKxWa8SrLiO0QEVllwYqVoVzDhLrOVlWeLYOSjAaniAlrtlUjL4dAMyZzB6gb26WcF+JsZLvk/lOJHA8GwOeznsGh7emcqvvlIaHdoOLOGIkA9O2pUkVzu5SJezlfolrhHFfxye5z8sZxj/EljVbmB5m4U3ZgOj//tlGTlkNiWvB1GVuRBMHQSuxJpBRR2I6io7i8zksdhJlurrfK+z2LtaKuEry4C2ohyjWVxv0YzYmxbk28HXyYCwtTJ98KypUgwxHGIcoViQbGsxTobPZ3sbI9D1PqbpcHpHabhXiq2xjDL9JbSubd2zWI+4BRoVb9fpHT9+o4OO4vhGfkWpkXLwsyc/8nMWUv4wtNGq4VLZIGPi4ShQavH9+phpjCi0vrHJQykkBetdw+N/Iik9BDo7b6hG79ZBOJ0GzKTrvvfFn3LgvmsvK0zzWubm7vtlGig3EBrBRjb2wea+i036XubsmRm22YOkP1IY7XsAJhqa1KVwU3ibtc7L34YCrLl3jjVA7O3D8n18q8lnl74S0pYy/jdzpNqtUeoZ3H4B3G7Sq0JNIJaLIV4DY5uDJ3UQxSmTuUr7fsicRJsUMPjZxJGVHlF1TFI7b0ZL3J6UBL5I7e1+EqvSjdTiFbp6pLVTDwWKLHyASAYsa1dJzG1OnMqLxX9tMURnseo+HSrp0tjLFOj0DWu1qpDPsnxP2hghToQT3K/3Nw3G3m/gtircx/ZN5+8Y6UspfwRJtWQxXoQjeOMYTVoNCoqgZgGXRjEJf89FGoWZab6yrxvgn0lbZB+7nIDDOrU2VT1QzBdzgtCYdM44daWu8OjW+x4i7ESX5P1qTsfVlZV8HfhuDtMqZWB2j2d//JLu5MHsfUDhydpOlsNu4nzasdyDzHGWgexsMRtiXJuFmDuOsOS15JJUXMnlGSHuo4OO43up6SamXkapCXly/PySh7Cb/RZrwdWV8Q7lZnXFhZB+q9fx74Qr61A5vGeQgNbuhUs3XnJMYKgYOnUXQ1B2zI3SyyQL5I4z32uG0s0GJWN+l9shl77l7CGbcq/0DbA2xXilGSBIWHnsWIdNSuff8WNgU2Hm+qfJKkzuhNlj7LYXN3YcCP1601PeECOquF8Qp9tz4l7idV23MNFvdIl46D457jJ18RamVKSpnCazLKXsJTjZosgtwc0Q4bg0ZlslZIlXsSPRwMLKeIYoctxY4xkuPFbBFVjLdjFVjRw46NUXM8Aetkd4is0RHUO7JFDu9WhcMTiPhNRJ7vaEcdKqVWp+2DIxI0xodXT2bQd5swczKxRRK3nt9W9xxxLS1A+TyHmVwKmc5u5o7HcU0FWPgnI0mLQg3iXq6QOVJBBzRfNWuVg+NeMfffE2ll/laQA+6XV0SUvYQ/G7RpsG4MogWZTGjQo1NoOOY+msfQHgOnxQba8dmPBX8OIWXq05xkei8kOLDWB9ocAKt2jx20knqnWEd0BD3ZR6GouZ4XfHGCeeKb2OBV/n2GW1iuMTUxLjHC6cGK/2h7U/GJ7aVO/CtbhJUox9VVyaznhk9hLZY+PJvIba8rVVxxzexMLOA/svQqaLOn4jdu1CDuulhp4Nuqeln9PqDj4OD47GsCrcxfX5UC7peXJJS9hD82adNcLTgB0mY45t6E05HROgZ0Ko3lcYhH3gsrDgqRqJ4deIF/c41utO0hptupCZPB5gHFMphipHYHIAsMiCog70zE50br08pJIHFNwj48nX60RnpEQ4Td+lKDh0aJNdIjhwvHmdXB2NHOzsMilnZ2YrFBf+Z4YXGcZvR0pl+9I2TzaGWKibVKFjmd2hrenV31x2Ky0TaKRjvZycX8meEDQosdAJfLPLidnnqLuLtK7sWtyLycmrrFKRsHh8zc/0CglXlTjrhfvj3HpuwlfKtN3t5ow9RvOICobAtmrqZlCIC6R3qwqZEDNMQ3RpSw6EDvaNNkq6F76mOb2hfFTsHN24AknsJYGNu0pmUoz8zQJqqGsMmejDJ//2Bepfx/bhi+b2utKlNBNj2rXKkT//BzSbswrqyrE24XZpZWz6Y0Zatx8DalS9Kt/NJbxF2u+ljEUoWA+wZnbBwcMn6Fr5V58bIccL98g8vYr/GZFg3l9uFznT4fPdcRoj34FCA4R8lNovY8CfUwPQIMaY6RUTP9JJIOq2m5VswZoqtldS8wZCFZXMMcAOk0P3KSBa09MF2QBJuoLvJBe9LN9G3RZSeaWLsdzfc1r9VSkiWAy+y4ZrZzqysPpoySpgHd76m23TZT2yexouUW01qzVXoCvtmRsChJi64axL3ci/eT6Lqr+Jfz2ixowcEBjz/ha2VelwPuly/PifAzzf38ukPZBkKKoE/SRL7Mk3HSgU3ZECGJNkS9QXJSFMwGoDhDqJ1sCh3ZmvQnkq3phukbWe3T1lDckhcJF2dNJN00cffInJ6G81q8Ufr8lG6rqD7a7CGGzVhr1FdX+P3Yar0whKGeml61F3jvxk6lHwGMC/XWSG+OaNZYw0yq3G8Uv9lfg7jrJkoT2L/x2aDEa0FycHw4Bp5ha2W+L0fcL74n4u1fass+kTG7k5IheGxD+By6cfRRD62koMGRdGOe4JGkp486oGmJT4M0Wh8iJnhtnZPV3Qe3DSHa7WNSeKxx1OahF4r06X2hCD5/bh165AGo6NJuWhtz07H3uHgX0Cxa5pipZgQv8bxMvurOkWEUwZXvmwRezJLxx0Dbj+ue2ihsadVYW9tswhbCsCSlB2oQ983S7cTwxx+lih+dcbbGwfEeP8fVylyVAu4XF5ckvP23mrGLwT3tS0DJccP6teQoWii6KxKCG1cMJ2wBNLehSCp74NTHYX182k0bnG2hmU+wcy7aeNsdcqDcYfSBp6Wah5Jr+gZA2pk39cSXkQoeCubotM1uCkOSXqvJbgu5SWlvY4d4R9C3xiyHcy5PYV6L77Z1zQGvB+UhOqGXtPdY+7Q9PatCn9ScRo11yE5Mvl5k4FO9ysRdt1JytD5SNfUuStLpOudqHBwfzvVv8LQy/7gOuF9cvMXn7c80YRJzwOYI5uFpQps+PteiyJ2XO00MdAQdRRatdJoL0WWHkwEtag86bFTKGbOJduWmhN3ns9lsvninB5m7WoAz+5r0fQy5Z4NFiUDbnHl2YzfMEZJa8c4g72BF3UcpXaXmBotnzeeVN2/WngiivhfWwG8RZjVP28dX91Q4RvrHNWmsxROGYlZBdmbOBGXinird8Ox++KPjigUiOTjuNZ5gaWVeFa4j7t+9webt32jCHmwDggrnaoLhsA1KkW2W66Vq5trUowKVs0HLZJYZz1jhfsCcZzqyicwgXRbxDqGTkdg94qz/Wtrguy6ltC6U2TpyCWokVvk1GW0/YWwqmYTPKhN33XDpkuR9iF0Wva9wnsbBcROfY2hlXrwr15S5uPj3a1ze/kQb5hhjerRWD7mbmY5rVolY+ugiNMv5OlMfJ3zjmgTjKfvUi20TqqFaw3eJuYeTbFqpNznqvRIPAx9E2wH301m1uvb0ajDgfrDE3iyLNxJU9+Ua/Z+qYDblDzc2r/8nJ6bO9+o4ODg+Ye5/R9fK/HAdcL/4roDL2wVtFJSxMz1bq1cHn1bJYdBl7y5xx2x7RS/e9sHnKwp9jCfdU31s1tSRVGcSEO8ULGzKnuvG6lpAp22awRL6NVxRxriVU6/b0iBP362IUqmdzP/YO7efNrI7jtvj2MPY8TUY37ABA8bg4uAABsLdkHAzyYaFTTZBySobNpemSdtU20qtWm2lSpX2qQ8Vj03zWu3zvuxT/4K+VkQguyhCimgeQi67q932jA3BJuNhjH3mknw/DygJhOP5zZk53/M73/M7+1KAFZAFbME/8gsXnech0gA4+Jjobkr3yrzaTbhvbW398C7m23U6juroWnotO0S1XZFzN6keQm+r9HYYHfJJHxcNAWem/an1SvXl1dWOowYlpC7l3pig8y5p5+S7BBuVGjknNSvb+8KK7mec0tg+gB6ZosUO8pudl+qk/XQdv1P17qAOAPA2t/4p1Suz8/Tpdl64Z8syuV8LaCUWdGtelM64BxVql25atgpZwGZGHuljsVLpTx3UP3fptmmfUnrk02XZoLqU+6rfQOXmB4blSbrXOMx03oYaLWnYOdqi7CiyoK2lict18oVmkM+5fyypzM/8JX5OMYijlwAQHEdvSfXKPNvedcpsZXfK8sloJhR0XdWlM990rdAiudGgMtdbRtI9LYP0aY1Q6qJJBYX7slqFu87QrzLlbqG1R1WOnbheWkfBfqTFralTPS2KDyOzGprkzMlcK3OE35J6VUKdmEU+Od83D90OQAmuS/PK/GvfKZPdehd1u86glLmA7gAvMrJ71eiCLsZKW/1wSWo9dIC2ausv3TbtpjsqeM68KlPubkpGd3aA8rpHTdBD7W2ouVrkxy6FR1Qw2AS0sjX11PiC/OH66CzfdNchDpjBLv6nzjbpAAAlRhf2uiSvzMu9YpBb2Wz223fO385HYlUhAU1Xm5oVEu5VMt6yAzT9MpZmih2KetXyoFJ9WXQ6eLhyd6hMuTO0SrqbfDT9MtQq0fMsacvWPj6tEpmnDadM5+iCMpMcNsyv5AzNiqT6R8b5E1SPhZFuB0DsWbr+dwlemddP3zhlstnnEnX7Z5oKRM2qMkJWT3Xrmsj7j6aAcldP/QzT2nwQjFPtT9SF+1jptmlbZSozVttq1KXcnXZafcDsP0HnI0fH2ql23j7tGD6uTKrocM0eDfjaw4OscoXeLk7kPsRKt+AnYBeu5DxaH7foAABiwj1w7XCvzN+e7ztlspkn76Jup7s5tVahxLfYUTk0y0G6qpm4HKbgOagN2Sn3J+pWmRmF+vLq6vEKx/3mWnUpd3c9tV5gT1OYRLWeNtHtuw2asLgPXRpdVFnBwLMqD1jPuSaWVbQ+M3vyzG7Wv/tAkfaG7tHO3LfunkS6HYBDH6XPD/fK7BQ4ZbIZSV6ZBxoLA6eQgKa6A9MhcsE+iu0OV/XWmGaqXNWdSxio9yfqm1OTpdumXAS/teJMtF5dyt1CUQibe6t77NQy5ZUinhHVa/aJpbYFFZ7Oo16L+1DXnEoC1hDejdLQhfG26ZbB+fnBlum28QtDu+77ME5dAkAKdw71yjwrcMpkNqV4ZW5rLQhUM98ih+VQPcA0pVOm4WprCzbmrZq/wtnrkaM/US8HKbJkQFkXV76ewqZUdYhqVVeI3p53pqqXFOCGzfS7LtuiZm9M1+jlljqVDiKqXKk40zU6qaqI1U1eOFby7CzIdgAkvqgfHOaVKXDKZDOZw+vK/GOR1dpyl42mMBDJQMcUEnc0j7E8TiGDafdVI4/c6IjL1DFpH8DkFGnbT7fpmWqEx6Eqp3uK8izOX42JChPyyNN3VSnc715aCi+2NKh6XFFZxn1oaiU8Pa8+vcHq5sNdQ28vCoRHdHDJACCZX4p6ZR6+LHDKZAjfHaLb/3hDe8+ftbQMjTIMx3F6fX8wGHT59yF/DeoJ5Jucm3GKjM0iZ/yYKJae0JepLJejtQzDtHKchVxVMI//II78ZVu4VoaJLpe7wFABAetYZeboxmDEJFt/YikfwSOWJB6m23R15KNVTX6Z47QlsSEZrKxDONNx2V6qdZcmCH2dfZ2dp84QFEwkHzs1dXZ8brJ7kM/Eqn5UOTkx0VXMRI6pThJL+QJ5rLNrae7yxfOqjlXdxbbxrr67RL8PnerrGm9bqNMBAMritqhX5vV2gVMmk9l8Jq7bf2/UYgj0Ocmq13td/t6Q7XQq0hyzeuz15VwLazTbPdZYcyRx2uYLEYnbT0Q90bcWsf/kZ3bnBfq8TA6FQjbbTCoViSRjsQ6rtd1OMPLkm9jHTL7RbiXEYrFkZCCVspFWe/kJRT/R1RzDiJ8JarH0u/zkShPJWJy0Un+ku0Yuud0az10xadpFFD2Zw3TQukeBjtBRbQfusZhB1oGfsi5NiiV46e7lrFaE4iqS7hz9XQ+mpP+o26wtNo/i78cmnhGeFsLFbsL0ImHyJKEtTOjhGZ8dn529skL4yb5yzc0BeOVKuComOa+eOdU3caFrZWm8p21y+uLgu1fNu6Gp6fzIyCAJ4bnu7nz4SPDmenpmZ5dWVs7yAZvq7LsrHibB0JEpzpXR8OR0y3ydlta72YAOAHA0Prhf2ivz7+dvnDKZnHDf/EFMt//OoMn1LrbgK6gwjBQxp1zlFndv1A+3yx6IQ9Le0SjD5KdsufUNvZf/0m/h8ss3PNFGsbI4YmsHBnFjRmOu6cM4Nj8AABacSURBVFYuP13Mt6zPt5xr2Bk9LtPO4w7XCbUo92FZOoXH5i3XNOMMJurV8myzhV9ZoR9g3/xBgnhsaCpE+De9J29NVuAl2sBPlAbzk6RzRONf5qdI4ZzKJ8zxcyXyD4vT3S0j53FeEQDvI5/8qrRX5kVhTRleuL/6qrRu/wViCWiL98iYRaIAYlynPQYlPqMxuhqtZdxElgeD/nTIxy/iRGIxfgnFaJSoSgy5JZx4LBlJzdhCaUeQ6Gui6MmlJ0T/X+/q6olo1Mmrc30/37ptJhVJxjr4tqW5hUxFLY/5+cUjd07Su6tqNzLbnCoxy9hl6hesJ+XgJM5XuPSAHU87ODiLYQ9MjJBuAuA9fTd8eK+kV+aAU2Zzc6N0yv0WQglkwd5sc1hEku/L7mAoaVbwiTrCd6rwy2kO5Gz1fzdralWHcnfI2TcMnogvyIls2TjOuWxxEx5yAAAApan7tIRX5seimjKZzczmxk4p3X4HcQSySiB7fGDGN+biXSZuhqllGM7i9YdSsXYD8lCaoFcdwr1GARu5ydOcGA6lg/qcS8npZNycPpj2JeJ29F0AAACHc1PYK/O6sKbMZi7jXiLl/ofbGHAAANIJWFTicvfiXgAAANAYnwt6ZZ4XOGWyvG4nwn1bsJxMPUIIAJCOXTWlZWracTcAAABoC/Zn/xXwyrwoqilDlPsGUe7/E9iWakAEAQDSiajoCNU0bgcAAACtceP+216Z7cLTl/IJ9w0Bs8y1AHwyAADJ1AdF9ha39vtDPhshxDO2d0hAlNqRq41G3BEAAAAag/3k3gGvzKMfi7am7ir39Y2nB3T7bxA8AIB0mkuVgnQ6EoI1PPOZAaPdGoukfGkvV+VSkgncEgAAAJpT7oZPHxZ7Zb4vrimTT7ivr68XVZb59QcIHQBAMqZ0ibOl0h2Sl+4CZmvE5rBUScDrcVMAAABoT7mzN4u9MjuFTpk94b6x/nj9eYG9HSWHAQDSsboFxXNr5Cg7ZUyeRK++crs8NtcDAADQIg+KvDLbBxLum/mEe6Fy/zyAoAEAJKcHhpeFlLM7Wck+GXsyZFmGVwYAAMB7N6reuP/GK/Pw5cGaMntWmceP1559lbPJ4LgQAIB06gWLQNaMVb5wZ4r5LEfevurCnQEAAKBJPvz5Xs59z+KezR+/VJBwJ6xlvv3mm9/CJgMAkE5M0JTOxKs1LUh4TxxJuNciAwEAAECbBG7tZdx39k9fKki4bzzmlfva2n9e/BWDHQBAMoZeQdXsqGI1RtZ4mjuKcscZTAAAADQKe+frnG5/VFhTJpdw38wbZXirDOHP0O0AAMm0C0rq2uZqt2N1le93j+D2AAAA0KhwZ2/c44X7d0U1ZTJ5p8zG+m7Cfe3LJoQKACCVpGDxF85OoSl7ulzHTAj3BwAAgGYx/JQI91dP3q4pk9+a+niNKPcvECYAgNR3ypjwrlATnYU7u6s84d6POwQAAEDDfPb1o8KaMpuZg06ZvyBGAACJmC2CetlGr5xs3F2OcHfjFgEAANAynd8/ETh9aa+mzNqXDQgRAEAazbVCarkxRrNNU28Zwr0R9wgAAICGYb94szU1ky0S7us5p8yfsDMVACDtbeITLLAetdKeLpRxpKoRtwkAAICGqROoKbO+n3DHgakAAEkYvcK1063/Z+/uWtpKtziAj4rGt5jG0apVq4MoVkHoxSm14EF6V5jSu17li3hZaOkb83LmHE4+XKSFScET50scNTYmnTx7bzXJbnZ+P+a6eVgLOv9Zs/bzdP2XH8y7DxKAQZDL/fH3O2WuVmXeqhBwi/RcXOjBb68kvtQ9r1EA9LOjv98pczlxr1Q+Kg+QRGBfpdibEfdo0uS+o1MA9LFc7q/WO2XqA/f6Le5v1AdI4GC8/cegPZpw51aGkwX3Xa0CoK/9+u2dMlcr7q6UAeKN3Avk5I2eHWFhPVFw39MsAPr6X7lHjTtlvnyzKvOb6gCxRocCMXmmh4fYt+MOwAC427zi3nKJ+3t3QQJxCqFLXR739G+Q1STBfUG7AOhvv3zN7fUV90+fv36balMGiLNQDITkuZWenmMyybJMQb8A6G+vWu+UaeT2d0oDxNgLPn+01eOTLCUI7isaBkBfy738X2Pg/uVi4H5cX5VxpwwQY2M6lJGHen2UsfgXVMdHdAyAPvdX850yFwP3T8eVSuXIijsQ6dGPoYxc6v06+f3Y4F7UMQD63R+NO2Vavk214g5E5/ZSMCPP9v40k+NxwX1IywDod6++uVOmvuJ+bOAORNn9MbyUksb9LUNxwf2OngHQ7563XXH/l8IAEfLT39ls+2lccJ/RNAD6Xa7dwL3yQWGAsMliRETeT+NEhbjgvq9rAPR9cP+9MXA/T+7nE/ez4P5WYYCgkamIhDw9lsqZhmOC+wNtA6Dv/acxcf/U+DS18l5dgKDDqIS8mM6ZZqNz+7YPdwDoe7mjljtlLldlXigMELITGZGfpHOomejg/ljbAOh/ay2XuNdzu9sggaCRzciInE9ntv0oOrgv6RsAGfDn14l7feBeOa5UK/6nMhByEP1CaTor7j/ko4P7rr4BkAG/ty7KnE/cP6oKEDC6/V2+UDoZeaqUvpgFgM768KXlEvfzTZl3qgIERA/cy1MpHWvEijsA2ffqbyvu1d9UBQgE5OJ3+hVoKepUTzUOgCx4fpbbv5wP3Osr7udeqwrQ3lbMfemLaR1sPWrxfkXjAMiCtcanqcf1iXu1+kZVgPYWv9fgPv0d7u8AQIf9+c0l7pWqh1OB9kZLMcF9KKWDRe64H2gcANnwy+cvrbm9+kpRgLZirksvlydSOthKxJlKNmUAyIgPFwP3z8dXwf29ogBtHcYF9/mUDlaIONOsvgGQEW9bL3GvVqtHHmAC2pqIC+7bKR1sL+JMO/oGQDYsH12tuFfqE/cjVQHayU3HBfdySmspT8Mn2jSKACArXly8vtQ0cK8+VxSgnUJsbi/vpXOyiB2eJ/oGQFasXQ3cL5P7C0UB2snHB/eUYvLj4IGKY/oGQFbkmi9xP8/tpy8VBWhnNz6430nlYMvbwQM90zYAsuNd87Op58H9JzUB2tmKD+7FVDbK8wbuAAyE3y4n7pXj+oq74A60txEf3MsLaRxsycAdgIHw4XPj9aXqWXI/PV1TE6CdnQTBPZVnSqcM3AEYCG+vLnG/2JQR3IH2HiQI7mncvhi+7WZf0wDIklfnwf1TY1OmenpXTYB2VhIE9zQuhAxuyky5wx2ATDlqbMrUB+6CO9DeyHSC4L7a82MtFwNHKS3oGQCZ8uJ83n6R3Osr7oI7EDCRILiXCr0+VfCb2UMdAyBb1poH7oI7EHYvya7MbI8PlQt9mloc1TEAsuVu86rMqeAOBD1JEtzL+d4e6lHoHBsaBkDWfLp6NfU8uJ8I7kB7O4mCe28/CV3eDBzjZ/0CIHO+tK7KCO5AwNh0ouT+pJdneho4xLwr3AHInnefmgfugjsQtJoouE/38DaXye3AN7J53QIge365HLjXV9xPBHcg5GGi4F7e7Nm0OzcUOMKMZgGQQb8eN15fEtyBKCulZMn9Tq/W3EOfy656egmALPrQ/PqS4A5EGEoW3Mv3e3OcfGDpfsKCOwCZ9KblThnBHQh7kjC49+YD1ULgzdS5gk4BkElvv5m4rykJEDA6nTC4j+/34DCBmyBLexoFQDa9ah24C+5A2J2kI/fxrs/cx0J7Ow+1CYBsyr2/vFPm9DK5C+5A0EI5sS7vuQdz+4EuAZBV77+ZuP+kJEDQUPLk/vNyF88xOpHud7EAkIKjlg332slLJQGC9pIH9/LQSteOMbkZ+q8FLQIgu563DtxPXigJEHaNkXt5uFvvl+7OBX5xdlmHAMiuF42J+8l5cq89VxIgLH+N4F4uLXUjSC8vjYdy+4gGAZBhLxsD94vcXjtSEiDC6nWSe3lqoeMHKASH/oceTAUg68G9eVVGcAciTa5fK7n/uNTZZ0xHZqbLvksFYDD91PRp6kmtVjsysgKiHJSvZ3i/g3+r7M0Hf2dGawDIfHCvVr4O3Gtn/7xXEiDKyMQ1k3t5YqND0T2/GJ7se3cJgMxbq1SaFmVqtVdKAkRamC5fO7pvdeCz0Z3H4R+Y29MXAAYguF9typwn97dKAkR7Vr6+4ZnCrX5z5NFUxJ++WdAVAAYkuF9eBlk780ZJgGi51Rsk9/L41LMbv8i0cH8u8qmnUR/nADAA7l5tytROBHcggdHh8o2UFvcnr/1jy/ml+eg/9r5nlwAYmOB+erXiXnutJECcB9vlmxq+t3WNwfvk1mzcT81t6AcAAxLcqy3fpgruQLzcbql8c+ObszMbhZjtllxha2kxwWR/aFI7ABig4N6U22v/VhIg3sPyba1PzB4ePNxdWGlN8KOFnf2Dw9WphO88LVmTAWAAg/vFinvtv0oCJPCs3Dnr28XhzYn54bnrbuDM72gEAIMj92vTs6ln3ikJkMRMOXX/GNMGAAbLP19/PGmsypyqB5DIk/F0Y/u8R5cAGEC5o9cfa5dUA0hmv5RibC/dH9EBAAbU0evTi+DuHRMgoZ251HL70ILyAzDY2f0suN+V3IGEChPpxPbiQ7UHQHZ/vaYIQFJjd1KI7dMzPkoFgB9+MG8HrmN/vde5/Y4nlwAA4NoKU71M7eOrD5QcAABuIPe0d0P3obx6AwDADRUWexPbH4vtAABwGxvD3f8k9Z4bIAEA4JZGnha7GtvnllYUGQAAbm90abtrsX1q3zOpAADQIWPPujJ1Lx7akQEAgE4a2er03ZClxS3DdgAA6Lj8vc5tzKyv7o+qKAAAdMXY1uJ0Jz5Hvbdh1g4AAN3N7rNztxq1Pz7ILysjAAB0XW7hYPFGSzPbQzM7Ru0AAPyfvTtGYRAGoAAKQu0gptWpCZg9bg4Jduji/Q/VGxS66PLeEf70hw+fE8t72er+xzXTtMf2EBsAAFyhH7f8Grpfu/dpeIb3eLsLCwAALi/wZW3HJ8RcU5qXOaWaYzjaWnyiAgAAAAAAAAAAAAAAAAAAAAAAAAAAAAAAAAAAAAAAAAAAAAAAAAAAAAAAAAAAAAAAAAAAAAAAAAAAAAAAAAAAAAAAAAAAAAAAAAAAAAAAAAAAAAAAAAAAAAAAAAAAAAAAAAAAAAAAAAAAAAAAAAAAAAAAAAAAAAAAAAAAAAAAAAAAAAAAAAAAAAAAAAAAAAAAAAAAAAAAAAAAAAAAAAAAAAAAAAAAAAAAAAAAAAAAAAAAAAAAAAAAAAAAAAAAAAAAAAAAAAAAAAAAAAAAAAAAAAAAAAAAAAAAAAAAAAAAAAAAAAAAAAAAAAAAAAAAAAAAAAAAAAAAAAAAAAAAAAAAAAAAAAAAAAAAAAAAAAAAAAAAAAAAAAAAAAAAAAAAAAAAAAAAAAAAAAAAAAAAAAAAAAAAAAAAAAAAAAAAAAAAAAAAAAAAAAAAAAAAAAAAAAAAAAAAAAAAAAAAAAAAAAAAAAAAAAAAAAAAAAAAAAAAAAAAAAAAAAAAAAAAAAAAAAAAAAAAAAAAAAAAAAAAAAAAAAAAAAAAAAAAAAAAAAAAAAAAAAAAAAAAAAAAAAAAAAAAAAAAAAAAAAAAAAAAAAAAAAAAAAAAAAAAAAAAAAAAAAAAAAAAAAAAAAAAAAAAAAAAAAAAAAAAAAAAAAAAwJc9OBAAAAAAAPJ/bQRVVVVVVVVVVVVVVVVVVVVVVVVVVVVVVVVVVVVVVVVVVVVVVVVVVVVVVVVVVVVVVVVVVVVVVVVVVVVVVVVVVVVVVVVVVVVVVVVVVVVVVVVVVVVVVVVVVVVVVVVVVVVVVVVVVVVVVVVVVVVVVVVVVVVVVVVVVVVVVVVVVVVVVVVVVVVVVVVVVVVVVVVVVVVVVVVVVVVVVVVVVVVVVVVVVVVVVVVVVVVVVVVVVVVVVVVVVVVVVVVVVVVVVVVVVVVVVVVVVVVVVVVVVVVVVVVVVVVVVVVVVVVVVVVVVVVVVVVVVVVVVVVVVVVVVVVVVVVVVVVVVVVVVVVVVVVVVVVVVVVVVVVVVVVVVVVVVVVVVVVVVVVVVVVVVVVVVVVVVVVVVVVVVVVVVVVVVVVVVVVVVVVVVVVVVVVVVVVVVVVVVVVVVVVVVVVVVVVVVVVVVVVVVVVVVVVVVVVVVVVVVVVVVVVVVVVVVVVVVVVVVVVVVVVVVVVVVVVVVVVVVVVVVVVVVVVVVVVVVVVVVVVVVVVVVVVVVVVVVVVVVVVVVVVVVVVVVVVVVVVVVVVVVVVVVVVVVVVVVVVVVVVVVVVVVVVVVVVVVVVVVVVVVVVVVVVVVVVVVVVVVVVVVVVVVVVVVVVVVVVVVVVVVVVVVVVVVVVVVVVVVVVVVVVVVVVVVVVVVVVVFfbgQAAAAAAAyP+1EVRVVVVVVVVVVVVVVVVVVVVVVVVVVVVVVVVVVVVVVVVVVVVVVVVVVVVVVVVVVVVVVVVVVVVVVVVVVVVVVVVVVVVVVVVVVVVVVVVVVVVVVVVVVVVVVVVVVVVVVVVVVVVVVVVVVVVVVVVVVVVVVVVVVVVVVVVVVVVVVVVVVVVVVVVVVVVVVVVVVVVVVVVVVVVVVVVVVVVVVVVVVVVVVVVVVVVVVVVVVVVVVVVVVVVVVVVVVVVVVVVVVVVVVVVVVVVVVVVVVVVVVVVVVVVVVVVVVVVVVVVVVVVVVVVVVVVVVVVVVVVVVVVVVVVVVVVVVVVVVVVVVVVVVVVVVVVVVVVVVVVVVVVVVVVVVVVVVVVVVVVVVVVVVVVVVVVVVVVVVVVVVVVVVVVVVVVVVVVVVVVVVVVVVVVVVVVVVVVVVVVVVVVVVVVVVVVVVVVVVVVVVVVVVVVVVVVVVVVVVVVVVVVVVVVVVVVVVVVVVVVVVVVVVVVVVVVVVVVVVVVVVVVVVVVVVVVVVVVVVVVVVVVVVVVVVVVVVVVVVVVVVVVVVVVVVVVVVVVVVVVVVVVVVVVVVVVVVVVVVVVVVVVVVVVVVVVVVVVVVVVVVVVVVVVVVVVVVVVVVVVVVVVVVVVVVVVVVVVVVVVVVVVVVVVVVVVVVVVVVVVVVVVVVVVVVVVVVVVVVVVV2oMDEgAAAABB/1+3I1ABAAAAAAAAAAAAAAAAAAAAAAAAAAAAAAAAAAAAAAAAAAAAAAAAAAAAAAAAAAAAAAAAAAAAAAAAAAAAAAAAAAAAAAAAAAAAAAAAAAAAAAAAAAAAAAAAAAAAAAAAAAAAAAAAAAAAAAAAAAAAAAAAAAAAAAAAAAAAAAAAAAAAAAAAAAAAAAAAAAAAAAAAAAAAAAAAAAAAAAAAAAAAAAAAAAAAAAAAAAAAAAAAAAAAAAAAAAAAAAAAAAAAAAAAAAAAAAAAAAAAAAAAAAAAAAAAAAAAAAAAAAAAAAAAAAAAAAAAAAAAAAAAAAAAAAAAAAAAAAAAAAAAAAAAAAAAAAAAAAAAAAAAAAAAAAAAAAAAAAAAAAAAAAAAAAAAAAAAAAAAAAAAAAAAAAAAAAAAAAAAAAAAAAAAAAAAAAAAAAAAAAAAAAAAAAAAAAAAAAAAAAAAAAAAAAAAAAAAAAAAAAAAAAAAAAAAAAAAAAAAAAAAAAAAAAAAAAAAAAAAAAAAAAAAAAAAAAAAAAAAAAAAAAAAAAAAAAAAAAAAAAAAAAAAAAAAAAAAAAAAAAAAAAAAAAAAAAAAAAAAAAAAAAAAAAAAAAAAAAAAAAAAAAAAAAAAAAAAAAAAAAAAAAAAAAAAAAAAAICZAAuMze4B2iX9AAAAAElFTkSuQmCC;" vertex="1" parent="87">
                    <mxGeometry y="20" width="89.91" height="60" as="geometry"/>
                </mxCell>
                <mxCell id="88" value="" style="group" vertex="1" connectable="0" parent="1">
                    <mxGeometry x="505.04" y="290" width="89.91000000000003" height="80" as="geometry"/>
                </mxCell>
                <mxCell id="29" value="" style="whiteSpace=wrap;html=1;aspect=fixed;fontSize=16;strokeWidth=2;" parent="88" vertex="1">
                    <mxGeometry x="4.9599999999999795" width="80" height="80" as="geometry"/>
                </mxCell>
                <mxCell id="83" value="" style="shape=image;imageAspect=0;aspect=fixed;verticalLabelPosition=bottom;verticalAlign=top;image=data:image/png,iVBORw0KGgoAAAANSUhEUgAAC7gAAAfQCAMAAABlzOIIAAAABGdBTUEAALGPC/xhBQAAAAFzUkdCAK7OHOkAAAFuUExURUdwTP9lAP9mAP9lAP9qALe3t7i4uP9lALW1tbe3t/9lAP9lAP9jAOZcIv9mAP9mAP9lAP9jAP9lAP9lAP9lAP9lAP9mALe3t/9mAP9mAP9lAP9mAP9lAP9mAP9oAP9mAP9lAP9lAP9lAP9lALm5ubi4uLe3t/9qALi4uLi4uLi4uLi4uP9lALi4uP9mALi4uP9lAP9lALW1tbi4uP9kAP9mAP9lALi4uP9lAP9nAP9mAP9mALi4uP9mAP9lALi4uLi4uP9lAP9lALi4uLi4uP9mALi4uLi4uP9mAP9lAP9mAP9lALe3t7i4uLi4uLe3t/9mALi4uP9lAP9mAP9lAP9mALi4uP9kAP9mAP9lAP9mALe3t/9mAP9mALi4uP9nALi4uLi4uLi4uP9mAP9mAP9lAP9lALi4uLi4uLi4uP9mALi4uLi4uLe3t/9mAP9mAP9lALi4uP9mALe3t/9lALOzs729vbm5uf9mALi4uAj9Y3MAAAB4dFJOUwDYX+4YnVqIH0uUdBYBq1VOJKi1xmq73ZHC3Tkz+QRanCr1mQTG/ghz+COq/NhwzHgOCOMK/mbp6xJXzu6w4ZeJgPF5OtPzkEouReRsVbAZ51D9Yx7WRhvbn3wsjUEzIWWi/W2kPoS3v0C4gdAUO7/KXyanUg0LEDl4bXoAACAASURBVHja7MEBAQAAAICQ/q/uCAoAAAAAAAAAAAAAAAAAAAAAAAAAAAAAAAAAAAAAAAAAAAAAAAAAAAAAAAAAAAAAAAAAAAAAAAAAAAAAAAAAAAAAAAAAAAAAAAAAAAAAAAAAAAAAAAAAAAAAAAAAAAAAAAAAAAAAAAAAAAAAAAAAAAAAAAAAAAAAAAAAAAAAAAAAAAAAAAAAAAAAAAAAAAAAAAAAAAAAAAAAAAAAAAAAAAAAAAAAAAAAAAAAAAAAAAAAAAAAAAAAAAAAAAAAAAAAAAAAAAAAAAAAAAAAAAAAAAAAAAAAAAAAAAAAAAAAAAAAAAAAAAAAAAAAAAAAAAAAAAAAAAAAAAAAAAAAAAAAAAAAAAAAAAAAAAAAAAAAAAAAAAAAAAAAAAAAAAAAAAAAAAAAAAAAAAAAAAAAAAAAAAAAAAAAAAAAAAAAAAAAAAAAAAAAAAAAAAAAAAAAAAAAAAAAAAAAAAAAAAAAAAAAAAAAAAAAAAAAAAAAAAAAAAAAAAAAAAAAAAAAAAAAAAAAAAAAAAAAAAAAAAAAAAAAAAAAAAAAAAAAAAAAAAAAAAAAAAAAAAAAAAAAAAAAAAAAAAAAAAAAAAAAAAAAAAAAAAAAAAAAAAAAAAAAAAAAAAAAAAAAAAAAAAAAAAAAAAAAAAAAAAAAAAAAAAAAAAAAAAAAAAAAAAAAAAAAAAAAAACA2YMDAQAAAAAg/9dGUFVVVVVVVVVVVVVVVVVVVVVVVVVVVVVVVVVVVVVVVVVVVVVVVVVVVVVVVVVVVVVVVVVVVVVVVVVVVVVVVVVVVVVVVVVVVVVVVVVVVVVVVVVVVVVVVVVVVVVVVVVVVVVVVVVVVVVVVVVVVVVVVVVVVVVVVVVVVVVVVVVVVVVVVVVVVVVVVVVVVVVVVVVVVVVVVVVVVVVVVVVVVVVVVVVVVVVVVVVVVVVVVVVVVVVVVVVVVVVVVVVVVVVVVVVVVVVVVVVVVVVVVVVVVVVVVVVVVVVVVVVVVVVVVVVVVVVVVVVVVVVVVVVVVVVVVVVVVVVVVVVVVVVVVVVVVVVVVVVVVVVVVVVVVVVVVVVVVVVVVVVVVVVVVVVVVVVVVVVVVVVVVVVVVVVVVVVVVVVVVVVVVVVVVVVVVVVVVVVVVVVVVVVVVVVVVVVVVVVVVVVVVVVVVVVVVVVVVVVVVVVVVVVVVVVVVVVVVVVVVVVVVVVVVVVVVVVVVVVVVVVVVVVVVVVVVVVVVVVVVVVVVVVVVVVVVVVVVVVVVVVVVVVVVVVVVVVVVVVVVVVVVVVVVVVVVVVVVVVVVVVVVVVVVVVVVVVVVVVVVVVVVVVVVVVVVVVVVVVVVVVVVVVVVVVVVVVVVVVVVVVVVVVVVVVVVVVVVVVVVVVVVVVVVVVVVVVVVVVVVVVhDw4EAAAAAID8XxtBVVVVVVVVVVVVVVVVVVVVVVVVVVVVVVVVVVVVVVVVVVVVVVVVVVVVVVVVVVVVVVVVVVVVVVVVVVVVVVVVVVVVVVVVVVVVVVVVVVVVVVVVVVVVVVVVVVVVVVVVVVVVVVVVVVVVVVVVVVVVVVVVVVVVVVVVVVVVVVVVVVVVVVVVVVVVVVVVVVVVVVVVVVVVVVVVVVVVVVVVVVVVVVVVVVVVVVVVVVVVVVVVVVVVVVVVVVVVVVVVVVVVVVVVVVVVVVVVVVVVVVVVVVVVVVVVVVVVVVVVVVVVVVVVVVVVVVVVVVVVVVVVVVVVVVVVVVVVVVVVVVVVVVVVVVVVVVVVVVVVVVVVVVVVVVVVVVVVVVVVVVVVVVVVVVVVVVVVVVVVVVVVVVVVVVVVVVVVVVVVVVVVVVVVVVVVVVVVVVVVVVVVVVVVVVVVVVVVVVVVVVVVVVVVVVVVVVVVVVVVVVVVVVVVVVVVVVVVVVVVVVVVVVVVVVVVVVVVVVVVVVVVVVVVVVVVVVVVVVVVVVVVVVVVVVVVVVVVVVVVVVVVVVVVVVVVVVVVVVVVVVVVVVVVVVVVVVVVVVVVVVVVVVVVVVVVVVVVVVVVVVVVVVVVVVVVVVVVVVVVVVVVVVVVVVVVVVVVVVVVVVVVVVVVVVVVVVVVVVVVVVVVVVVVVVVVVVVVVVVVVYU9OBAAAAAAAPJ/bQRVVVVVVVVVVVVVVVVVVVVVVVVVVVVVVVVVVVVVVVVVVVVVVVVVVVVVVVVVVVVVVVVVVVVVVVVVVVVVVVVVVVVVVVVVVVVVVVVVVVVVVVVVVVVVVVVVVVVVVVVVVVVVVVVVVVVVVVVVVVVVVVVVVVVVVVVVVVVVVVVVVVVVVVVVVVVVVVVVVVVVVVVVVVVVVVVVVVVVVVVVVVVVVVVVVVVVVVVVVVVVVVVVVVVVVVVVVVVVVVVVVVVVVVVVVVVVVVVVVVVVVVVVVVVVVVVVVVVVVVVVVVVVVVVVVVVVVVVVVVVVVVVVVVVVVVVVVVVVVVVVVVVVVVVVVVVVVVVVVVVVVVVVVVVVVVVVVVVVVVVVVVVVVVVVVVVVVVVVVVVVVVVVVVVVVVVVVVVVVVVVVVVVVVVVVVVVVVVVVVVVVVVVVVVVVVVVVVVVVVVVVVVVVVVVVVVVVVVVVVVVVVVVVVVVVVVVVVVVVVVVVVVVVVVVVVVVVVVVVVVVVVVVVVVVVVVVVVVVVVVVVVVVVVVVVVVVVVVVVVVVVVVVVVVVVVVVVVVVVVVVVVVVVVVVVVVVVVVVVVVVVVVVVVVVVVVVVVVVVVVVVVVVVVVVVVVVVVVVVVVVVVVVVVVVVVVVVVVVVVVVVVVVVVVVVVVVVVVVVVVVVVVVVVVVVVVVVVVVVVVVFfbu/amKMg7gcF5AhNATk5AgjiAqIOAoCMgloAyUOEhDoEmAopOg0UVD2P8+sJrpZsC+yzm72/Pwgz++s7vnZT8uXxYAAAAAAAAAAAAAAAAAAAAAAAAAAAAAAAAAAAAAAAAAAAAAAAAAAAAAAAAAAAAAAAAAAAAAAAAAAAAAAAAAAAAAAAAAAAAAAAAAAAAAAAAAAAAAAAAAAAAAAAAAAAAAAAAAAAAAAAAAAAAAAAAAAAAAAAAAAAAAAAAAAAAAAAAAAAAAAAAAAAAAAAAAAAAAAAAAAAAAAAAAAAAAAAAAAAAAAAAAAAAAAAAAAAAAAAAAAAAAAAAAAAAAAAAAAAAAAAAAAAAAAAAAAAAAAAAAAAAAAAAAAAAAAAAAAAAAAAAAAAAAAAAAAAAAAAAAAAAAAAAAAAAAAAAAAAAAAAAAAAAAAAAAAAAAAAAAAAAAAAAAAAAAAAAAAAAAAAAAAAAAAAAAAAAAAAAAAAAAAAAAAAAAAAAAAAAAAAAAAAAAAAAAAAAAAAAAAAAAAAAAAAAAAAAAAAAAAAAAAAAAAACA1NuqWlpZLO56smf339MbS1XbzgsAAKTA5kpl+9TT9e6B6D1GutefTrUXV946VwAAUHq1nV+9un5jJDqQtd2v3vWKmbtbThwAAJRKVeXYlckojrXuN+0rbc4gHFLfcv/jUwfwXc3Z10mvfa1pfuIga5+amG+65lIBQGoszVzv3XuEHmDkxecrtc4kHLja53/s2jm4ueoLya1dWxhtPcTaraOFPG7uD08cicHGxi+Gf6qvH62rnng2tHz/5EUf9rIa2veS3cvT4T7b93Av5O0K9x9mf762I8i8t4tTDVEyBp4Wjc3AQVzsGdw5pNsvWxJavLBw2LV3jhXydw1O7pTIZ8deXq755f5NH/uyOL7vBcrVh7tm38NtytsV7jnMbmz5P+6B07Gzbu1B9o9+PPbRV6XyeLYqZzuiJHXMFm+5UcA+WobjBGBzTRJr3zkTqz7r+oR7oMGPn0+c/chPJoW7cBfuGQn3aCb7R9+Qp3C/VZydjJI3WbHhzgT/5V5rzPR7Hj5uvvoo5trDXwv3RJ6/n//k+H3jM8JduAv3DIT7lcwf/EqUm3Cv7RwfiI5K76tNdwt4n0Jz7OqrDy2+h1/GXnsuZ9OhZQr33354Mnxp3rCtcBfuwj3l4Z79WZnxvIR7W+WV6Eh1vLnrfgH/qqk5oPguh63dNxywduMd4Z6kubpzq7aDcBfuwj294Z79WZmGfIT79kxvdPRu/GxiBv7p5qe3Q2rvXNDidUGlOSrck7bw7bS3bQp34S7c0xruWZ+VCZiUSVG4d45NRqXxfaW3u8PfVYeVXmvIQ9pCYGYOCffE3W49U9Duwl24C/dUhvvVqmwf+3gOwr1qqiMqne6ip+7wF6tdgaF3Kf7atQuBazfm6ZcqUxLue058s+xbpXAX7sI9feGe8VmZ2obMh3tnRSmz/d3AzKL7BvxJdWjkNZ+MvXYhuDDz9Mg9ReG+69HjhzaHcBfuwj1t4Z7tWZmQSZlUhPv2eKmzfc+LTncO+MO1E8GJF/9t7qPBa78U7kema3TZ/hDuwl24pyvcsz0rM57tcG97MhCVRceUv6cKv5sOD7zzsf/T0Bq8dnOO/gxT2sJ97135/abdhbtwF+5pCvdMz8oETcqUP9w3uqOy6S26ecA7Ewm8Azxu3P2QQFpOC/ejfUVkT59NItyFu3BPT7hneVYmaFKm3OG+OXY1KqfZBx/Ar+zdDUMTVxbG8amWF18GX5YadTVajVGiCCQr6IoSJCaAQmqtuF0sYlwFirgqQpNvv9p2u+2u7Z47uZl7T+7/+QDOOONhflyfuUOiaMAC7pI+esYtHPs5cO9wrk+PMSbAHbgDd1/g3lDclSnrhXu8OtlynIlenh+ERNGgBdrNJjy2hdX+5hPg3vlV9/EsgwLcgTtw9wPuirsy7TVlnMK9vtbyIJd/4AlCyF0LsDuU8NhPLBz7fPfcCm/h3mw+mmVSgDtwB+5+wF1vV6bS0gr3hYmWFylVeISQ4POZBdadSXjs4xaOfRa4p5Lv3zErwB24A3cf4K63K1NWCved7ZYvyc/wJVUC3IE7cJe8gtzHBjPAHbgDdw/grrYr02ZTxhncl4dbHmWNugwB7sAduIv6Mi8YF+AO3IG7e7hr7cq02ZRxBffeasMnuLcyyzxGCHAH7sBdkGvHWXQH7sAduDuHu9auTFkj3HNTLd9SfcBzhAB34A7cJbk7x8QAd+AO3B3DXWlXJi4phPvOWsu/5Dd5kBDgDtyBuyTnHjIywB24A3fHcNfZlWm3KeMC7oXhlpepxTxKCHAH7sBdtP8mdRngDtyBu1u46+zK1Brq4L4y0fI0l4s8SwhwB+7AXVJ0H/ycqQHuwB24u4S7yq5M202Z9OG+UfXV7a3G+i4PEwLcgTtwl+T2l4wNcAfuwN0l3DV2ZdpuyqQO9wdDrRZyJwS4A3flcG/eec3cAHfgDtwdwl1jV6amDe5vGy2vg9wJcAfuwF34Mab3DA5wB+7A3R3cW5fU/aXjUkMX3Hs9dztyJ8AduAN3aa6cYXKAO3AH7s7g3tDXlWm/KZMu3O26fWgikxkeGRnJZEoWe/NrOR4oBLgDd+CO3IE7cAfufsO9lVfXlak1VMF9IW8D7kMj2+X7+1b6d379Rxfry0v3y4uv8u3/+dvsCkmAO3AH7rK2zGFmB7gDd/Vwz2qFe0NbV6b9PWVShftS2++lDl0oLyz/zor4T9wuVlZ72r0qUzxRCHAH7sBdJvdZhge4A3fdcM8emNYKd3X7ylhoyqQI95X2+iz5kc0N4T7rhdXFtn5HuBQRAtyBO3AXfUT1FNMD3IG7ZrjPvWn2qYW7tq5MTRPcC5Pt3Jn1VbMT3eldbKM184BnCgHuwN1vuH926I+zZ3x8/Oro6OjLvr6+/ee/HTj25tG9O52Q+73HjA9wB+5q4f6X41eaiuGubKnVRlMmNbhvtXGymc1CgiPWNxMfsrrCQ4UAd+DuNdwHE/3hY4/fnZp/v+eL6f0DJ05esSP3m2PMD3AH7krhPnv74+H1wl3ZvjI2mjJpwT13IXmBaSHp26K53uGExyzVeaoQ4A7cuw/uv0n2yPzz84PtL8Pf4o1+4A7cVcL986M/HV7xiruurkxNEdx7Eu/OuNHOYeOFhHRfZ1NIAtyBe5fD/ecfk18+PNvm7T/AAAF34K4P7vHDvU31cFe1r4yVpkxKcL+UdLV9o90j51YnEh25xmOFAHfgHgLcf8zjPf/Y28bWMq+ZIOAO3LXB/d2JXw6vGO6q9pWx0pRJB+4byfZvz1h5SXRrKtHRF3iuEOAO3EOB+4dk5/dfT/yC6g1GCLgDd1Vwvzh9utkVcNfUlampgXuyF1Orm0VLx68k6ctUCxEhwB24BwP3j3Y/PHA62fUfYISAO3DXBPfXj641uwPuivaVsdOUSQPuufVELXOLZ1YsJ1h0v0DNnQB34B4U3D/k4OjtRDfgEDME3IG7GriPHf/6N4fXDHdF+8rYacqkAffNJOvdq1a3KYg3Evyas8mThQB34B4Y3KMou+dvCW7A9YMMEXAH7krg/v7efx1e9Yq7nq5MTQvcKwlWu0esn9bWmvlvcRUeLQS4A/fQ4B5F8Z6T5nfgKEME3IG7Crg/vvU/h1cNdzX7ylhqynQe7rsZ85Oa6kRLZcb4U6rDxYgQ4A7cQ4N7FF0cPWd8C+aZIuAO3P2Hezz+iU83eAv3GcmmhFq6MpKmzKVFD+A+ZV6T6dCGLgtV0zMp82whwB24Bwj3KHp6zPQW3M0yRsAduPsO97nBTx3eW7j37gx1T1dG0JSp7va4h/s+43Xu0nLHftkx3NK9kV/h4UKAO3APEe5RfNV0g5nnjBFwB+7/yeyAQR6nc04XX356rP2Fe7QoWaZW8Q9C0pS5HLmH+27JFO4Xtjr39eyCaW3nFTvLEOAO3IOEexTNGb6kupfN3IE7cPc63/3eTHsM996u2VdG0pRZ8ADuxq/Qru128LeduG66o/t9Bp0Ad+AeJtyjG4Z1mZfMEXAH7v7mxvlrTX1w756ujKgp4x7uy3nDLWUWO/w+qKncq3VmnQB34B4m3KPseaObcI4ld+AO3L3NmT/4MrLHcO+aroykKbMdOYd7bsRwgftZ3Okrt2Uo9x6GnQB34B4o3KNo2ugu9DFIwB24+5mn3/s3ujK490pK1gruwIbg7/HAPdxXDd2+nUKlvN9sH80G76cS4A7cg4V7NGq05M5XmIA7cPcx2QPnmlrh3i1dGUlTpugc7juGu7gspvIq6PKk0UmtM/EEuAP3YOEe9Znchr8zScAduPuXuTde/meZDO5d0pURNmVcw71sVnC/kNL3jjaGjE5rHzNPgDtwDxbu8VmD23CPvdyBO3D3Lt9caWqGe3fsKyNsyjiGe78ZkIe30rp8Zg2eVzFTT4A7cA8V7lHWZG+Z94wScAfuvuVIUzXcu6MrM9UQNWUcw73HyMeThRSvn9GZvWXqCXAH7sHCPbpxUn4fjjFKwB24A3ercO+KrkxuQtaUcQv3gtGCe2MpzQtotNtNhq8wEeAO3MOFe3RK/g3Va0eYJeAO3IG7Vbh3w74y0qaMW7g/M2q4z6R6BQtVk3PrZewJcAfu4cJdgK5fMsosAXfgDtytwr0bujKCpsePTRmncC/kjTaUSblIft/kPwOGabkT4A7cA4Z7fEJ8I24yS8AduAN3q3Dvgq6MZE+ZZ5FruBs13EtbaV/DNZPTe8DcE+AO3MOFe3REXpahKwPcgTtwtwt3/V0ZcVPGJdyNFtwbG6lfxC2TPebZWIYAd+AeMtwNdnMfZZiAO3AH7lbhrr8rI27KuIS7UcO97OAqLpgsuS8x+AS4A/eA4T52XXonBhkm4A7cgbtVuKvvykj2lPmpKeMQ7kYL7sNFF9dxm8+nEgLcgbssX0jvxJUxpgm4A3fgbhXu2rsy8qaMQ7ibNNzzK06uY33S4BwrTD4B7sA9YLhf/Ep6K2aZJuAO3IG7VbjvKu/KyJsy7uBeH/K8KPMxJjvLrDH5BLgD94DhHk1Lb8UTpgm4A3fgbhXuyrsyuYm8tCnjDu6bJjvKFB1dydjgM0z5AqNPgDtwDxjuB88Jb8Vdpgm4A3fgbhfuC6q7MpKmzD7HcC+abNnibq/FikERv8boE+AO3AOGe3RU+vFUSu7AHbgDd7tw192VETRlJouO4f5WSQnlsvw0J4vMPgHuwD1guB+W3osXjBNwB+7A3SrcVXdlDPaUcQd3gw7KkMsOSsGgiv+W2SfAHbgHDPesdEfIq4wTcAfuwN0u3DV3ZZYMmjKu4F4xWHCvxS4/bjQlP9FXzD4B7sA9YLhHZ4X34lvGCbgDd+BuF+67Vb1dGZOmjCu4GzRQqnWnV7PfYMl9heEnwB24Bwz3Q7ydCtyBO3B3A3eRLP3syhg1ZRzBvT8v/2rqjOPrabDffA/DT4A7cA8Y7je+lp3Z6SzzBNyBO3C3CvdYb1fGZE8ZV3AvG7zyueP2csYF+e8Y1R+YfgLcgXu4cI9uCm/GU+YJuAN34G4V7oq7MpKmTM4t3HOllpoF9yjalp/sJaafAHfgHjDc+4Q3Y555Au7AHbjbhbvaroxZU8YN3Jf0LLh/yLJ8yZ3XUwlwB+4hw11ach9nnoA7cAfuluGutStjtKeMI7g/k8O97MElXZSf7jLjT4A7cA8X7keEN+Ml8wTcgTtwtwx3rV0Zs6aME7hLLu2/93Cve3BJDf6DYJPxJ8AduIcL9/iO7NSOMk/AHbgDd8twV9qVkTRlfr35iQu4G3w11Yt9WuKM+HwzMfNPgDtwDxbu0QnZqf2TeQLuwB2424a7zq6MZHV4yTHc17XtjD4jP+EK80+AO3APF+7CTzCxkTtwB+7A3TrcdXZleiRNmdgp3PvlL3t68otRXf4RphrzT4A7cA8X7qOyU/uKeQLuwB2424a7yq6MaVPGBdwN1q9XPbms8tdTJ3L8ACDAHbgHC/e/Cr/ARKsQuAN34G4d7hq7MqZNGRdwH5Z/0GjXk8u6T/67xhI/AAhwB+7Bwv3PwrsxxkABd+AO3G3DXWNXRtSUcQv3ZWWvpn6MwRejevgBQIA7cA8W7geFd+MbBgq4A3fgbhvuCrsyxk0ZB3Cf0bh6XZN/MYquDAHuwD1YuGevyc7tHQMF3IE7cLcOd31dGeOmjAO4j4gNXPLHwBX2lSHAHbgD9/8f4UbucwwUcAfuwN063PV1ZXqM355MHe71vKqvpv6cuKTxrAkB7sA95ZyUndspBgq4A3fgbh3u6roykqbMlDH17cJ9Vb52vezRpZV3ZV7xE4AAd+AeLNzfyM7tNQMF3IE7cLcPd21dGfOmTPpwXxMLeNinf9QGXZl+fgQQ4A7cQ4X7Mdm5fcdAAXfgDtztw11bV8a8KZM63Hfl3zKa8ekftUFXZpUfAQS4A/dQ4f4n2bnNM1DAHbgDd/twV9aVyU0aN2VSh/uCfOW64NW/anlXZpEfAQS4A/dQ4X5Ldm4vGCjgDtyBewfgrqsrk6Apkzrce7R2xTfkn40q8jOAAHfgHijcjwpfTuXTqcAduAP3DsBdV1cmQVMmbbjHE2L//ou9+3Fr4kjjAB6Tu8aSH4UEKIYkQEBjNVKCSZqIQZIzEBLbCwhCEEH5paIFRWu5//56Xp/nnrNC3pmdmX139/v+AewM+2M+O/nuzBtez/WpRXLLsXkqCnAH3L0K9wMsBwm4A+6Au31wd1RWRiYpYxruAtum7jC7rH8ht3wJzwAU4A64exTuXWzABLgD7oC7jXB3UlaG0L9/vY7YC/eb9N2XuP2Q+typIR8UCnAH3I0VMSqzhhsKcAfcAXcdcHdSVuaFRFLGNNzp09YPuF3WV8k7R934FQ8BFOAOuHsT7lFa28K4oQB3wB1w1wF3B2Vlpu7fkNCwWbgLRNz5BcXfktu+gocACnAH3L0Jd+JykHncUIA74A64a4G7c7IypKSMzXDfcfLSLAvkxi/gIYAC3AF3b8KduAFTFjcU4A64A+5a4O6crMyLPYmkjGG40yPuL/ld1/QFIa/jIYAC3AF3b8L9GqlpOawGCbgD7oC7Hrj7PjgkKyO1poxpuNMj7jf5Xdez1E1f9258wlMABbgD7p6Ee4PUtDLuJ8AdcAfcNcHdKVkZuaSMWbhTXi7+rKcML+xX5Na/xlMABbgD7p6Ee4fUtHXcT4A74A64a4K7U7IyMrsvmYY7PeL+E8ffUd/QN4/CUwAFuAPuXoR7JEVq2inuJ8AdcAfcNcHdIVkZyaSMWbjTI+63OV7YT8jNf4WnAApwB9y9CPc8rWlR3E+AO+AOuOuCuzOyMpJJGbNwv02W73OOF/Yn8krui1N4DKAAd8Ddg3AfoDWtD/cTD7invQX3NC4qb8B91hFZmRdySRmzcL+7R5XvLZZX9nXyi8cOHgMowB1w9yDcW7SmhWz9/6XXRvsfb43ETuc2E+1AoHh+vhoIzCfW594NV8eDIX/rrOBmuBeS90Ij0cE/up75/EcCnfXB426t1H9mr2s1wb0wOhYaqQ4mOoHPMa5ioL0+GB+vlZoDYLxr4e6IrIxsUsYo3H8lu/cuzyt7wdm/GKBQgDvgrrlKtKbds+s/d/g4WF0n5PAD72K1saTNq82rh3u+ORO7krvwz6XWozOtinvgXumvRTeLF3e3EQsdYiswV8J9xQFZGdmkjFG4f+vsiDvtSrjkJQmFAtwBd5fDfZvWtBPzLQv3144DgtdMaq67n7RvXlYt3LPPjgZzhE4XGyP9tmhWLdwLzeA7SndX54Ktgs/z5Ta4OyErI5uUMQp3+qosN3le2f/EFkwowB1wB9wvqSqtaX8z2qj0aCg6L33h1Ie3kvasc6YQ7oV70YzIG8txKexkuFf88ZRId6v+is/b5Ta4OyArM0tIyiz57Ib7S7J7HzLdVe8utQM/4OtUFOAOuHsQ7us0Cxts0VkonrF88ZQPxmyYhFYF96yY2v/c3Db+0fBvDargnhVT+39/ZkhVm56OvLsO7vyzMiuySRmTcI/8RGXvHtedR+mvHk99KBTgDrh7De6FHKll7ww1J3KyvXmuqFLVMdOJCjVw36h1JLvcCW44D+67wYBkd9tb9ky7CEGxzQAAIABJREFU56O96rGVPx8cptRgz39PYthaPTMLd/5ZGemkjEm43yKr9y3X4ZIe9nkP5qEAd8Ddc3A/pLXswEhjJo4S50qrPpl0HNxHYykrbyvdCWfB/Vl11UJ3M30DNtzOYb2rpw6f8yi5D9Kl4c4+KyOflDEJ92+c/2kn/evUJTAPBbgD7p6D+zStZTP6W5L1D+rQx5zf4Eoz1uGejFvt8GrMGN2tw/3k1Gp3c91dwN0dcOeelVmRj40bhPsSeRX390wj7r6r2DsVBbgD7oD7hXVAa1lLdzs2pPMSPcPQ7ZCxxIxVuE9Eiwp6nDtYcwbck8dKIlGTpj/LBdy1wJ17VoaQlLkbsX3G/ZULti8ix/QXIz4UCnAH3L0F90ib1jLNWeLlg5ROgZSnDc26W4N7pa+oqMOZmpF3FWtwDx+o6m49ZHb9fsBdC9yZZ2UsJGVMwp28JMveLNvxkv516lUfCgW4A+7egvsyrWHzWhsxEV3VbZD2mJGpGUtwH+so7PB8kzncIyWVP7FcOQTcnQ933lkZUlLGdrjT9029w3e8XCJ34gmchwLcAXePwT1Ea1hUYxN2Y6smFHJtmTfcB1RzLRZmcPVcCPdlxR80FCcNLjADuOuBO++sjIWkjEG4v3b6vqn/qefkTjyC81CAO+DuMbgTjbCvrQGFWsoQQ3JB/XkKebh/VB/xL/fzhbs/o7y78+Ym3QF3PXBnnZWhvFVcuMiJObg/Ipv3Dd/xkv728cCHQgHugLun4F4hqlnXoooRf9kgRBra14aUhXthXMtnuX2aX1Vk4V6JankzOzK1IRPgrgnunLMyVpIyBuH+gLyozArf8ZKe98GyMijAHXD3GNxLxI//NInozDBRUkM84T7R0NThOb3Ly0jCPZnQ1N1TQ8vLAO6a4M45K/PBQlLGINzpi8rcYjxgkpeVuQvnoQB3wN1bcCcGjat6pttDKeMWieldbUUO7q26tv6Wta7jKQf3jxlt3W2PGrltAHdNcGeclZld3JNPyhiEO5m8P0wxHjCvk18/fgP0UIA74O4luK8R1+MrafmfxO3ASEPrHLQU3P06319yJY3dlYL7tMZvkYupeybuG8BdF9z5ZmUsJWXMwZ0eMnnLecD8O7kbOz4UCnAH3D0E9yDxTOjYm7IZsEcj8zpXl5GAe6RW1Nvhmr6FMCXgnh7R29vVacDdwXDnm5X5sGchKWMO7q5YVMbnu0nuxjeAHgpwB9w9BPcC0c4N9YeObK3axZG6xjiFONwjfdo73KdN7uJwT8e0d/cIcHcu3ClrLtqSlbG0poxBuNMXUlzgPGCukLvxxodCAe6Au3fgvk+ds1V+5GzURo9olLs43EcMdHhcl9yF4R45MNDdIODuXLhzzcpYS8qYg/sCWbzPOQ+YO+RufAD0UIA74O4duKepi3soD5dUBm0FSV3bspDCcN820uGuJrmLwj3SNdLdbcDdsXCfvc8zK2NpTRmDcP9AFu9rzgPm79Re7F33oVCAOyO4HwDuWmuIeB42VR94bd1mkZQHmMD9yFCHNU1CC8I9MmmouzOAu1PhzjQrQ0nKLPgYwJ2+HMtV1iPmfWo3sB4kCnD/Sz2WPLaKDWWGAXedlS8Tz8OWarcnbCfJZoUF3EvGOhziAPcZU70t+gF3p8KdZ1bGYlLGHNzpq0FGWI+YP5Kn3Kd8KBTgrmaq7pqCYzfccyo4wp0627uqeAFFBm4/Pz/Vs6WUGNyfmVvHXg9lxeD+0dz3yLl+wN2hcOeZlbGYlDEG99kbVPDe4T1i3nbJLwcolB1wl916p6zg2PW0a04FQ7ifUdV4rBg9myxQoic8IgT3gbLB/uaadsN9OWOwu5kTwN2ZcGeZlbGalDEG96dk7/7Ce8Skf2T7ENJDAe5fVFvuB7U1JQPHIeCurdLk70PVTl7m53igpKgDskJwz5tN+mc0fJErAvfwvNHuBgY03jyAu0a4c8zKWE3KGIP7t2TvPuA9Yj7CQu4owF2+5Gau1KRZj1xzKvjBPUQ9CZtKs5DpYyYoOe/oiLmLwH3ccIcTFRsuov/BvWq4u3MFwN2RcOeYlbGalDEGd7p3/8F7xKQv5H7Th0IB7l/UiNShG2o+IXRNVoYd3JfJ8ep9pcftO2dTMXvh3m+8w3Hln6MJwN1vvLtdwN2RcGeYlflkNSljDO70hMl73iPmQ3JHliA9FOD+l6B5WOLITUUjx5hbTgU3uOfJQfOy0olLa3zLzQ9Wx4OhUmnsuz9qrDRUGzk43pT+wvOjnXCvdOjd3ox3j2b2S6WhmaPucSInnQ5SvTyQANzX6uRmptar45+7uz8T7A4n5L9oLQHujoQ7v6wMpUU7LOBO/6bzCe8R86pbwvoolB1wlxmC0lcUjRwNt0y5M4N7hL5xaUjlNG1SFtmpufGh1ln261fbbnOr2pH4o/NZG+FOPAPtbmn5i2ZmR6ejdbkXn5ZdcI+cEuM84/6JL+757EkoLvdZa0rbPluAu06488vKEJIy30+xgPv1Pap3n/IeMenL4/wI6aEAdxXDn7r1mrdcciqYwZ1+gpROuBekrsh6dTrZ+wVuIjQsPBVdsw/upKDMZu2iPWuzra4MZssbNsH9Mek1fWbiou42YzKvfPOaVusH3LXCnV1WxnpSxhjcvydPVH9iPmSSF6THDkwowF3FR23NnLKhIzcKuKuve0XyCZhWeVyJjTMDfSfkX13C04KfVmQ2VP9nqXBP915RJhc7ufTHjvy+xDItVbXdpcK90O49P9C9fIKgMiPxo8o44O5EuHPLyvxsOSljDO6LVO7e5z5kvnXJTlIolD1wPx8WixQs1xWOHfMDrjgVrOB+SJ+9vKIyTSL+5cPwd4LHb4pt/DVpF9yHerJ9crfnwdKljiGLWYV7rSfbR3q/Q2WnA8Kp/paeOwhw1wp3blkZSlImwgLuv5En3O9wHzJfkrvyO6iHAty/UtdE5txbAaWDR/sMcFdbSYET1K/wuAXRGeJjmaVIW5sCR0gp3hSWCvd8uVfXJ2j/0m3RH7fKYZXdJcJ9o1esJ7pLOlxlsijY3YSeNSE1w30rSql475MdtVZySwFbhzuzrIyCpIwpuN8ia/cV9yHzBbkrt0A9FOD+tYmrxgT1mJHpnOJpn3K/C04FI7iLuF3ppqnbYuf9nWRKKlsTuAJVT7kT4R7skQ/ykw84KrqLk9JFMIlw77FifYe+vE9L9OWvT8s9FLbpuP9XA70nXGx51imAO6+sjIKkjCm4v3bPWixL2DoVBbhb/UL1iJZZONGxL+ZBxfGngg/cRdye2VV44GWhN7r6vnxy8bBNv67Dav+7NLjnLw+TxUWi91nRSXeV78E0uG9cHs2KidzeecFJ99UTHTcR4K4X7lP3OU203raelDEF95/J2mW+carP94bclRVQDwW4XzDpXj7qGSvI/pu9c3GL4siiODsYWdEB4wAaYHgMMaOfiLDOKANBBT9WHuoShPAILIo8XDUqvnby36+b7G6yu5E51X3vreruc/4Abt3uquHXVefe6u+q1jVUGhpM+KsIBtwXXAoQRCtTna5M7YpVNnoGd7oLty3CwH3k2Mn+yPWVunnTFgXdIxi4Hxx7uuDaTb/drZ3OqkZHWYK7LrgH5ZWRcMpYgfslmHZfhP4vE78D9jFRjyK4f75ebrI11/5Z5ba6Zup6Wt/rbLfQ2e0vNf7ThwLuOZeueh2ST2LB5W1fiBm5DPepX5R92xC493UfV4097xz0rdtCF/xWgcC9ctyHxap78XnvolO6GtcwEdyVwf1UQF4ZCaeMFbjjF6deagpcJ+FU7hL1KIJ75lXqGjkj/SrCAPe+A5cTkRlJo0zewUNVjM9a+Q00WLs9uLcfx1pRpl7NqQ3JjNzshsD9uA46hbEoi6nDJd0lhfpUgrsyuIfklUGcMg3/iBG44xWdR6HTy/dwKveIehTBnfqEjgPC7UaCAPczbm3m+iVjzzmc7LwXiJffA6MV7MH9GCPPULT2m31tLi9WDiohcP98+Wy1JVohQ9lpIk8rrCSCuy64B+SVEXHKWIE73kPxVOj08lc4lXdEPYrgTv287T4ieq1DCOC+72YxGBANjqPWck4kYB/oqZctT0XAfeXzxx4HkbOdcvksFeuwioB77+e5/WnUuJXXLkv5BME9ceAejldGxCljBe4X09OKBe9seUjUowju1C+akjxi9w/u5a1lp/TfSF69dAy9/Z86hUKOgY0SRStwEXA/rbE3XHYh9zZLcP9s68tqjDddcbloS/yaLYK7OriHcweTiFPGCtyvwrT7Q+j08iOcyjWiHkVwp/5N0WNyr8I7uL9ynAzjsl6hATjwhljMt1j7EVG6QcD9jYqnw8U+Uu21A/d8twK3fyL3Nw7eK/E73Aju2uCOkK6JVwZxyrwQSUcC3G+m59aij+m5BJaiCO526pLrOOIZ3Nf2HPt0lnpE45fhhkOzguccOQzrJL0yALjvVHW82LVuh9MkO3DvVTpZWVvyuOVOcFcH91C8MjJOGSNwz38D0+6PodMLnstNoh5FcKf+o5Z0gHtls+SY+PBZ2RFMwB8Mog37MftITjBiY3Bv3dM6apjH3/Ky0GNuDO4tU1prax/vbFpcE15RBHd1cA+lr8wVmR1fG3D/AHP7T38KHl8uo6lcJupRBHfqV76RshT4BPfK6Lhz3jnhMRTQyLL3Ia1AKDslGDEXea51xK8pmMCjCRmSTkdOtxD/NOspHm2L4J40cA/EKwM5ZfIi2QiA+x9hbt8NH19w289Hsh5FcKfkQdobuNc2nbG9XpW+s6aCbo52l2UDQ2DZLNg/KDK4L0q0PmnF96BX7J7v72lVon7kHBxupkZwTxq4h+GVeSBU52kD7ngLxW/Dx5frcDJ/IetRBHfqV20nG9zftpbcc652Sk/EOTR0u3DgMtQBs1cuYFRwL4mMoYLb3C94BffmLyWin8G/SWVPcgjuBuAehlfmoVBtpA24/w1m3evh40uKOuRQFMHdUucSDO59758vR0i5mBOfiOhO8KR45E4k7Gn/4P5UJvwCXINcEtmDjgruQh9ouDdoXPYoh+CuD+5BeGWEespYgfsDmHUT0InlZXp60lMUwd1SJaF/+PbgPtiyFC3jOfmJuA7GnhCPXEY2ZQUvT40I7s+l3DpDcEiRr5WI4C7W8hNvXi/7NUpwNwD3ELwykFMGWbw24H6Upt7nF3dTcwssRRHcTbWfSHDfGZ2NmO9Sj/w8rIH7wN198rEPkJx9g/u42N2eY/DtuOsS3wrRwL1b7IKEE83m1SoEdytw/zqAO5iknDI24J6/D4P7s/Dx5RBO5mQTRRHcKXEPgyG4971qmY2c7uSKwjw8a/us/0sriFtILulo4P7ex5fDgi9wH96XSxcfQK/krCK4G4B70xPvXpmPl3dlnDJGO+53YdY9DB9fHsLJPCbrUQR3SryIzwrc8/MjU80xsj1X0ZiHB1jwYk0jeIdpTWwkcN8TTDc/iUZt8wXukr0Zy3A5ruglTAR3C3A/5d3ycVKsMtIG3F/ArPsufHx5Bydzn6xHEdwpeTuuPrjnd94fdDXHyrXYqTMPwS7uBZXgI0DkA6/gPnNCMt9teONb4FaiKOC+NCaZbjv8lCXDEtwtwN1/X5mHu1JVnjbgfg9m3S/Cx5cv4GTukvUogjv12z3o8MH9RE//5t5kKXaqf+hVmofgrmhOJfgOYLCXu4IpCriPyCYMF2wKtEiMAu79otnmO9C4kpcTENwtwN27V+YDcHkn5pQxAvfbMOveCx9f8K+QF00URXCnkgDutcH9iZHWwmpJJtFqa0VpGpaHsf3+MZ3wgHdk3Se4zwqX5A6iLSFvxS9PjQDuX+Vl092HyzcI7kkDd99eGTmnjBG4P0kT696Bk7lD1qMI7lRw4F6u1WprOzvzr+Ymbpye3hoovFksyubZvaA2DQexETxXCj8KuEbEuny7g3t1WzpheMv9lQdwH56XThfecn9LcE8YuPvuKyPWU8YK3K+kCdxxw/5tsh5FcKe8gbsvDW9V9KYh2FRmVCn8PBBbjCbdwX1KPOEeNHR8uHQH9yFf06tenya4JwzcPd/B9EGsp4wVuB+myRaOt8h5QtajCO5U1sD9q3nNaXjDav/395WfaRz7rDdwryo8+tdomWhsk44zuBfl243m0eanqwT3pIG7X6+MoFPGCNyfwax7qSl44eB+haxHEdypbIF7d7vuNJyGRlEqa8V/blgf6gzubQoJL6DBY9ujnMF9SCHdfjS43DcSwd0G3P32lRF0yhiB+7U0gfslOJmHZD2K4E5lCdwXn5aVp2ErNI4utfibjYOLtRZ3BfflQY0zhnUw+oA1uBc17vcqj4PR5bp+EtxtwN2rV0awp4wVuL9MU+vzVF0DS1EEd4K7lG51ltWnYRs0kha1+EBnc7F975yf6fU/GgWjN8d9+a7groOzW+jRklhDG4K7Ebj79MpIOmWMwP0qwZ2iCO5UqsH91o2ywTR8Do0lpxa/0rgBT4dULFdw1ykuWBsGw8f1yjiC+/CKSrqD5k+b4G4E7j69MoBT5iX8x0ID98dpAveLZD2K4E5lA9xnH5VNpiFWK9mrN4DG1Ytijdwdwf21UsZoR8i4FiFHcG9TShftCDlKcE8YuHv0yog6ZYzA/XyawP0xwZ0iuFME99+6jfdeWU3DN5DZW7EfZWOMnfEE7u91Es6jLRLjNlpxBPd9pRf8CIwvBrIEdytw/96bV0bUKWME7tdh1j0KH1+O4GSuNVEUwZ1KO7h3j56xm4YdzYAmFQcAeKClzh7cwP1Wn1LG5WZwBDuW4K72jmvgbWTDNYJ7wsD965u+vDKiTpngwP1kU/A6CSfzsomiCO5UqsG91DaXz9Q6ABrJr3kB91G1lDfAEXRagvsjtXQL4AikGp8S3K3A3ZtXBnHK3BVNQwDcb8Ks+4DgTlEEd4J7MsC9ODVRydo6APqav/UB7kW9Y485cAgFQ3Bv1pt46GPfILgnDdx9eWVknTIEd3c9gJO52kRRBHcqpeBenOofy+A6WLErjXUC9za9lFGvTMxrr5zAXZFlUa/MktBRE8HdCtzzvrwysk4ZI3D/Fmbd78L/2f6O4E4R3KmMg/vixkQtm+ug3PjhbPsA97OKOaNemXj1ok7g3qOYLtpGR+i+K4K72Y67J68M5JTJi2YhAO5/hln3VJrA/TxZjyK4U6kD9+GO0d58dhdC0YyhXcB9vE8xZbSvzKYZuK9rTkC0r8wNgnvSwN2PV+ak8D4/wV1jHv1L18l6FMGdShm4z85Vsr0Qlho+ogkP4H5BM+UKaB55bgbum5rprlWxQewR3JMG7n68MsJOmeDAPQFWGYI7RXCnMgzuC+VsL4T1ho+o3wO496rmjN1XW5+Jte3vAO7LK6rpTmKjuEVwTxq4e/HK/F22pww97hEEW2V2aZWhCO5U+qwypULnToYXQmOqy9mD+6puzk8tPh8cwF0ZIqfBYch8PhDcDcHdh1cGufznB5c/yK4yeuDO4lSK4E6ltDh1dWu7L6ML4XXDhyPVYtwB3A90c94BhzFiBO5PddPtAYchc7RCcDcEdx9emUPp5uGhgXsCLmDC20GyjztFcKfSCe6ftLQ1n8mF0Ph+HqGiRRdw134V69gwpmzAvbqmm20f2P9yiOCeNHD34JURd8oEd3PqUZrA/VoTRRHcqZSC+z/33acz6Jlp3CywUygSDu7d2kkPgB9zNuDe4f8d/1LvQXBPHLjbe2WOxPf4QwP3x+H/auM3p14k61EEdyrF4F6vL3e9z1pnyLYAwb1FO+l+cCBxtsJxcD+tne4INo5hkTptgrsluNt7ZcSdMkbgfh5m3ftpAvdnZD2K4E6lGtw/af1GttrM7AUI7j3aSa+BAzlrAu7q5zy9ls+d4G4J7uZeGXmnjBG4X4VZ91L4v9pHaC67BHeK4E6lHtzr9fGWExlaCBvhgfu4/qkHaHKftgD3WfVs8+PYSETeNMHdFNytvTLyThkrcN/NIrj/dEjWowjuVPrBvV4vXTiTmYUwFB64b4TwufKzChbgvqWfbgEbyQDBPXHgbu2VOZT/TrAB95cw694N/1f7MZzMQ7IeRXCnsgDu9frMZlYuVG0ND9z79bO+oV+dCoP7gn66m9hIJgnuiQP3ptume8gKThkjcL8Is+6LNIH7FbIeRXCnsgHu9fpiLhsL4UJw4L5scNyBur5jVKei4F4yqKmYM6xOJbjbgrutV0bBKWME7s9g1r0T/q/2fTiZd2Q9iuBOZQXc6/VCJqzuLcGBe4dB1uUiNpY5fXAvGKRbq2Jj6RWIRXC3BXfEK/ONmFdGwSljBO4PswnuT8h6FMGdyg6418fnMrAQDoID92mLtDuwscS4OxUF906LdMFiXAmTEsHdFtzzll4ZDaeMEbi/g1n3XprAPQHJUBTBneAup+qF9LeGnA4O3Lct0m7FxhLjMlEU3Actbg44h43lgOCeOHA39cpoOGWMwP12mjapL+GG/axdTEIR3Klsg3u9PjuY9oUwGhq4F03KgsHq1Bh4B4J7s8k/VrA6tY3gnjxwt+wro+GUMQL3e2mq57z7D/buxStqc4sCeArX4gUHKCJShOEp4wMoqIwM+IKC4mAVUUTxQSugVAUKta3897fedX2s1bUue5KcnZPMPn8Aw8l8yfpNsnO+LI3IUakEd8E91urLelymwRvcWyltb4JpKXO4X6W0+x77Z5YF9/TBnThXBknKVP5JHLi/zdLoc7yZFGwDq1IJ7oJ7vGmZoWK2T4QRb3Cvo7RdAr//8BNuQLg3UNrdB5925AX39MGdl5UxScqQ4I6nS077v2rfgJvZk/VUgrsqMbi3dgK1WS6XmyeLDdPtG21zC+Ox0H010yfCuje4kx5xTGD/zaY13DspUZk8OEVnX3BPH9x5WRmTpAwJ7vj7nO/8X7VvwdvA3pf1VIK7KjG4hxibV9gvF5+9WYjaZ38+wyeCN7iPlzh972LfffjnLRjc+0hraw5rt1lwTx/caVkZm6QMCe57MNxP+r9q42/aPpL1VIK7Kk1w/1+VyqvHayPJPcNv5p9wBvdvSH2DY2XCz1nB4N5KarcRa3ck+icJ7nS4s7IywH6dYSbGc+B+H7bu5SzBfVbWUwnuqhTC/WPlOldbh0J3+iq7J0LRGdw3SH2vfzD+dzC4t5Panf7A+ncEdzrcWVmZ1zb5cA7cZ2HrDvq/T/ML3MxTWU8luKtSCvf/3nmvaVsK2WpDZk8Eb3AfIfVdtp5xg8G9m9TuJG3GjeBOhzspK2OUlCHB/Sls3YO/3F+1z8O9HA1UKsFdlV64/11rdROhWh2vyeqJ8MAZ3HdIfYOrbsEY7vukdm9j7U4J7imEe+5XSlYGScqEcSIH7ts43M+5v2rfzdCPEJVKcBfcD6nCg8dheu3azOiJ4AzuQ5dYjWNvPSyF3jsXgnst66l8AcuJ1QruKYQ7lJUZjMxRo6QMCe45eBDLwQv3V+3XcOxnQNZTCe6qtMM9CPI1Yb78xZVsngg1vuA+R2v8N+x7D31LHIL7Lq3dDqzd6DN9BHc+3ClZme1Bo8/gwD24DMPd/ySWLbSVK6KeSnBXZQDuf9N9PURgZjebo2Wcwb2F1jg4Z6VsCvd2WrvfY+3eFtzTCHdGVsYqKcOC+zAM95/cX7VPo60Mi3oqwV2VCbgHQam+8s2ZRjN5InT7gjtvt6t27FsP/XIDBHfetrwbWLvRt78S3BOAO2OujFVShgV3GLsHd9xftX/I0C6wKpXgLriDtVlx1L2rV3A3h3szrXFwZ9NV079/itZuHdZu9F8SgnsCcCdkZcySMiy44y90/uj+qv0ObeWuqKcS3FWZgXtw6UnFYZksngiTvuC+5qjxaMpE4D4+Rmv3BNbutOCeRrgT5sqYJWVYcD8Cw/26+6v2cHZaUakEd8G9Ekn2VdjwpOBuDPc+3osEp7DvPPRkcwTuHbzvuRlrt0dwTyPcCVkZs6QMC+43YLifd3/Vvoi2ckPUUwnuqizBPbh9rbKGFy5l70TwBfcpXuMr2Hce+j9C4P6G1y44yD36fyS4JwF3KCsTJQJil5Rhwf3OQXaC4VfQVs4EKpXgrsoS3IOVqco6fiW428KdN1QmyGOTzRct4V7Pa7eErfDo4zgF90Tgbp2VsUvKsOB+H4b7SfdX7UF0KP23gUoluKsyBfdgrLWy91MfCu6mcGf+MsIetyzlDeG+TmwXy4VF34FJcE8E7tZZmS27G9UkuL+A4X7T+0X7QoZG0qtUVQr3rt1X3eVOpMo1da1DgvvXcv++opbrM3ci+IJ7DbFz8DfbvwzhPu/uijeej/o5gnsicDfOymwD93jDTlEkwf0erN2DP51ftLcztAmsSlWVcH98opLdDnPByuii4P6V3CtKy3Rlaf/UY5vFZ28WXMH9FLH9FuwrDzsEFIH7PrHdNqzdY4J7OuFum5UxTMqw4J47C3P3nPMr9zm4k6OBSiW4u6vaYuW3yAqrfYL7l4/vqKTnZylb56WHt3fK75uaisXiyOjHqvtY/S1tUx0zYMtMuB8jHpp6rP1NO7gP5YntNtr+ThHcE4a7bVZm66XdK50kuAcnYe7+6vyqjqd+Loh6KsHdXU2FC133zgnun2t/poKe+46lYHEXepuL0/VXWztq4/iaiXAnToMMgldY++/t4H6NuSj6sXZ3BPd0wt00K4PMlAm93ygL7lswd/ecX+Bn0UauSHoqwd3f66Fh5xOOtQnun+v9eFYGyxQ6u1+1tC7Gu8iIcH/MPFjg1qkP7P58K7NdcOvUZsE9pXC3zMoASZmX98L+6mbB/XcY7m+d6+XfaCPvJD2V4O6troa/QVmYEtw/17MKml7Mu1zPue8m6453LFmsMiLc25iHrIi1P2oH9xZmu6O2v1ME96Thnrtol5UBblZvhT4oLLjjOzAdca6XPbSRu5KeSnD3lpOJsh/QyqLR/7U/AAAgAElEQVTgHupXzHt3a3ll8tnujN0yI8L9CfOwNWHt19nBnfrCxAms3QbBPaVwN8zKQDNlQt9FYsEd34FpK/BdZ9BGrkt6KsHdV81EGyq+syS4f6reCt7WPe5pGed6ixvXjNcZEe7TzGNXxtrvt4M7c4x70E2KggnuScHdLitzB0nKhP6/WXCHAybud2CCnx38GKhUgrurGon4Jl+P4F6Jsj7VkptNmB4+aJkgrDMi3IvMw9eJtb9ht6SamO3OY+22C+5phbtdVgaYKRPhJjUL7vgQxcEB33r5BW1EG6eqBHdftViI6r4uwf1T5SsIy0x7WL+F+XrWEibCnRpD2gdfJLGD+yaz3R2s3R7BPa1wN8vKbB/u9vAzZXhwH8AHuTsff343K3MtVapqg/tq5GOwIbh/uf2KB4e+SXzxlmoa+3gLjQh3qmSPYe2HfWEWgHsvs91e0kktuCcGd6usjG1Shgb3YBiG+yPfejmdlZ2kVKpqg/ta5GMwL7h/rlwFwaHeRFfusfW2IepCI8KdemQvYe2HndkIwJ26J8Ca7QMGwT15uFtlZbZsX+ekwf01DPc7getCt5Ia1P5LKsHdVS1HPwaFLsH9izfwuSyryS3bQnNjF3ulEeFeYh7LPNb+nBnch5jbTQUrtg8YBPfk4W6Ulblnm5Thwf0WDHfn01hugm1cFvRUgrurimNyXqvg/qWm4b6nklq0mz0zCaw0Hty5kg2wdFTYTaEOh/sEtduS7QMGwd0B3G2yMsZJGR7c4XmQL33Pg/wL7eOHQKUS3D3VaAwH4Yng/qXGatG+xxOZKzN2YjmZlcaDO1eyAfbsYsEM7svc9UP6VSq4Jwd3m6yMcVKGB/dH8B33i67x8lT7L6kE93RWTQwHoU5w/6pW4cbX+eu1t34mqZXGg/sc95hiR3TRDO671G4Ltskgwd0B3E2yMtZJGR7cj+LzIP/wjBd4IP0tQU8luLuqSSpVqwHu+C13+h5M5bbx5FYaD+5cyQYTUPthHwMcDvdGarc5bAlFfgwguCcId4uszJ2XtkkZHtxzN2G5v/CMl58z8o6tSlV1cI9j85ZRwf3rgh9AzOSp4mpuTXSl8eDOlWywgH3ZZnCv57aLJYMeR/0YwT1BuFtkZayTMjy442MUD/Y84+VtRqZaqlSCu+AetfAdqYjzxvM1ywmvNB7ce7jXgA6o/T4zuL/itoslgzoE9xTD3SArY56UIcL9+kEmQibwxqka464S3AX3jMM9aEE7p22emut+nPhK48GdfAsa+0XUZQZ38ha8WDJoIerHCO5Jwj3+rIz1TBlmVAbOmPgeK7MFdnF2QNBTCe6Ce8bh/hztvJW0SstTDlYaD+7PuNeAOaj9ITO4N3iE+6Lgnma4x5+VMU/KEO+4z8J33K/kAr+F7r80LOepBHfBPetwz6G3t4fGGGu0s83FSuPBnZwdwb7tJTO4k4cT1QruVQD3WzFnZZCkzM9pgfuFQVjuRwO3NfAS7EHTIFWCu+CeebjjB2Te/n8pPXGy0nhwJ29Jey3hqEyR226fojLZh3vsWRn7pAwR7sEwat6D+37tAo9xvyHnqQR3wT3zcH+ITl20vzfcNPGh6uA+wr0GLCb8cmoNt90hqN1rgnuq4R53VsY+KcOE++/wHfe3fu1yPxOjcVQqwV1wj6fQwYvWIfe1N35WGg/uJ7jXAOynkd04yCZqtzns29ZUmXTDPYg3K0NIyjDhfgaGu+OYCdyE62H0KpXgLrjHUyNg610FU2Ot932oRrg/4F4DsPmItWZwb6Z2C+6cqjnuKYd7vFkZJCmznR64P4LhftGvXdChloN/ynkqwV1wzz7cV9CszHPDf6J01dVK48G9m3sNwMb22+2cWqZ2O4Z929o5NeVwjzcrQ0jKMOG+nYW3U9FpkCfFPJXgLrhXAdwDdP6i4QzuzYUPVQr399xrwJLp25qHw32T2m0J+7anBPd0wz3WrAwjKcOEezAMw/0nt3a5mP60j0oluAvu8dU02Hub1T+Qnx76UK1wb6ZeAvK22ZHD4b5DbRc8zSK/vSG4Jwz32RizMkBSZjBqUoYK9wzsnfoH+tTghpinEtwF92qAeyfY+4zRBh1jBm+ldi3O7bY1Nm70t9f9s35zBHfu25qXsKM3l5E77mukX6SCe8JwjzMrw0jKUOG+B8P9tFe6wLtIfRuoVIK74F4FcM+hOZVeG13NxbdC+paP949O7nz3/zeLaq/ajLvxLWhvGffbWLtXBfeUwz3GrAwlKUOF+zkY7mcvOKXLHbSDp2KeSnAX3KsB7kE/2LzJBJRTi7Gsja7lxummXuyZQL0juHMHm/fa3oI+HO7z1HY3SSe14J4w3HPxZWUoSRkq3OGA+MHBrFO6HAH//5u5QKUS3AX3aoB7M9h8v8FnT3ZFXhZDc/01+/kKPrPHEdy54yB3bNedt3GQ4MJ+IrinHO4xZmVOH/53XlMkGh/cz8NwP+OULu/SnvVRqQR3wT3eKoAj1Ofi/+j18Yho3119Plbphz5xBPci9RIwjx3VDTO4c4fo1GDttgvuaYd7bFkZTlKGCvccHDTxOpRl4Gza365VqQR3wT3mOg4qeSzuD47m9omNyVKYT91wBHfuzqnd2IENy8zD4T5JbRfcWyzynFPBPXG4x5WV4SRluHfcX8BwvzngUi5wA3uKyqgEd8G9SuD+H/bOhSmKJIvCtaCDyjT2CqvoQCuI8rCHQW1eIggCysPXgIiMKCMvEVTUwbH497sTG7ExsSH2ydfN213n/IC6ebOa4quskyfRw1N9H8Hkwu1PVj8ULMueUQTu9aKPgA1sbreDgbuspR8MOt0guFc8uPvyysg4ZWTBveMeTO5vVZILnIvzipRHEdwJ7hkBd3DPYtrnt+yANbe3Np4u2NdtUATuE6KPAJBke4OB+4Zou6ewdp3fJgju0cHdk1cGccr4WNYVBffkDQzueyrJBU2i79b5wYCiCO4Ed/9CAyFHvVZdtOX2kY1hp8KjisC9WfQR0Bw2Pqhe+tWvjDaxdvME98oHdz9emS6ADj04ZYTBvQsGd527O9GzX3cSiiK4E9wzAu7Ads3/2lN81tyyy5Ppb3Q27DQqAvdLoo+AlbAkWx7c60TbBfduOB/nSnCPD+5+vDJX1kWcMsLg/gIG9/X3iT69XwdHP07IowjuBPfMgDu4aTFd81dybcjKI7Pi4RSoXUXg3iD6CBgNS7L1GgD2b2rC2v1McK98cPfilTlxVSRTRhrcDZLcHyoEl18refAURXAnuIfRj6BrxV8oyHWb81LbV5d91N5XBO67oo+Aj2Hfz8pvct4UbfcC1q5zWBLBXQG4+/DKdK3LOGWkwf0ODO53FILLODr4EwlFEdwJ7lkB92QEG9Cqr3q5RvO5L15a9lP8vBi4l/+S0ST6CABPqS0FA/dRyW5zmBmr3f29l+AeH9x9eGWEMmXEwR1esz4cVBioeAUc+00yHkVwJ7hnCNzBXYveMLPXfOr323wVb1IE7kuST4DOhbAk26uLHcG/sgsE92oAdw9eGcQp86kSwf1LN0zuU+q45QY6+GtkPIrgTnDPELgfgBbzgp9ybcYbU594PLpnWgzcb5WtNCT5BFjD5vq57fU3dL2ntEi9jRLcNYC7u1dGKlNGHNyTHRjcx9Vxy1t06F1kPIrgTnDPELijJvcWL9UKH03nfdPnoa1PFIH7QkHwCbCFTbY14G3oek85jbXrvj+Y4K4B3N29MmJOGXFwn4TB/Zw6r8x9dOgvyHgUwZ3gniFwT5awEQ14KTZhOOtDea+9toqBe758b8cEnwA14FuS7fUXy166X/I9pR5r133jBsFdA7g7e2XknDLi4P4KBnd9p4+iKe63FdrzKYrgTnAPp8vYiFZ81GoxNMqcX/baaikVA/e58qVmBZ8A29h8b9te/6Ku9xTwN93rXIjgrgLcXb0yiFPma2WCew4PhNR2eGoPOvBHRDyK4E5wzxS4g0nu0z5qnTeb81XPq7TLcuAOeFPmBJ8ADYE/qxzoek/Zx9o9ILhXB7i7emXknDLi4I77TQ7fKcOWB+jAHxDxKII7wT1T4P4UG9GCB6/5gdGMt9b4brVFDtyBUrcEnwBg6Kf1u8SMrveUeal9GwR3FeDu6JURdMrIg/sU7pVRZhV/A4+bVhmK4E5wzxS4J2PYkF46Fyo8N5nw2i3vnR7IgXubhFEDX5Fsx+bc+iTRl+WvfVGu3RK44XqY4F4l4D7ltKAs6JSRB3cDr8y4KmqBwyAHye0UwV2jfPzT3ya4f1tnsCHVOxfaMJnvJwGsFX1y4A58x1iVu8XL2JwXO20LAB8Y+uTaBdMga90rEdx1gLubV0bQKSMP7gZemZsdmqjlJDrsP0h4FMFdo3xEmjQT3L8t8Egk5+y84SGD6Z7/HKDTS3Lgfl0ijBDWDDbp9gcSATnxp+TaBTN0PhLcqwXcnbwyiFPG20DlV9wNvDLPNFHLa3TUPyQURXBXqDoPk9BIcP+2PmBDGnOtYxIFOdQWotPzcuAOJE82yd1i0Ca2a/9SVv7io3LtrmLtbrpXIrgrAXcXr4ykUybCiruBV+a1Imi5cRsc9Pr7hKII7grlg2MvENy/rU4wo9Exz69ksOBeG4TbkT2L3sC9fLfzcrcYdEPZQ2ZuoezFR+TaPYu1O0Fwrxpwd/HKAE4Zf4GD8uCe3IHB/d4XPdDyEB30FQIeRXBXqbvuuYBrKcH9CIGRI3m3Kv8yyJPZCtLncL8guJffiFuUO5JoGpt3h+2yteU/osj9oMFXRA87ZwjuSsDdwSsj6pSJAe5vca/Mp0SNrqFjniTgUQR3nZpxnoNegvtRAo+r2XarMgJPdX+gABLE6e0N3JvK13oqdYM7i8H/yoDAoJJUu+DfmIc0SIK7GnC398qIOmVigHsH7pXZUcMsX9BMGW0hlhRFcPe2kS83TXA/SuBevl2nIi34VIeKW5mQBPfR8rW2pG4wuIshdTinFtg+0CbVbj50hg7BXR+423tlRJ0yMcA92avAKPcf4Cgc8h1FcFeqomvISD4luB+lNmxMtU5xuafgmW4KZSE5KwnuQL+LUjcY/NrkEo8IHM2al2oXDH5d8lCK4K4F3K29MrJOmSjgfmIdBvfjWpgFPn3pPvmOIrhX6fbUzn8Q3I9erLqLDcrl5Sk3j0703acx2/QG7sDyvliQO7g31QXvgPeUPql2wb2pPuI4Ce5qwN3WKyPrlIkC7jgFH3YriWh5DDtlXpHvKIK7VvXXOM1AXUpwdyYdF+v5T/BEBztQFPqw4A3cBxTdZDBQyYUxfyt/+U2hbgvge6iHUBmCux5wt/XK/CLqlIkD7g9xr0yXDmSZRMd7jsemUgR3vWp3OUkzv0Bw/45Ab0Fz+BJpOhIsa6VeFNyBnbBjQrcX3azpcswZsE/io1C7s2C7eYJ7NYG7pVemR9YpEwfcOwYr7PTU3Dl0vHsEd4rgrlhP7J0aW+0pwf177zWg+dyhRBM6z3PButyXBPccsL7fL5SzcksgZeUl8Oot9C92A2zXhyWL4K4H3O28MohTxme6eRRwT8bxJfdfNRDLSXi4zJShCO6qVWvLdAceuL2qwR0cVKv9YngJPOQp4HGiw62S4J5cl8kjRATGfba6pKysCZEyoFGsXS+58gR3PeBu55URdspEAnfku4Km84x20O20P5PuKIK7cp97vQ05lpr7U4L79zUWekl2Dp3mmWA9YuvO3sAdOQXooszdfQ6alFxqFICo+DmRbgu1gn9iBHc94G7llZF2ykQC99wOvuR+Mj6wvIAHy9OXKIK7eo3MmH5uL9SM+Sld1eDekAam2npwli+Es1OsCIM7cOBUs8jNfQrO/eXQ736/ibSLHhjgY28qwV0TuNt4ZaSdMpHAHY9F/88UxXeNv0bHun4ioSiCu3ot9c3iz5XCT3XzvgpXNbiDXL1iXeCMJE19U521wuBe/mWof0Tk5oLnazntTYV2EOxq+i37iZUnuCsCd2hH4/95ZaSdMrHA3eD01MOHsXkFN/a8IdxRBPcK8bo3NaxcLq+V0ZF2j1WrGty3sFFNWxcAz63tD2eDBndo+gN3IEeneF3i5oKfU9JZpyqAkf5uQaLdffCn9iPBvcrAHdqCOWmMiH45NhK4I58W/ucbjx0s8xo+MErFTlqKIrhrVVWDe6kIjWrBFjRz4CtUwCXoXWlwRxa6JVzfnWCsudvBuNDprLMC7Q5jP2Uv56YS3HWBu7lXRtwpEw3c/7yNk/unSllwH1SRXUlRBHeCewRwRwzZf+ll2K7T7WANLhelwR3xWk8I3Fp0X/CoW5kZoMSGQLsXRRz9BHeN4G6eKyPulIkG7skeDu43b0TFlUfwgvs4Q9wpgjuVWXAHEwPrLS+Pnpu6FazBvlQa3JE8yH2BW9uchr23MD16+xv6rtDdFDVeqhHcNYG7sVemR97xHQ3cH3fD4L6+F5NWpuBxXmWIO0Vwp7IL7ovYsBosLw+e8FQMdyLRkji4J8C+6PbO8Lf2Ath5i9vqVQFwQ82H7xY1BnkKlSe4qwJ3U6/MJOCU+bNKwD25gy+5d/fEg5XcFXiY3JpKEdypDIN7GzassbDvBUvB+nuZyoN7Y0DvES40HdF55yhyNm5b8HZn0rC/ZIK7ZnA3zZUBnDLXPE9KNHDP9azj5L4Tz4PyOz7KZ0Q7iuBOZRfcc+BC5TG7y4MRfZvB+muIAO51QLnwSe6rMhb3JDkFFAmf5L4panEnuOsCd0OvTASnTMQV9+QRjsTebwys94N4+g3JjiK4UxkG9+QsNq683dUnsKsH26t5rDUCuCMBlGOhV7Zy6EEGA66VkBSd4MH1JTQBNu+nHsFd14r7KyOvDOCUuefZKRMR3HOvruLgPvg+Eqscx8f4O8mOIrhTWQb3bWxc20GvPhCqu4k0ArhD9qOWwPcV9gg5e75ngSIBc/rxl6W/1OopQb9CwL0pKyvuiZFX5p28UybmirvRkvvxOKjyDH+5GIybfUNRBHeCe2RwB7ePWh5+Cfo1ZgI1V5iPAe7Ids3ggZCXwL6nZdoNHQg5CrbrK86nQsB9JMq/nRjgbuKVieGUiQruLwxc7lejGMi/GhzwGjX6hqII7gT36OAOjsvylB4Q3EMtP59OY4B7cl4EmL+rEhqysupeq0kQmI/6FaOWqHpPBSsE3Kej/NuJAe4mXpkYTpmo4G7iQzkcfBzhJ4OfmXp4+yvBjiK4U5kG92QMG9hnq4uDVplQoSMf44A79Lryz6B3dRHt+4N7LWR3anE4aLtoWr/lz7hiwf15ZsDdxCsTwykTF9xPdBuQ+478saQPDYY3Sa6jCO5UxsEdzF25GBKo1sK0NpPGAXdooT+sV6YJbHvewyZZ6CUhqFcm9xxs15t1pELAfT7Kv50o4I57ZaI4ZeKCe3L/UDMa99w2+CDwhVxHEdypjIM7mNhol1/Yi118OS69+gb3pxAyFwLe1Fm07WapYkFNG3Nou95iKSsE3FujxHJHAXfcKxPFKRMZ3B/fMwD3q1Oyv5cbv3DBnaII7gR3XFvYwOzyKQZirrjPpZHAPYH2xOYD3tRTaNsenDLY7tT0p4DtnpF2ylQKuKfDMf7tRAF33CsDOGX+8D+8uOCe7Jksud+UzYQ0cuBzwZ0iuFOZB/dSERpYq9UCcQ3WdRCPe2EkGrhvRr7Vw2iq+byXFdldpNRKuHbXimC7/kJWVID7WrzdIwrBHfXKxHHKxAb3r4Mm5P5G0ub+wGRkD0h1FMGdyjy4JyDfWiW/3Ap4bU+r/SHAHXJ9L4TLNofj6+u8lIPcVu3hFn/h7wv13kqqAPfl8h3PZQfcUa9MHKdMbHA3w+PDO3K/FoME98PDnzsSiiK4U5kH98sByRbcHhoCL4aH4oE7ZHIPtz21BLfuxzrSAtUKtj0V/r5QPFZd4D5cvuWBGP924oB7DvTKxHHKRAf3jndG5N4l9WOZMnHfH0YJmacogjvBXRm4g8mBVlYHcJPkYsxl2ADgnkApJ/Odge7oxr/ZO9eHJpYkiregguJgVETUZCRBCHiB5SmJPAWUp4BoBOQpT4VVWfR6h/9+Ue91V3xQ1dM9XQnnfPTDdFdPGX5dc7qaGrShizW9YtLxVFsHJcnfF3rNjSkC3DuiOXycJ+BO9MpQnDJPCxDc1TCnsn1YtxZNriyyLDxTYDoI4A4B3JVK0mam1RYkS3u2hdrz8qxLcL/obL9ypHQfNWhTE6AdDo3ZCbeV/H3B4AREgLt/csjvXfzZcQTuNK8MxSnTVojgrj5wEHm97mkUqcLj9oZ7YDoI4A4B3JXyaJdszrbqPJzmYtg0T3N9gUtwpzW0OWOnI2QzNeZUq6ER70RZ3z+uEmq4MwaXWwS4q5MP5WZOEbiTvDL1TW6cMgLAfbqHZZZpuBAFt7M+A+w56W4KQQB3gLs0cFeVtKkt6zw7Z6+a/1ttBk7B3SeZR4IHNl5ntpgac42xbVLCXgadpOdUh3uwbXBUGeBOCH3VwQ+KI3AneWUOHTllBIC7t8ZbhoYnthNlhVVvP2xqUxAEcIcA7kfattiSg7YpaOwwHNKdwC24EzcO8zZc7kvUkDvN9QokNYQM9m0UzMhbtITJa75kgDvBJPTMwQ+KK3BfMcPtVpwyAsBdea95C1F33nKesM6lHq4Po+AOAdwhgPuXn/MYbWrlOg+vtljN/7XGUq7B/TJtVAudVlYT1JB3zQ1KbL15x3y4cfJZBqN+LBng3hfZz1degDvpDiZHThkR4H6vgUnuVq8pXVvnzWYEQAcB3CGAO2tqfTrPJnb8MHs6NXsrcA3uadrBgYzx5ubeLjnkUYMrTtst3DL+hcHfJ4dr9LIAGeBOCD7joErpDNwH5DplJIA7t5n7kc5Z65t+l/uybuDOVAjgDgHcGYW7z9Lpgk2s5nebDMffDZyDO/VTQ43pd/mMHHHOJNL1Rm8z/6IWcrg3jY4rA9wpq/7uFIH7ilynjAxwv7vDXY3X03ZmMl3LnEgdWrhDAHcI4P5N5bS5xTQePUdcZYNn6LzqQAC4bxF95oZNQnPkk6lmfSsfaWM2jpkN94DsCzL5fUEMuNe42BoKBncjXhk7ThkZ4K6mu7jL0T5sYx5P2fOAUQYCuEMA9/+pjDY3rXLpDO3ZLeaiKQkkgLtHtOvkzLpHrpEDnjfaizJN3DBUGB3VryCHu2/29coAd4oRrTgd+e+JO3AfEOuUEQLu6gl7PerqjbutPvWzZ1F7V0EQwB0CuDOrw1qHGYkk2WcM6JoDEeBONnEYBTxG8EVmw6X2sjF6mmGbHm6sEMGddCb4QeS/J+7AfUWsU0YKuKsR/pK8NjyxF/wPI12lCoIA7hDA/Zs6GklzK9apvDyMGKyudwoB92wieqTcojtH5g1f/nSF2N2lccvcmDH6u+42XDWUAe4xF6FLBncDXplXlmYmBNy9u7Uam5k1gzn09hV/AuswuEMAdwjg/p26aZM7sMUWgbFrNcs0ud08uKsF4sjFV0yNODdDj7fIdLhUk87EWVMjHgzSwx01HK0McI87iV0yuA9IdcqIqbir0i6NValdNDR6W32PxvBD6OAOAdwhgPt3qqFNTuc44yUqSRspPD/Ufs3mwT1OHTrXambANN3xbaEMO0odusKQ6bo1Rw+30nS0MsA9G+WeOC/AfUWqU0YOuHsv1jXWpWHkrYmxz2t9EumHwR0CuEMA9+9F7CFYZbGaH+TCezf8i4EgcFfvqWP3GrGt+L2McJeNR+s9oo69YGab8p4e7WzcdLQywJ1ydWpg5d4rqeAe2itjyykjB9yVqtdamZ6hsHsa70mTXp8f1NshgDsEcD+mpEU7C/XUYlAWuv64G4gC92Xy4DUG/jJ5m4xobaTZA/LoJrq5p68xwt00HqwQcKdtXsxf8yUX3AeEOmUkgTtlLj/tDDn5KcSgf05qbqqmUG+HAO4QwP0H6KO5hRM6Jodx6kInkuGCuJILZIG7oltXSsK/whpGsI1JC9H69F+bsvCDlTPCTT0vVHAnfmKqPj3gHtIr02PLKSMK3HUOqH5t7jKkex/TYv/jdb0xX7eh4A4B3CGA+w+qpM1Ox3HgZ6gr3R3K/Hy5OJAG7qP04cN2SfQ53G5gn/AzFZHH7wy72umrnHBbzMcqBNyp9+RG2xLSJbiH9MpYc8qIAnf1tkl3gRqmLvAL4KX1/z7UxPbDqTYFQQB3COD+g7Yt0u0CealDmJ/TNSFfsw1w9xinRZdClZU6OMaRoK/DShL5uahYOnuTE27OwhVEQsB9jPrNIRnlr4lTcA/nlblwOsBdlbbrr1FXP4fd7w7v/atOf7ARlNshgDsEcP8ZYcYskvVoBDg39igQCO7qNqM5ZU2IE6pz3axYY5bSKMaYQ0mIP8gH85xoO7cshCoE3P0UcRHmL50WcF+R6ZQRBu5qpSfMOj3eqV8hwPufb4amQo2zPgmIgwDuEMA9zOweacEF2SsTzOp1F+8oaQxEgrviOLErtY8QvptghdprLY0YjV6Ccu2y/3iGFW61jUiFgDvV43b0XzdCcncK7qG8MvacMtLAXb1pCNs4s7Z/bfgXlndveuX8wB9N62GHCHVUuO3tveEXuLkJArgD3AsU3FUfDay1Oo4zmjTO3tcBuVsnU2K3G3C/kmBkWu5Aawx/m7dtycxZy6L4LGMe+3pHRtNVvDu2Jqy0VJEC7i8DgeTuFtwHRDplxIG7ehGW3L+yddPOq5GhybW1J0daW5scGjk3VXvDyKMPa+/xQH36CNTPr9UP9H/YqW1q/zqHJlAgBHAHuBcouBNLw1rtv+OM1e5s4T59jNAE8szJFng74E49PPC3E1ln25LsZib0ZYtpxDppUKxzZDLO7B3UOW4lUCngfpu+ErfiUf2YuAX3EF6ZHouNB8WBuyFyXz/xH3QfPHDC22j7a3px+Ol/JvdGXk19A/XjArhDAHeAe6GCexltenp9/HJpg1QAABV2SURBVPY5613Oquo/X6AUeceVK3BP8+zYvWeZz+94mWLm84LNNMrO8ObCrYa3liSY4S7ZCVQKuPuMXkqJjVMB7kq7Y8rhOYuzkgfu6mnDoVzdGD4+3U9HnH7h/OTQQP8fO7VNXQ2kbQLAHQK4A9wLFdy3iFSt9fAi1oKfoVcGxzZJHNernIE7vY3930X3Fk4LFK9ogpvOt1qt5tEd3myKNzhHcv3rGW64j9J24pQC7oyeTUfajaa5jGNw35PolJEI7qLJfaftU+k3UH9de6NLb64AdwjgDnAvVHDvoPmk+/TKzjy87LxIKsT6MeLJvNSqQ3BXm1yyvk9lTW+0m53NiduWE4l7e22uiBzuZf4NW9baIEoBdy/GWo/GGrrT3dsazU9wX5HolBEJ7urNY8E1dyOmG4A7BHAHuBcquCsiA57Vengzc80zLSfWhZNL5N3AZ4eAO3DP9nEzLvOQcny09ZlOC8z7tvNojn0P1kQLBSazG/P8aDutXTwkpuKeHmRuZappH7TiVRNBVX6Cu7ZXxqZTRia4q5Wuw8IWwB0CuAPcCxbciccKY3r1fLbFYbDkN7VSL/6QUWvu9ZyCu1qeZefc7Pv7v//okB5dSOkkc7X9RLrMn1XjbtHvw+34eDWhE26JtSjFgLuqZq9KxcbqCZuB8aUvu6Q8BXdvT6BTRii4q8V2gDsEAdwB7nkJ7sTL07f1nr6hsfCPXt7+iQHaH3tWzXLefG0H6BDc1ZJO2s12V8V+/nnDjzf3pvRyuSIdQSYt6Myscb9k9Ofwno63XNMMt9K3FqQccH+nszK5pY+/gHcv2bz7z3Lna8V9RaBTRiq4q7e1AHcIArgD3PMR3JPE4216T/fntdY+dbNqI5Z8nk2rjuzqwXLRw+qbXIZr3KJ9ULAI7ukK3dzLvL9YVjSeXM1mlZd9fhAfLyrpPaN/2VTfXBSZ1JrTDrfyYvOd5aP3/SXcZHz82dK1ef1wc1l7QcoBd0/30uDi9zUvPyfXpezn7Vx6LrlV9HJh////f+UruGt6Zaw6ZcSCu2r7AHCHIIA7wD0Pwd2jeWWLNW+q/+jq9TUr5+Cu5mZEZHLmIJpUOhgUEe7Ec4sxygF36rcyDeUtuOt5ZexesikW3JW3tw5whyCAO8A978Cdenm6Lvxdc/P2/mnj7RTc1VZCQCKnbkeUSV6sU0C4g2M2YxQE7ukZgPuxBFyU55QRDO5HL6wH4A5BAHeAe96BO/GOzzuaj19NOXl5nghwV9fd53FjLLpceuk+3MSy1QgFgTu7Z1PhV9y1vDJ2nTKiwV2V1gLcIQjgDnDPM3CnNoTW/WNuDy9+o8pvhzEdgzt1W2SR2x9EmU01zrl91G6AksA9PQFwP6Y9cU4Z2eCu2kbqAO4QBHAHuOdXxZ04wQrtnUFl9NzeSidJy+DuGmUTHyNNJr/csS1o3HKAksCdeTPxaQB3Da9Ml12njHBwV+pFO8AdggDuAPe8AndFuygood1RcC4T8ZsrTzO42Ta4u0XZiLldqXRlQXO7LHD3KgDux9QkzSkjHtzV2ymAOwRJ0CNwd2htnhZwJ5JlXHuA8dlIX1y1zyl42wZ35V91CLKxyLMpfc1duIPL1sMTBe5qLAFw/1570pwy8sFdqaftAHcIcq8KcHdoGfoDLB/cy2gzDEG4UZ5Z7Nz+rnGle3BX/oKrFM7EHaRTutdVuH1J+9HJAndL/7PyF9z5fWVsO2XyAdzVX/11AHcIcq1ycHdotZwWcN+izXAhxJ/T6IrOqWNnMQWAu/Kq3GTwmVXPRT75m27C7Y7imilh4O5XANz/y969eEVx3XEAHyE9eAL7ACQ1Cmygjz3Wd7oi4AG6VNLNYgzhUVGgpAFJKw0aTtvTP79gX6ZRGXZnZ+7A5/MPcO/dmct37vzunR86ba3MXKfvkTwE9yj6/U3BHTJWl7vbVj4vwb0W7xuVC+2swqb1CujC/y+6hhDco2jnRgYX8MupjC6oQj2L89wH76bRt8CCe7S6JLj/wH5glTI5Ce7Rz7++L7hDprbk7nbdSCj2hB/cowexWrjcTjCaSmfXxcyP2hhGcI8aqX9U9N7maHZX1HTqh/cv19N5uxBacI8ORgT3N20EVimTl+AeRd+dqXoZwZ38qU5K3u2uVyb0U+QguMc8sbCtnX99aymUyUwUTt+3dIJ7NLaW7uU7X8py/ikMz6bb3clGSj0LLrhHlWXB/U2nq/mY63h7chPco+ji3DeCO2TnsuTdpq7zE9xX4jWxt73E0/E190vbrTyUpBTco1qqW1QXDjOegKZS3WbzajWtfoUX3Dvwdd5cB/f9sCpl8hTco2jj8S8Fd8jK6ojo3ZbZpAoNchDcx+I1sdhmlPu4oz/YyJ3Rlt4mDKU2zJXUymWWN6vZT0FDqU1BI/X0qoICDO7RzrLg/kb2DKtSJl/B/Wj45q4J7pCRTdm7LZWkfogcBPdCvEQ52+afqXbybJkX71hiDii4R9spfZxo/SCIKWgspR3JC2keehlicI8qNwT3/7kZVKVM3oJ7FF383WeCO2Ti7rrw3YbBxLa65SC4RzED5QftPiDc6dThKlfe+YHQkIJ7VOjqTmG5/cNaIHNQYSeFPaojPam+XQgyuEfNbsH9v05TK/Nnwf0t/vb1XwR3yMLwuPjdeqFMX2K/Qx6Ce0+8NpbbDxidOLzuH+P1d0fVoIL70dWw2+mTEi8NBzQJbXf8Y0wvx9LtUZjBPepfENz/YyOoSpk8BvcjD//4meAO6Wsoc2/VZIJpIA/BvRyvjXsJ5J7B5GP75vuesgIL7kcP1B0tIJlcKYQ1C2096GR3F6fT7k+gwT2qfnhPcP+3myFVyuQ0uEeFT794fE1wh7QdLIngrRVeJHkkRx6Ce8w2fpTE/4OVZN/qj1x+fwFPcME9Kkx3rIptfG8quFmosNKxkyG767XUH1NCDe5R1JgV3P9lP6RKmbwG9+Nb98tH314T3CFdq6+E8BbMJJp+8hDco3j/87sTiUl9CVaLTO6d9Jn78IJ7FI12XehIbN/sC3Iaqk50JLrP17N4Sgk3uBdqmyOC+7GNkCplchzcj/39q5/cF9wh1YSwY9H9tNbKmaxmZxvcYx66ndCbiKsJHQz5YOXkfYkhBvejG7OSeAXJ/OYH4c5DK4k/qUxm9HIh3OB+5LB4T3CP4tfKpFEpk/PgfuxX38/d/EZwh/RWu7o+Uup+ikXLYjnpl++5CO698RqZ2BmZ5fYLveefPo/zl8IM7kcOdpO8MRcmakHPQ4VmMckThV51ZXVQfdDBPYqGi8uCe+xamTQqZc5AcD928av9x78W3CEttecTz3o42Z2u4Q58yKXvSiyfZHqNXI3XyGfJ/cXmYDsJ48aLSsygundSnyqZDXpfb0LL7uMDz3MwDz2pryX0buHpcHY7cKdOvEnq2Q5z/+Xucx/cNwKqlDkjwf217x5+v3/99n3BHQhoXdAQpGe7p8U6rpEXQ0/OyBgc1hfaf0lUquWlu5/vtb0vd363XHWfvle1MjiSTXD/w/UTPUxlCOaux/Eolbbs3z7Rl/m6wD69+PCLR7/9zdz1b39x+/bNn4bpTyYCgMSNNgZO/bGBpd3S3TM1CIdDM/MtJ6zZp9O1fHV37NZg6x+YWP9Zuea2iWFqpTifQXDnHC1yeXoGOI+q5U8W44f2gYmxszgIo8+fzZz+7cNSceIwn7/5Vn1w8vRHtu+urLpfTnFRHfQWF1vL7Yu3DB8A8Hb9K08XTtq5uPRir9R/pkdhtbRXXItZ4nBl5lkj59VC/ZWemfV4+1XvrRfvNPvcJy14Uu4ZvBC7bube0qWnz6aHa9ZSAYD3qV3t2is+WPrRhtXx2UsDe13Pz0tsGz0s7+ztvrzw9jqH8dkHM5dvlceqZ6W71bHyTs/ux+vv6u6rmc2dxmHV7dHeRbXdHNoceLmw+PYEP7K08LJ4ubdysG2gAYCYjtf5Rp+MHTRK0xMTE5VSuXl1+9wu/hWmtoe3GqXXQ7FSOhqLrc+fVM92d5vnp7uZPR5vDx80m399PcxdpVKj2Rzuv2tYAAAAAAAAAAAAAAAAAAAAAAAAAAAAAAAAAAAAAAAAAAAAAAAAAAAAAAAAAAAAAAAAAAAAAAAAAAAAAAAAAAAAAAAAAAAAAAAAAAAAAAAAAAAAAAAAAAAAAAAAAAAAAAAAAAAAAAAAAAAAAAAAAAAAAAAAAAAAAAAAAAAAAAAAAAAAAAAAAAAAAAAAAAAAAAAAAAAAAAAAAAAAAAAAAAAAAAAAAAAAAAAAAAAAAAAAAAAAAAAAAAAAAAAAAAAAAAAAAAAAAAAAAAAAAAAAAAAAAAAAAAAAAAAAAAAAAAAAAAAAAAAAAAAAAAAAAAAAAAAAAAAAAAAAAAAAAAAAAPgne3AgAAAAAADk/9oIqqqqqqqqqqqqqqqqqqqqqqqqqqqqqqqqqqqqqqqqqqqqqqqqqqqqqqqqqqqqqqqqqqqqqqqqqqqqqqqqqqqqqqqqqqqqqqqqqqqqqqqqqqqqqqqqqqqqqqqqqqqqqqqqqqqqqqqqqqqqqqqqqqqqqqqqqqqqqqqqqqqqqqqqqqqqqqqqqqqqqqqqqqqqqqqqqqqqqqqqqqqqqqqqqqqqqqqqqqqqqqqqqqqqqqqqqqqqqqqqqqqqqqqqqqqqqqqqqqqqqqqqqqqqqqqqqqqqqqqqqqqqqqqqqqqqqqqqqqqqqqqqqqqqqqqqqqqqqqqqqqqqqqqqqqqqqqqqqqqqqqqqqqqqqqqqqqqqqqqqqqqqqqqqqqqqqqqqqqqqqqqqqqqqqqqqqqqqqqqqqqqqqqqqqqqqqqqqqqqqqqqqqqqqqqqqqqqqqqqqqqqqqqqqqqqqqqqqqqqqqqqqqqqqqqqqqqqqqqqqqqqqqqqqqqqqqqqqqqqqqqqqqqqqqqqqqqqqqqqqqqqqqqqqqqqqqqqqqqqqqqqqqqqqqqqqqqqqqqqqqqqqqqqqqqqqqqqqqqqqqqqqqqqqqqqqqqqqqqqqqqqqqqqqqqqqqqqqqqqqqqqqqqqqqqqqqqqqqqqqqqqqqqqqqqqqqqqqqqqqqqqqqqqqqqqqqqqqqqqqqirswYEAAAAAAJD/ayOoqqqqqqqqqqqqqqqqqqqqqqqqqqqqqqqqqqqqqqqqqqqqqqqqqqqqqqqqqqqqqqqqqqqqqqqqqqqqqqqqqqqqqqqqqqqqqqqqqqqqqqqqqqqqqqqqqqqqqqqqqqqqqqqqqqqqqqqqqqqqqqqqqqqqqqqqqqqqqqqqqqqqqqqqqqqqqqqqqqqqqqqqqqqqqqqqqqqqqqqqqqqqqqqqqqqqqqqqqqqqqqqqqqqqqqqqqqqqqqqqqqqqqqqqqqqqqqqqqqqqqqqqqqqqqqqqqqqqqqqqqqqqqqqqqqqqqqqqqqqqqqqqqqqqqqqqqqqqqqqqqqqqqqqqqqqqqqqqqqqqqqqqqqqqqqqqqqqqqqqqqqqqqqqqqqqqqqqqqqqqqqqqqqqqqqqqqqqqqqqqqqqqqqqqqqqqqqqqqqqqqqqqqqqqqqqqqqqqqqqqqqqqqqqqqqqqqqqqqqqqqqqqqqqqqqqqqqqqqqqqqqqqqqqqqqqqqqqqqqqqqqqqqqqqqqqqqqqqqqqqqqqqqqqqqqqqqqqqqqqqqqqqqqqqqqqqqqqqqqqqqqqqqqqqqqqqqqqqqqqqqqqqqqqqqqqqqqqqqqqqqqqqqqqqqqqqqqqqqqqqqqqqqqqqqqqqqqqqqqqqqqqqqqqqqqqqqqqqqqqqqqqqqqqqqqqqqqqqqqqqqrAHBwIAAAAAQP6vjaCqqqqqqqqqqqqqqqqqqqqqqqqqqqqqqqqqqqqqqqqqqqqqqqqqqqqqqqqqqqqqqqqqqqqqqqqqqqqqqqqqqqqqqqqqqqqqqqqqqqqqqqqqqqqqqqqqqqqqqqqqqqqqqqqqqqqqqqqqqqqqqqqqqqqqqqqqqqqqqqqqqqqqqqqqqqqqqqqqqqqqqqqqqqqqqqqqqqqqqqqqqqqqqqqqqqqqqqqqqqqqqqqqqqqqqqqqqqqqqqqqqqqqqqqqqqqqqqqqqqqqqqqqqqqqqqqqqqqqqqqqqqqqqqqqqqqqqqqqqqqqqqqqqqqqqqqqqqqqqqqqqqqqqqqqqqqqqqqqqqqqqqqqqqqqqqqqqqqqqqqqqqqqqqqqqqqqqqqqqqqqqqqqqqqqqqqqqqqqqqqqqqqqqqqqqqqqqqqqqqqqqqqqqqqqqqqqqqqqqqqqqqqqqqqqqqqqqqqqqqqqqqqqqqqqqqqqqqqqqqqqqqqqqqqqqqqqqqqqqqqqqqqqqqqqqqqqqqqqqqqqqqqqqqqqqqqqqqqqqqqqqqqqqqqqqqqqqqqqqqqqqqqqqqqqqqqqqqqqqqqqqqqqqqqqqqqqqqqqqqqqqqqqqqqqqqqqqqqqqqqqqqqqqqqqqqqqqqqqqqqqqqqqqqqqqqqqqqqqqqqqqqqqqqqqqqqqqqqqqqqqwh4cCAAAAAAA+b82gqqqqqqqqqqqqqqqqqqqqqqqqqqqqqqqqqqqqqqqqqqqqqqqqqqqqqqqqqqqqqqqqqqqqqqqqqqqqqqqqqqqqqqqqqqqqqqqqqqqqqqqqqqqqqqqqqqqqqqqqqqqqqqqqqqqqqqqqqqqqqqqqqqqqqqqqqqqqqqqqqqqqqqqqqqqqqqqqqqqqqqqqqqqqqqqqqqqqqqqqqqqqqqqqqqqqqqqqqqqqqqqqqqqqqqqqqqqqqqqqqqqqqqqqqqqqqqqqqqqqqqqqqqqqqqqqqqqqqqqqqqqqqqqqqqqqqqqqqqqqqqqqqqqqqqqqqqqqqqqqqqqqqqqqqqqqqqqqqqqqqqqqqqqqqqqqqqqqqqqqqqqqqqqqqqqqqqqqqqqqqqqqqqqqqqqqqqqqqqqqqqqqqqqqqqqqqqqqqqqqqqqqqqqqqqqqqqqqqqqqqqqqqqqqqqqqqqqqqqqqqqqqqqqqqqqqqqqqqqqqqqqqqqqqqqqqqqqqqqqqqqqqqqqqqqqqqqqqqqqqqqqqqqqqqqqqqqqqqqqqqqqqqqqqqqqqqqqqqqqqqqqqqqqqqqqqqqqqqqqqqqqqqqqqqqqqqqqqqqqqqqqqqqqqqqqqqqqqqqqqqqqqqqqqqqqqqqqqqqqqqqqqqqqqqqqqqqqqqqqqqqqqqqqqqqqqqqqqqqqqqpKe3AgAAAAACDI33qEBSoAAAAAAAAAAAAAAAAAAAAAAAAAAAAAAAAAAAAAAAAAAAAAAAAAAAAAAAAAAAAAAAAAAAAAAAAAAAAAAAAAAAAAAAAAAAAAAAAAAAAAAAAAAAAAAAAAAAAAAAAAAABgBPLMh16N66NvAAAAAElFTkSuQmCC;" vertex="1" parent="88">
                    <mxGeometry y="10" width="89.91" height="60" as="geometry"/>
                </mxCell>
            </root>
        </mxGraphModel>
    </diagram>
</mxfile>
